<svg width="96" height="96" viewBox="0 0 96 96" fill="none" xmlns="http://www.w3.org/2000/svg">
<g filter="url(#filter0_b_611_14116)">
<path d="M17.5 30.3321L47.8109 12.8245L78.1218 30.3321L78.1218 65.3474L47.8109 82.855L17.5 65.3474L17.5 30.3321Z" fill="#474747" fill-opacity="0.5"/>
<path d="M17.9999 65.0587L17.9999 30.6209L47.811 13.4019L77.6219 30.6208L77.6219 65.0587L47.8108 82.2776L17.9999 65.0587Z" stroke="#474747"/>
</g>
<g clip-path="url(#clip0_611_14116)">
<path d="M41.8757 53.7231C41.8757 53.9832 41.9658 54.2033 42.1458 54.3834C42.3258 54.5635 42.5507 54.6535 42.8207 54.6535H52.1958C52.4458 54.6535 52.6657 54.5635 52.8558 54.3834C53.0457 54.2033 53.1357 53.9832 53.1258 53.7231V47.1502C53.1258 46.8901 53.0358 46.67 52.8558 46.49C52.6757 46.3099 52.4558 46.2198 52.1958 46.2198V44.344C52.1958 43.7037 52.0708 43.0985 51.8208 42.5282C51.5708 41.958 51.2358 41.4578 50.8158 41.0276C50.3958 40.5974 49.8958 40.2622 49.3158 40.0221C48.7358 39.782 48.1308 39.657 47.5008 39.647C46.6508 39.647 45.8657 39.8571 45.1457 40.2772C44.4257 40.6974 43.8608 41.2677 43.4508 41.988C43.0408 42.7083 42.8307 43.4937 42.8207 44.344V46.2198C42.5607 46.2198 42.3358 46.3099 42.1458 46.49C41.9558 46.67 41.8657 46.8901 41.8757 47.1502V53.7231ZM43.7507 52.7777V48.0957H51.2508V52.7777H43.7507ZM44.6957 46.2198V44.344C44.6957 43.5637 44.9658 42.8984 45.5058 42.3482C46.0458 41.7979 46.7108 41.5228 47.5008 41.5228C48.2908 41.5228 48.9558 41.7979 49.4958 42.3482C50.0358 42.8984 50.3108 43.5637 50.3208 44.344V46.2198H44.6957Z" fill="#3052FF"/>
</g>
<defs>
<filter id="filter0_b_611_14116" x="16.5" y="11.8245" width="62.6211" height="72.0305" filterUnits="userSpaceOnUse" color-interpolation-filters="sRGB">
<feFlood flood-opacity="0" result="BackgroundImageFix"/>
<feGaussianBlur in="BackgroundImageFix" stdDeviation="0.5"/>
<feComposite in2="SourceAlpha" operator="in" result="effect1_backgroundBlur_611_14116"/>
<feBlend mode="normal" in="SourceGraphic" in2="effect1_backgroundBlur_611_14116" result="shape"/>
</filter>
<clipPath id="clip0_611_14116">
<rect width="15" height="15.0065" fill="white" transform="translate(40 39.647)"/>
</clipPath>
</defs>
</svg>
