<svg width="220" height="220" viewBox="0 0 220 220" fill="none" xmlns="http://www.w3.org/2000/svg">
<mask id="path-1-inside-1_700_229" fill="white">
<path d="M110 0C134.85 2.96333e-07 158.968 8.41418 178.425 23.8719C197.882 39.3297 211.532 60.9202 217.151 85.1265C222.77 109.333 220.027 134.729 209.37 157.177C198.712 179.626 180.767 197.804 158.458 208.751L145.221 181.776C161.436 173.819 174.479 160.606 182.226 144.29C189.972 127.974 191.965 109.515 187.881 91.921C183.797 74.327 173.876 58.6342 159.734 47.399C145.592 36.1637 128.062 30.048 110 30.048V0Z"/>
</mask>
<path d="M110 0C134.85 2.96333e-07 158.968 8.41418 178.425 23.8719C197.882 39.3297 211.532 60.9202 217.151 85.1265C222.77 109.333 220.027 134.729 209.37 157.177C198.712 179.626 180.767 197.804 158.458 208.751L145.221 181.776C161.436 173.819 174.479 160.606 182.226 144.29C189.972 127.974 191.965 109.515 187.881 91.921C183.797 74.327 173.876 58.6342 159.734 47.399C145.592 36.1637 128.062 30.048 110 30.048V0Z" stroke="#3052FF" stroke-width="40" mask="url(#path-1-inside-1_700_229)"/>
</svg>
