<svg width="25" height="25" viewBox="0 0 25 25" fill="none" xmlns="http://www.w3.org/2000/svg">
<g clip-path="url(#clip0_611_14789)">
<path fill-rule="evenodd" clip-rule="evenodd" d="M7.33707 0.153411C5.30222 0.245224 3.53852 0.74272 2.11437 2.16086C0.685243 3.58644 0.193927 5.35713 0.101885 7.37082C0.0446705 8.62767 -0.289893 18.1229 0.68027 20.613C1.33451 22.2929 2.62305 23.5846 4.31835 24.2409C5.1094 24.5486 6.01242 24.7569 7.33707 24.8177C18.4131 25.319 22.5189 25.0461 24.2502 20.613C24.5574 19.8239 24.7689 18.9217 24.8273 17.6003C25.3336 6.49589 24.7453 4.08893 22.8149 2.16086C21.2838 0.633533 19.4828 -0.406151 7.33707 0.153411ZM7.43904 22.5844C6.22633 22.5298 5.56837 22.3278 5.12931 22.1578C4.02482 21.7285 3.19521 20.9023 2.76859 19.8043C2.02977 17.9122 2.27481 8.92565 2.34073 7.47153C2.40541 6.04718 2.69397 4.74542 3.69895 3.74045C4.94275 2.49972 6.54972 1.89165 17.4914 2.38547C18.9193 2.44998 20.2241 2.73795 21.2315 3.74045C22.4753 4.98116 23.0922 6.6005 22.5898 17.5002C22.535 18.7099 22.3323 19.3663 22.1619 19.8043C21.0363 22.689 18.4466 23.0894 7.43904 22.5844ZM17.6121 5.86203C17.6121 6.68339 18.28 7.35129 19.1046 7.35129C19.9293 7.35129 20.5984 6.68339 20.5984 5.86203C20.5984 5.04068 19.9293 4.37338 19.1046 4.37338C18.28 4.37338 17.6121 5.04068 17.6121 5.86203ZM6.07833 12.485C6.07833 16.0036 8.93783 18.8564 12.4652 18.8564C15.9927 18.8564 18.8522 16.0036 18.8522 12.485C18.8522 8.96628 15.9927 6.11532 12.4652 6.11532C8.93783 6.11532 6.07833 8.96628 6.07833 12.485ZM8.31966 12.485C8.31966 10.202 10.1754 8.34982 12.4652 8.34982C14.7551 8.34982 16.6108 10.202 16.6108 12.485C16.6108 14.7691 14.7551 16.6219 12.4652 16.6219C10.1754 16.6219 8.31966 14.7691 8.31966 12.485Z" fill="white"/>
</g>
<defs>
<clipPath id="clip0_611_14789">
<rect width="25" height="25" fill="white"/>
</clipPath>
</defs>
</svg>
