<svg width="220" height="40" viewBox="0 0 220 40" fill="none" xmlns="http://www.w3.org/2000/svg">
<path d="M184.19 10.8659L200.007 1.73221L215.818 10.8659L215.811 29.1341L199.994 38.2678L184.183 29.1341L184.19 10.8659Z" stroke="#3052FF" stroke-width="3"/>
<rect x="199.531" y="15.4268" width="1.14205" height="9.14186" fill="#3052FF"/>
<rect x="204.672" y="19.4265" width="1.14286" height="9.13641" transform="rotate(90 204.672 19.4265)" fill="#3052FF"/>
<path d="M1.08 25V14.425H3.39V18.805H4.98L4.575 19.06L7.545 14.425H10.095L6.69 19.51L5.775 18.88C6.485 19 7.07 19.245 7.53 19.615C8 19.985 8.405 20.51 8.745 21.19L10.65 25H8.13L6.705 22C6.485 21.52 6.215 21.185 5.895 20.995C5.575 20.795 5.165 20.695 4.665 20.695H3.39V25H1.08ZM14.6544 25.165C13.9944 25.165 13.4144 25.005 12.9144 24.685C12.4144 24.365 12.0244 23.91 11.7444 23.32C11.4644 22.73 11.3244 22.02 11.3244 21.19C11.3244 20.37 11.4644 19.665 11.7444 19.075C12.0244 18.485 12.4144 18.035 12.9144 17.725C13.4144 17.405 13.9944 17.245 14.6544 17.245C15.2644 17.245 15.8094 17.395 16.2894 17.695C16.7794 17.985 17.0994 18.38 17.2494 18.88H17.0844L17.2644 17.395H19.4394C19.4094 17.725 19.3794 18.06 19.3494 18.4C19.3294 18.73 19.3194 19.055 19.3194 19.375V25H17.0694L17.0544 23.575H17.2344C17.0744 24.055 16.7544 24.44 16.2744 24.73C15.7944 25.02 15.2544 25.165 14.6544 25.165ZM15.3444 23.455C15.8644 23.455 16.2844 23.27 16.6044 22.9C16.9244 22.53 17.0844 21.96 17.0844 21.19C17.0844 20.42 16.9244 19.855 16.6044 19.495C16.2844 19.135 15.8644 18.955 15.3444 18.955C14.8244 18.955 14.4044 19.135 14.0844 19.495C13.7644 19.855 13.6044 20.42 13.6044 21.19C13.6044 21.96 13.7594 22.53 14.0694 22.9C14.3894 23.27 14.8144 23.455 15.3444 23.455ZM23.0013 25V19.165H20.4813V17.395H27.7713V19.165H25.2363V25H23.0013ZM32.6484 25.165C31.3284 25.165 30.2984 24.81 29.5584 24.1C28.8184 23.39 28.4484 22.425 28.4484 21.205C28.4484 20.415 28.6034 19.725 28.9134 19.135C29.2334 18.545 29.6734 18.085 30.2334 17.755C30.8034 17.415 31.4684 17.245 32.2284 17.245C32.9784 17.245 33.6034 17.405 34.1034 17.725C34.6134 18.045 34.9934 18.495 35.2434 19.075C35.5034 19.645 35.6334 20.31 35.6334 21.07V21.595H30.3084V20.47H33.9834L33.7284 20.68C33.7284 20.05 33.5984 19.575 33.3384 19.255C33.0884 18.925 32.7234 18.76 32.2434 18.76C31.7134 18.76 31.3034 18.955 31.0134 19.345C30.7334 19.735 30.5934 20.295 30.5934 21.025V21.265C30.5934 22.005 30.7734 22.555 31.1334 22.915C31.5034 23.275 32.0334 23.455 32.7234 23.455C33.1334 23.455 33.5184 23.405 33.8784 23.305C34.2484 23.195 34.5984 23.025 34.9284 22.795L35.5584 24.295C35.1784 24.575 34.7384 24.79 34.2384 24.94C33.7484 25.09 33.2184 25.165 32.6484 25.165ZM37.2595 25V17.395H43.1995V19.165H39.5245V25H37.2595ZM48.1266 25.165C47.3166 25.165 46.6116 25.005 46.0116 24.685C45.4216 24.355 44.9616 23.895 44.6316 23.305C44.3116 22.715 44.1516 22.01 44.1516 21.19C44.1516 20.38 44.3116 19.68 44.6316 19.09C44.9616 18.5 45.4216 18.045 46.0116 17.725C46.6116 17.405 47.3166 17.245 48.1266 17.245C48.9366 17.245 49.6416 17.405 50.2416 17.725C50.8416 18.045 51.3016 18.5 51.6216 19.09C51.9516 19.68 52.1166 20.38 52.1166 21.19C52.1166 22.01 51.9516 22.715 51.6216 23.305C51.3016 23.895 50.8416 24.355 50.2416 24.685C49.6416 25.005 48.9366 25.165 48.1266 25.165ZM48.1266 23.455C48.6466 23.455 49.0566 23.27 49.3566 22.9C49.6666 22.53 49.8216 21.96 49.8216 21.19C49.8216 20.42 49.6666 19.855 49.3566 19.495C49.0566 19.135 48.6466 18.955 48.1266 18.955C47.6066 18.955 47.1916 19.135 46.8816 19.495C46.5816 19.855 46.4316 20.42 46.4316 21.19C46.4316 21.96 46.5816 22.53 46.8816 22.9C47.1916 23.27 47.6066 23.455 48.1266 23.455ZM53.8283 28.24V19.375C53.8283 19.055 53.8183 18.73 53.7983 18.4C53.7783 18.06 53.7483 17.725 53.7083 17.395H55.8833L56.0633 18.88H55.8983C56.0483 18.38 56.3633 17.985 56.8433 17.695C57.3233 17.395 57.8733 17.245 58.4933 17.245C59.1533 17.245 59.7333 17.405 60.2333 17.725C60.7333 18.035 61.1233 18.485 61.4033 19.075C61.6933 19.665 61.8383 20.37 61.8383 21.19C61.8383 22.02 61.6933 22.73 61.4033 23.32C61.1233 23.91 60.7333 24.365 60.2333 24.685C59.7333 25.005 59.1533 25.165 58.4933 25.165C57.8833 25.165 57.3383 25.02 56.8583 24.73C56.3883 24.44 56.0733 24.055 55.9133 23.575H56.0933V28.24H53.8283ZM57.8033 23.455C58.3333 23.455 58.7583 23.27 59.0783 22.9C59.3983 22.53 59.5583 21.96 59.5583 21.19C59.5583 20.42 59.3983 19.855 59.0783 19.495C58.7583 19.135 58.3333 18.955 57.8033 18.955C57.2833 18.955 56.8583 19.135 56.5283 19.495C56.2083 19.855 56.0483 20.42 56.0483 21.19C56.0483 21.96 56.2083 22.53 56.5283 22.9C56.8583 23.27 57.2833 23.455 57.8033 23.455ZM63.4802 25V17.395H65.5202V22.735H65.0252L69.0452 17.395H70.9052V25H68.8652V19.66H69.3602L65.3252 25H63.4802ZM72.2099 25L73.3499 23.05C73.5499 22.71 73.7949 22.44 74.0849 22.24C74.3849 22.03 74.6999 21.925 75.0299 21.925H75.4199V22.105C74.4999 22.105 73.7949 21.91 73.3049 21.52C72.8249 21.12 72.5849 20.54 72.5849 19.78C72.5849 19.02 72.8399 18.435 73.3499 18.025C73.8699 17.605 74.6249 17.395 75.6149 17.395H79.6349V25H77.5799V22.48H76.8899C76.6399 22.48 76.4149 22.555 76.2149 22.705C76.0149 22.845 75.8449 23.035 75.7049 23.275L74.7299 25H72.2099ZM76.0649 21.04H77.5799V18.835H76.0649C75.6149 18.835 75.2749 18.935 75.0449 19.135C74.8149 19.325 74.6999 19.59 74.6999 19.93C74.6999 20.29 74.8149 20.565 75.0449 20.755C75.2749 20.945 75.6149 21.04 76.0649 21.04ZM87.4838 25V19.165H84.9638V17.395H92.2538V19.165H89.7188V25H87.4838ZM96.9059 25.165C96.0959 25.165 95.3909 25.005 94.7909 24.685C94.2009 24.355 93.7409 23.895 93.4109 23.305C93.0909 22.715 92.9309 22.01 92.9309 21.19C92.9309 20.38 93.0909 19.68 93.4109 19.09C93.7409 18.5 94.2009 18.045 94.7909 17.725C95.3909 17.405 96.0959 17.245 96.9059 17.245C97.7159 17.245 98.4209 17.405 99.0209 17.725C99.6209 18.045 100.081 18.5 100.401 19.09C100.731 19.68 100.896 20.38 100.896 21.19C100.896 22.01 100.731 22.715 100.401 23.305C100.081 23.895 99.6209 24.355 99.0209 24.685C98.4209 25.005 97.7159 25.165 96.9059 25.165ZM96.9059 23.455C97.4259 23.455 97.8359 23.27 98.1359 22.9C98.4459 22.53 98.6009 21.96 98.6009 21.19C98.6009 20.42 98.4459 19.855 98.1359 19.495C97.8359 19.135 97.4259 18.955 96.9059 18.955C96.3859 18.955 95.9709 19.135 95.6609 19.495C95.3609 19.855 95.2109 20.42 95.2109 21.19C95.2109 21.96 95.3609 22.53 95.6609 22.9C95.9709 23.27 96.3859 23.455 96.9059 23.455ZM102.548 25V17.395H106.823C107.813 17.395 108.528 17.575 108.968 17.935C109.418 18.285 109.643 18.77 109.643 19.39C109.643 19.86 109.483 20.255 109.163 20.575C108.853 20.895 108.438 21.1 107.918 21.19V20.965C108.588 21.015 109.088 21.21 109.418 21.55C109.758 21.89 109.928 22.33 109.928 22.87C109.928 23.52 109.668 24.04 109.148 24.43C108.638 24.81 107.908 25 106.958 25H102.548ZM104.633 23.65H106.673C107.063 23.65 107.358 23.575 107.558 23.425C107.768 23.265 107.873 23.03 107.873 22.72C107.873 22.41 107.768 22.18 107.558 22.03C107.358 21.87 107.063 21.79 106.673 21.79H104.633V23.65ZM104.633 20.455H106.508C106.858 20.455 107.123 20.38 107.303 20.23C107.493 20.08 107.588 19.865 107.588 19.585C107.588 19.305 107.493 19.095 107.303 18.955C107.123 18.805 106.858 18.73 106.508 18.73H104.633V20.455ZM114.425 25.165C113.765 25.165 113.185 25.005 112.685 24.685C112.185 24.365 111.795 23.91 111.515 23.32C111.235 22.73 111.095 22.02 111.095 21.19C111.095 20.37 111.235 19.665 111.515 19.075C111.795 18.485 112.185 18.035 112.685 17.725C113.185 17.405 113.765 17.245 114.425 17.245C115.035 17.245 115.58 17.395 116.06 17.695C116.55 17.985 116.87 18.38 117.02 18.88H116.855L117.035 17.395H119.21C119.18 17.725 119.15 18.06 119.12 18.4C119.1 18.73 119.09 19.055 119.09 19.375V25H116.84L116.825 23.575H117.005C116.845 24.055 116.525 24.44 116.045 24.73C115.565 25.02 115.025 25.165 114.425 25.165ZM115.115 23.455C115.635 23.455 116.055 23.27 116.375 22.9C116.695 22.53 116.855 21.96 116.855 21.19C116.855 20.42 116.695 19.855 116.375 19.495C116.055 19.135 115.635 18.955 115.115 18.955C114.595 18.955 114.175 19.135 113.855 19.495C113.535 19.855 113.375 20.42 113.375 21.19C113.375 21.96 113.53 22.53 113.84 22.9C114.16 23.27 114.585 23.455 115.115 23.455ZM121.182 28.24V19.375C121.182 19.055 121.172 18.73 121.152 18.4C121.132 18.06 121.102 17.725 121.062 17.395H123.237L123.417 18.88H123.252C123.402 18.38 123.717 17.985 124.197 17.695C124.677 17.395 125.227 17.245 125.847 17.245C126.507 17.245 127.087 17.405 127.587 17.725C128.087 18.035 128.477 18.485 128.757 19.075C129.047 19.665 129.192 20.37 129.192 21.19C129.192 22.02 129.047 22.73 128.757 23.32C128.477 23.91 128.087 24.365 127.587 24.685C127.087 25.005 126.507 25.165 125.847 25.165C125.237 25.165 124.692 25.02 124.212 24.73C123.742 24.44 123.427 24.055 123.267 23.575H123.447V28.24H121.182ZM125.157 23.455C125.687 23.455 126.112 23.27 126.432 22.9C126.752 22.53 126.912 21.96 126.912 21.19C126.912 20.42 126.752 19.855 126.432 19.495C126.112 19.135 125.687 18.955 125.157 18.955C124.637 18.955 124.212 19.135 123.882 19.495C123.562 19.855 123.402 20.42 123.402 21.19C123.402 21.96 123.562 22.53 123.882 22.9C124.212 23.27 124.637 23.455 125.157 23.455ZM133.849 25.165C133.189 25.165 132.609 25.005 132.109 24.685C131.609 24.365 131.219 23.91 130.939 23.32C130.659 22.73 130.519 22.02 130.519 21.19C130.519 20.37 130.659 19.665 130.939 19.075C131.219 18.485 131.609 18.035 132.109 17.725C132.609 17.405 133.189 17.245 133.849 17.245C134.459 17.245 135.004 17.395 135.484 17.695C135.974 17.985 136.294 18.38 136.444 18.88H136.279L136.459 17.395H138.634C138.604 17.725 138.574 18.06 138.544 18.4C138.524 18.73 138.514 19.055 138.514 19.375V25H136.264L136.249 23.575H136.429C136.269 24.055 135.949 24.44 135.469 24.73C134.989 25.02 134.449 25.165 133.849 25.165ZM134.539 23.455C135.059 23.455 135.479 23.27 135.799 22.9C136.119 22.53 136.279 21.96 136.279 21.19C136.279 20.42 136.119 19.855 135.799 19.495C135.479 19.135 135.059 18.955 134.539 18.955C134.019 18.955 133.599 19.135 133.279 19.495C132.959 19.855 132.799 20.42 132.799 21.19C132.799 21.96 132.954 22.53 133.264 22.9C133.584 23.27 134.009 23.455 134.539 23.455Z" fill="white"/>
</svg>
