<svg width="70" height="71" viewBox="0 0 70 71" fill="none" xmlns="http://www.w3.org/2000/svg">
<path d="M5.20406 17.8705L35.01 0.578087L64.8029 17.8705L64.7899 52.4598L34.984 69.7522L5.19105 52.4598L5.20406 17.8705Z" stroke="#3052FF"/>
<path d="M16.7869 49.365V43.725H20.7309V44.733H18.0269V49.365H16.7869ZM22.1126 49.453C21.7606 49.453 21.4512 49.3677 21.1846 49.197C20.9179 49.0263 20.7099 48.7837 20.5606 48.469C20.4112 48.1543 20.3366 47.7757 20.3366 47.333C20.3366 46.8957 20.4112 46.5197 20.5606 46.205C20.7099 45.8903 20.9179 45.6503 21.1846 45.485C21.4512 45.3143 21.7606 45.229 22.1126 45.229C22.4379 45.229 22.7286 45.309 22.9846 45.469C23.2459 45.6237 23.4166 45.8343 23.4966 46.101H23.4086L23.5046 45.309H24.6646C24.6486 45.485 24.6326 45.6637 24.6166 45.845C24.6059 46.021 24.6006 46.1943 24.6006 46.365V49.365H23.4006L23.3926 48.605H23.4886C23.4032 48.861 23.2326 49.0663 22.9766 49.221C22.7206 49.3757 22.4326 49.453 22.1126 49.453ZM22.4806 48.541C22.7579 48.541 22.9819 48.4423 23.1526 48.245C23.3232 48.0477 23.4086 47.7437 23.4086 47.333C23.4086 46.9223 23.3232 46.621 23.1526 46.429C22.9819 46.237 22.7579 46.141 22.4806 46.141C22.2032 46.141 21.9792 46.237 21.8086 46.429C21.6379 46.621 21.5526 46.9223 21.5526 47.333C21.5526 47.7437 21.6352 48.0477 21.8006 48.245C21.9712 48.4423 22.1979 48.541 22.4806 48.541ZM25.3643 50.405V48.461H25.8443C25.9883 48.221 26.0923 47.9437 26.1562 47.629C26.2203 47.3143 26.2523 46.9197 26.2523 46.445V45.309H29.5323V48.461H30.1963V50.405H29.1803V49.365H26.3803V50.405H25.3643ZM26.9083 48.469H28.4043V46.213H27.2603V46.741C27.2603 47.0557 27.2283 47.3703 27.1643 47.685C27.1056 47.9943 27.0203 48.2557 26.9083 48.469ZM30.2717 49.365L31.1278 47.789C31.2238 47.6343 31.3198 47.501 31.4158 47.389C31.5171 47.277 31.6264 47.1863 31.7438 47.117C31.8664 47.0477 31.9998 47.005 32.1438 46.989L31.9118 47.373L30.4318 45.309H31.7198L32.8238 46.837H33.2398V45.309H34.4398V46.837H34.8478L35.9438 45.309H37.2398L35.7518 47.373L35.5198 46.989C35.6691 47.005 35.8024 47.0477 35.9198 47.117C36.0371 47.1863 36.1464 47.277 36.2478 47.389C36.3544 47.501 36.4504 47.6343 36.5358 47.789L37.3998 49.365H36.1198L35.4558 48.173C35.3971 48.0663 35.3358 47.9837 35.2718 47.925C35.2131 47.861 35.1464 47.8183 35.0718 47.797C34.9971 47.7703 34.9091 47.757 34.8078 47.757H34.4398V49.365H33.2398V47.757H32.8638C32.7571 47.757 32.6664 47.7703 32.5918 47.797C32.5171 47.8183 32.4504 47.861 32.3918 47.925C32.3331 47.9837 32.2718 48.0663 32.2078 48.173L31.5518 49.365H30.2717ZM39.9281 49.453C39.2241 49.453 38.6748 49.2637 38.2801 48.885C37.8855 48.5063 37.6881 47.9917 37.6881 47.341C37.6881 46.9197 37.7708 46.5517 37.9361 46.237C38.1068 45.9223 38.3415 45.677 38.6401 45.501C38.9441 45.3197 39.2988 45.229 39.7041 45.229C40.1041 45.229 40.4375 45.3143 40.7041 45.485C40.9761 45.6557 41.1788 45.8957 41.3121 46.205C41.4508 46.509 41.5201 46.8637 41.5201 47.269V47.549H38.6801V46.949H40.6401L40.5041 47.061C40.5041 46.725 40.4348 46.4717 40.2961 46.301C40.1628 46.125 39.9681 46.037 39.7121 46.037C39.4295 46.037 39.2108 46.141 39.0561 46.349C38.9068 46.557 38.8321 46.8557 38.8321 47.245V47.373C38.8321 47.7677 38.9281 48.061 39.1201 48.253C39.3175 48.445 39.6001 48.541 39.9681 48.541C40.1868 48.541 40.3921 48.5143 40.5841 48.461C40.7815 48.4023 40.9681 48.3117 41.1441 48.189L41.4801 48.989C41.2775 49.1383 41.0428 49.253 40.7761 49.333C40.5148 49.413 40.2321 49.453 39.9281 49.453ZM43.2674 49.365V46.253H41.9234V45.309H45.8114V46.253H44.4594V49.365L43.2674 49.365ZM46.3952 49.365V45.309H47.5872V46.613H48.5632C49.1179 46.613 49.5339 46.7277 49.8112 46.957C50.0885 47.1863 50.2272 47.5197 50.2272 47.957C50.2272 48.2397 50.1605 48.4877 50.0272 48.701C49.8939 48.909 49.7019 49.0717 49.4512 49.189C49.2059 49.3063 48.9099 49.365 48.5632 49.365H46.3952ZM47.5872 48.597H48.3792C48.6192 48.597 48.8032 48.5463 48.9312 48.445C49.0645 48.3383 49.1312 48.1837 49.1312 47.981C49.1312 47.773 49.0672 47.621 48.9392 47.525C48.8112 47.429 48.6245 47.381 48.3792 47.381H47.5872V48.597ZM50.6672 49.365V45.309H51.8672V49.365H50.6672Z" fill="white"/>
<path d="M35.6597 33.5436H27.284L27.284 18.5717C27.284 18.4677 27.3636 18.3855 27.462 18.3855L38.9608 18.3855C39.0592 18.3855 39.1389 18.4701 39.1389 18.5717V23.165L40.2119 23.165V18.5717C40.2119 17.8488 39.6496 17.2614 38.9608 17.2614L27.462 17.2614C26.7709 17.2614 26.2109 17.8488 26.2109 18.5717L26.2109 35.2286C26.2109 35.9515 26.7732 36.5389 27.462 36.5389H35.8753C35.737 36.2585 35.6574 35.9394 35.6574 35.6033V33.5436H35.6597ZM33.2559 35.8693C32.8576 35.8693 32.532 35.5308 32.532 35.1126C32.532 34.6943 32.8553 34.3559 33.2559 34.3559C33.6542 34.3559 33.9799 34.6943 33.9799 35.1126C33.9775 35.5308 33.6542 35.8693 33.2559 35.8693ZM43.6325 24.2892L37.6277 24.2892C37.1334 24.2892 36.7327 24.7098 36.7327 25.2248V35.6033C36.7327 36.1183 37.1334 36.5389 37.6277 36.5389H43.6325C44.1268 36.5389 44.5275 36.1183 44.5275 35.6033V25.2248C44.5275 24.7074 44.1268 24.2892 43.6325 24.2892ZM40.6313 35.9756C40.3337 35.9756 40.0948 35.7242 40.0948 35.4148C40.0948 35.1053 40.3361 34.8539 40.6313 34.8539C40.9265 34.8539 41.1678 35.1053 41.1678 35.4148C41.1678 35.7242 40.9265 35.9756 40.6313 35.9756ZM43.4544 34.2906H37.8058V25.4109L43.4544 25.4109V34.2906Z" fill="#3052FF"/>
</svg>
