<svg width="70" height="71" viewBox="0 0 70 71" fill="none" xmlns="http://www.w3.org/2000/svg">
<g filter="url(#filter0_b_1203_25)">
<path d="M35.1335 0L65.264 17.5826L65.1319 52.7477L34.8693 70.3303L4.73889 52.7477L4.87099 17.5826L35.1335 0Z" fill="#474747" fill-opacity="0.5"/>
<path d="M5.36991 17.87L35.1314 0.578582L64.7629 17.87L64.6329 52.4603L34.8715 69.7517L5.23997 52.4603L5.36991 17.87Z" stroke="#474747"/>
</g>
<g clip-path="url(#clip0_1203_25)">
<path d="M29.1023 41.0934C29.1023 41.3555 29.1917 41.5772 29.3704 41.7587C29.5491 41.9401 29.7725 42.0309 30.0406 42.0309H39.3496C39.5978 42.0309 39.8163 41.9401 40.0049 41.7587C40.1936 41.5772 40.2829 41.3555 40.273 41.0934V34.4706C40.273 34.2085 40.1836 33.9868 40.0049 33.8053C39.8262 33.6239 39.6077 33.5332 39.3496 33.5332V31.6431C39.3496 30.998 39.2255 30.3881 38.9772 29.8135C38.729 29.239 38.3963 28.7349 37.9793 28.3015C37.5623 27.868 37.0658 27.5303 36.4899 27.2884C35.914 27.0465 35.3132 26.9205 34.6877 26.9104C33.8437 26.9104 33.0642 27.1221 32.3493 27.5455C31.6343 27.9688 31.0733 28.5434 30.6662 29.2692C30.2591 29.995 30.0506 30.7863 30.0406 31.6431V33.5332C29.7825 33.5332 29.5591 33.6239 29.3704 33.8053C29.1817 33.9868 29.0924 34.2085 29.1023 34.4706L29.1023 41.0934ZM30.9641 40.1408L30.9641 35.4232H38.4112V40.1408H30.9641ZM31.9024 33.5332V31.6431C31.9024 30.8568 32.1705 30.1865 32.7067 29.6321C33.2429 29.0777 33.9032 28.8005 34.6877 28.8005C35.4721 28.8005 36.1324 29.0777 36.6686 29.6321C37.2048 30.1865 37.4779 30.8568 37.4878 31.6431V33.5332H31.9024Z" fill="#3052FF"/>
</g>
<defs>
<filter id="filter0_b_1203_25" x="3.74219" y="-1" width="62.5234" height="72.3303" filterUnits="userSpaceOnUse" color-interpolation-filters="sRGB">
<feFlood flood-opacity="0" result="BackgroundImageFix"/>
<feGaussianBlur in="BackgroundImageFix" stdDeviation="0.5"/>
<feComposite in2="SourceAlpha" operator="in" result="effect1_backgroundBlur_1203_25"/>
<feBlend mode="normal" in="SourceGraphic" in2="effect1_backgroundBlur_1203_25" result="shape"/>
</filter>
<clipPath id="clip0_1203_25">
<rect width="14.8943" height="15.1205" fill="white" transform="translate(27.2422 26.9104)"/>
</clipPath>
</defs>
</svg>
