<svg width="70" height="70" viewBox="0 0 70 70" fill="none" xmlns="http://www.w3.org/2000/svg">
<path d="M5.20406 17.7886L35.01 0.577406L64.8029 17.7886L64.7899 52.2114L34.984 69.4226L5.19105 52.2114L5.20406 17.7886Z" stroke="#3052FF"/>
<path d="M13.408 35.176C13.408 34.5893 13.5173 34.08 13.736 33.648C13.96 33.2107 14.28 32.872 14.696 32.632C15.112 32.392 15.6053 32.272 16.176 32.272C16.7467 32.272 17.24 32.392 17.656 32.632C18.072 32.872 18.392 33.2107 18.616 33.648C18.8453 34.08 18.96 34.5867 18.96 35.168C18.96 35.76 18.8453 36.2747 18.616 36.712C18.392 37.144 18.072 37.4827 17.656 37.728C17.24 37.968 16.7467 38.088 16.176 38.088C15.6053 38.088 15.112 37.968 14.696 37.728C14.2853 37.4827 13.968 37.1413 13.744 36.704C13.52 36.2667 13.408 35.7573 13.408 35.176ZM14.712 35.176C14.712 35.7573 14.832 36.2133 15.072 36.544C15.3173 36.8693 15.6853 37.032 16.176 37.032C16.656 37.032 17.0213 36.8693 17.272 36.544C17.5227 36.2133 17.648 35.7573 17.648 35.176C17.648 34.5893 17.5227 34.136 17.272 33.816C17.0267 33.4907 16.6613 33.328 16.176 33.328C15.6853 33.328 15.3173 33.4907 15.072 33.816C14.832 34.136 14.712 34.5893 14.712 35.176ZM19.2874 38L20.1434 36.424C20.2394 36.2693 20.3354 36.136 20.4314 36.024C20.5327 35.912 20.642 35.8213 20.7594 35.752C20.882 35.6827 21.0154 35.64 21.1594 35.624L20.9274 36.008L19.4474 33.944H20.7354L21.8394 35.472H22.2554V33.944H23.4554V35.472H23.8634L24.9594 33.944H26.2554L24.7674 36.008L24.5354 35.624C24.6847 35.64 24.818 35.6827 24.9354 35.752C25.0527 35.8213 25.162 35.912 25.2634 36.024C25.37 36.136 25.466 36.2693 25.5514 36.424L26.4154 38H25.1354L24.4714 36.808C24.4127 36.7013 24.3514 36.6187 24.2874 36.56C24.2287 36.496 24.162 36.4533 24.0874 36.432C24.0127 36.4053 23.9247 36.392 23.8234 36.392H23.4554V38H22.2554V36.392H21.8794C21.7727 36.392 21.682 36.4053 21.6074 36.432C21.5327 36.4533 21.466 36.496 21.4074 36.56C21.3487 36.6187 21.2874 36.7013 21.2234 36.808L20.5674 38H19.2874ZM26.8717 38V33.944H27.9598V36.792H27.6958L29.8398 33.944H30.8318V38H29.7438V35.152H30.0078L27.8558 38H26.8717ZM31.5596 39.04V37.096H32.0396C32.1836 36.856 32.2876 36.5787 32.3516 36.264C32.4156 35.9493 32.4476 35.5547 32.4476 35.08V33.944H35.7276V37.096H36.3916V39.04H35.3756V38H32.5756V39.04H31.5596ZM33.1036 37.104H34.5996V34.848H33.4556V35.376C33.4556 35.6907 33.4236 36.0053 33.3596 36.32C33.3009 36.6293 33.2156 36.8907 33.1036 37.104ZM38.6751 38.088C38.3231 38.088 38.0137 38.0027 37.7471 37.832C37.4804 37.6613 37.2724 37.4187 37.1231 37.104C36.9737 36.7893 36.8991 36.4107 36.8991 35.968C36.8991 35.5307 36.9737 35.1547 37.1231 34.84C37.2724 34.5253 37.4804 34.2853 37.7471 34.12C38.0137 33.9493 38.3231 33.864 38.6751 33.864C39.0004 33.864 39.2911 33.944 39.5471 34.104C39.8084 34.2587 39.9791 34.4693 40.0591 34.736H39.9711L40.0671 33.944H41.2271C41.2111 34.12 41.1951 34.2987 41.1791 34.48C41.1684 34.656 41.1631 34.8293 41.1631 35V38L39.9631 38L39.9551 37.24H40.0511C39.9657 37.496 39.7951 37.7013 39.5391 37.856C39.2831 38.0107 38.9951 38.088 38.6751 38.088ZM39.0431 37.176C39.3204 37.176 39.5444 37.0773 39.7151 36.88C39.8857 36.6827 39.9711 36.3787 39.9711 35.968C39.9711 35.5573 39.8857 35.256 39.7151 35.064C39.5444 34.872 39.3204 34.776 39.0431 34.776C38.7657 34.776 38.5417 34.872 38.3711 35.064C38.2004 35.256 38.1151 35.5573 38.1151 35.968C38.1151 36.3787 38.1977 36.6827 38.3631 36.88C38.5337 37.0773 38.7604 37.176 39.0431 37.176ZM42.2467 38V33.944H43.4388V35.472H45.0388V33.944H46.2308V38H45.0388V36.392H43.4388V38H42.2467ZM47.2858 38V33.944H48.3738V36.792H48.1098L50.2538 33.944H51.2458V38H50.1578V35.152H50.4218L48.2698 38H47.2858ZM54.3656 38.088C53.6616 38.088 53.1123 37.8987 52.7176 37.52C52.323 37.1413 52.1256 36.6267 52.1256 35.976C52.1256 35.5547 52.2083 35.1867 52.3736 34.872C52.5443 34.5573 52.779 34.312 53.0776 34.136C53.3816 33.9547 53.7363 33.864 54.1416 33.864C54.5416 33.864 54.875 33.9493 55.1416 34.12C55.4136 34.2907 55.6163 34.5307 55.7496 34.84C55.8883 35.144 55.9576 35.4987 55.9576 35.904V36.184H53.1176V35.584H55.0776L54.9416 35.696C54.9416 35.36 54.8723 35.1067 54.7336 34.936C54.6003 34.76 54.4056 34.672 54.1496 34.672C53.867 34.672 53.6483 34.776 53.4936 34.984C53.3443 35.192 53.2696 35.4907 53.2696 35.88V36.008C53.2696 36.4027 53.3656 36.696 53.5576 36.888C53.755 37.08 54.0376 37.176 54.4056 37.176C54.6243 37.176 54.8296 37.1493 55.0216 37.096C55.219 37.0373 55.4056 36.9467 55.5816 36.824L55.9176 37.624C55.715 37.7733 55.4803 37.888 55.2136 37.968C54.9523 38.048 54.6696 38.088 54.3656 38.088Z" fill="white"/>
</svg>
