<svg width="70" height="70" viewBox="0 0 70 70" fill="none" xmlns="http://www.w3.org/2000/svg">
<path d="M5.20406 17.7886L35.01 0.577406L64.8029 17.7886L64.7899 52.2114L34.984 69.4226L5.19105 52.2114L5.20406 17.7886Z" stroke="#3052FF"/>
<path d="M29.096 39.36V37.04H29.688C29.9387 36.736 30.1253 36.32 30.248 35.792C30.3707 35.2587 30.432 34.6107 30.432 33.848V32.36H34.664V37.04H35.488V39.36H34.408V38H30.184V39.36H29.096ZM30.92 37.04H33.424V33.312H31.568V33.968C31.568 34.688 31.5147 35.2987 31.408 35.8C31.3013 36.3013 31.1387 36.7147 30.92 37.04ZM37.8001 38.088C37.4481 38.088 37.1387 38.0027 36.8721 37.832C36.6054 37.6613 36.3974 37.4187 36.2481 37.104C36.0987 36.7893 36.0241 36.4107 36.0241 35.968C36.0241 35.5307 36.0987 35.1547 36.2481 34.84C36.3974 34.5253 36.6054 34.2853 36.8721 34.12C37.1387 33.9493 37.4481 33.864 37.8001 33.864C38.1254 33.864 38.4161 33.944 38.6721 34.104C38.9334 34.2587 39.1041 34.4693 39.1841 34.736H39.0961L39.1921 33.944H40.3521C40.3361 34.12 40.3201 34.2987 40.3041 34.48C40.2934 34.656 40.2881 34.8293 40.2881 35V38H39.0881L39.0801 37.24H39.1761C39.0907 37.496 38.9201 37.7013 38.6641 37.856C38.4081 38.0107 38.1201 38.088 37.8001 38.088ZM38.1681 37.176C38.4454 37.176 38.6694 37.0773 38.8401 36.88C39.0107 36.6827 39.0961 36.3787 39.0961 35.968C39.0961 35.5573 39.0107 35.256 38.8401 35.064C38.6694 34.872 38.4454 34.776 38.1681 34.776C37.8907 34.776 37.6667 34.872 37.4961 35.064C37.3254 35.256 37.2401 35.5573 37.2401 35.968C37.2401 36.3787 37.3227 36.6827 37.4881 36.88C37.6587 37.0773 37.8854 37.176 38.1681 37.176Z" fill="white"/>
</svg>
