<svg width="35" height="35" viewBox="0 0 35 35" fill="none" xmlns="http://www.w3.org/2000/svg">
<path d="M23.0573 6.5625C25.9788 6.59641 28.4375 9.58781 28.4375 13.125C28.4375 18.7097 21.3609 25.1223 17.4989 27.9923C13.6347 25.1278 6.5625 18.725 6.5625 13.125C6.5625 9.58781 9.02125 6.59641 11.9416 6.5625C14.8597 6.75391 15.2316 7.43859 17.5 9.71141C19.763 7.44406 20.1447 6.75172 23.0573 6.5625ZM22.8714 4.38156L22.8725 4.375C20.7736 4.375 18.877 5.23359 17.5 6.615C16.123 5.23359 14.2264 4.375 12.1275 4.375L12.1286 4.38156C7.70437 4.305 4.375 8.44266 4.375 13.125C4.375 21.875 17.4322 30.625 17.4322 30.625H17.5678C17.5678 30.625 30.625 21.875 30.625 13.125C30.625 8.43609 27.2902 4.305 22.8714 4.38156Z" fill="white"/>
</svg>
