<svg width="70" height="70" viewBox="0 0 70 70" fill="none" xmlns="http://www.w3.org/2000/svg">
<path d="M5.20406 17.7886L35.01 0.577406L64.8029 17.7886L64.7899 52.2114L34.984 69.4226L5.19105 52.2114L5.20406 17.7886Z" stroke="#3052FF"/>
<path d="M17.408 35.176C17.408 34.5893 17.5173 34.08 17.736 33.648C17.96 33.2107 18.28 32.872 18.696 32.632C19.112 32.392 19.6053 32.272 20.176 32.272C20.7467 32.272 21.24 32.392 21.656 32.632C22.072 32.872 22.392 33.2107 22.616 33.648C22.8453 34.08 22.96 34.5867 22.96 35.168C22.96 35.76 22.8453 36.2747 22.616 36.712C22.392 37.144 22.072 37.4827 21.656 37.728C21.24 37.968 20.7467 38.088 20.176 38.088C19.6053 38.088 19.112 37.968 18.696 37.728C18.2853 37.4827 17.968 37.1413 17.744 36.704C17.52 36.2667 17.408 35.7573 17.408 35.176ZM18.712 35.176C18.712 35.7573 18.832 36.2133 19.072 36.544C19.3173 36.8693 19.6853 37.032 20.176 37.032C20.656 37.032 21.0213 36.8693 21.272 36.544C21.5227 36.2133 21.648 35.7573 21.648 35.176C21.648 34.5893 21.5227 34.136 21.272 33.816C21.0267 33.4907 20.6613 33.328 20.176 33.328C19.6853 33.328 19.3173 33.4907 19.072 33.816C18.832 34.136 18.712 34.5893 18.712 35.176ZM23.8874 38V33.944H25.0794V35.472H25.5994L26.6954 33.944H27.9834L26.5114 36.008L26.2714 35.624C26.4154 35.64 26.546 35.6827 26.6634 35.752C26.7807 35.8213 26.89 35.912 26.9914 36.024C27.098 36.136 27.194 36.2693 27.2794 36.424L28.1434 38H26.8634L26.1994 36.808C26.146 36.7013 26.0874 36.6187 26.0234 36.56C25.9647 36.496 25.898 36.4533 25.8234 36.432C25.7487 36.4053 25.658 36.392 25.5514 36.392H25.0794V38H23.8874ZM30.5503 38.088C30.1183 38.088 29.7423 38.0027 29.4223 37.832C29.1076 37.656 28.8623 37.4107 28.6863 37.096C28.5156 36.7813 28.4303 36.4053 28.4303 35.968C28.4303 35.536 28.5156 35.1627 28.6863 34.848C28.8623 34.5333 29.1076 34.2907 29.4223 34.12C29.7423 33.9493 30.1183 33.864 30.5503 33.864C30.9823 33.864 31.3583 33.9493 31.6783 34.12C31.9983 34.2907 32.2436 34.5333 32.4143 34.848C32.5903 35.1627 32.6783 35.536 32.6783 35.968C32.6783 36.4053 32.5903 36.7813 32.4143 37.096C32.2436 37.4107 31.9983 37.656 31.6783 37.832C31.3583 38.0027 30.9823 38.088 30.5503 38.088ZM30.5503 37.176C30.8276 37.176 31.0463 37.0773 31.2063 36.88C31.3716 36.6827 31.4543 36.3787 31.4543 35.968C31.4543 35.5573 31.3716 35.256 31.2063 35.064C31.0463 34.872 30.8276 34.776 30.5503 34.776C30.273 34.776 30.0516 34.872 29.8863 35.064C29.7263 35.256 29.6463 35.5573 29.6463 35.968C29.6463 36.3787 29.7263 36.6827 29.8863 36.88C30.0516 37.0773 30.273 37.176 30.5503 37.176ZM33.5592 38V33.944H34.7513V35.472H36.3513V33.944H37.5433V38H36.3513V36.392H34.7513V38H33.5592ZM41.1503 38V36.624C41.0063 36.6827 40.8596 36.728 40.7103 36.76C40.561 36.7867 40.409 36.8 40.2543 36.8C39.6463 36.8 39.1903 36.6533 38.8863 36.36C38.5876 36.0667 38.4383 35.6347 38.4383 35.064V33.944H39.6383V34.952C39.6383 35.2613 39.7023 35.488 39.8303 35.632C39.9636 35.7707 40.1796 35.84 40.4783 35.84C40.6063 35.84 40.721 35.8267 40.8223 35.8C40.929 35.7733 41.0276 35.7333 41.1183 35.68V33.944L42.3183 33.944V38H41.1503ZM45.4438 38.088C44.7398 38.088 44.1904 37.8987 43.7958 37.52C43.4011 37.1413 43.2038 36.6267 43.2038 35.976C43.2038 35.5547 43.2864 35.1867 43.4518 34.872C43.6224 34.5573 43.8571 34.312 44.1558 34.136C44.4598 33.9547 44.8144 33.864 45.2198 33.864C45.6198 33.864 45.9531 33.9493 46.2198 34.12C46.4918 34.2907 46.6944 34.5307 46.8278 34.84C46.9664 35.144 47.0358 35.4987 47.0358 35.904V36.184H44.1958V35.584H46.1558L46.0198 35.696C46.0198 35.36 45.9504 35.1067 45.8118 34.936C45.6784 34.76 45.4838 34.672 45.2278 34.672C44.9451 34.672 44.7264 34.776 44.5718 34.984C44.4224 35.192 44.3478 35.4907 44.3478 35.88V36.008C44.3478 36.4027 44.4438 36.696 44.6358 36.888C44.8331 37.08 45.1158 37.176 45.4838 37.176C45.7024 37.176 45.9078 37.1493 46.0998 37.096C46.2971 37.0373 46.4838 36.9467 46.6598 36.824L46.9958 37.624C46.7931 37.7733 46.5584 37.888 46.2918 37.968C46.0304 38.048 45.7478 38.088 45.4438 38.088ZM47.903 38V33.944H49.095V35.472H50.695V33.944H51.887V38H50.695V36.392H49.095V38H47.903Z" fill="white"/>
</svg>
