<svg width="70" height="71" viewBox="0 0 70 71" fill="none" xmlns="http://www.w3.org/2000/svg">
<path d="M8.77913 52.0056L8.77913 46.3656H13.8431L13.8431 52.0056H12.6031L12.6031 47.3736H10.0111V52.0056H8.77913ZM14.9341 53.8216L14.6541 52.8776C14.9047 52.8296 15.1154 52.7736 15.2861 52.7096C15.4621 52.6456 15.6061 52.5603 15.7181 52.4536C15.8301 52.3523 15.9207 52.2189 15.9901 52.0536L16.1901 51.5816L16.1581 52.0456L14.3981 47.9496H15.6701L16.8301 50.8856H16.5821L17.7581 47.9496H18.9581L17.1261 52.1656C16.9927 52.4696 16.8487 52.7203 16.6941 52.9176C16.5447 53.1203 16.3821 53.2803 16.2061 53.3976C16.0301 53.5149 15.8354 53.6056 15.6221 53.6696C15.4141 53.7336 15.1847 53.7843 14.9341 53.8216ZM20.4549 52.0056V48.8936H19.1109V47.9496H22.9989V48.8936H21.6469V52.0056H20.4549ZM25.6 52.0936C24.896 52.0936 24.3467 51.9043 23.952 51.5256C23.5573 51.1469 23.36 50.6323 23.36 49.9816C23.36 49.5603 23.4427 49.1923 23.608 48.8776C23.7787 48.5629 24.0133 48.3176 24.312 48.1416C24.616 47.9603 24.9707 47.8696 25.376 47.8696C25.776 47.8696 26.1093 47.9549 26.376 48.1256C26.648 48.2963 26.8507 48.5363 26.984 48.8456C27.1227 49.1496 27.192 49.5043 27.192 49.9096V50.1896H24.352V49.5896H26.312L26.176 49.7016C26.176 49.3656 26.1067 49.1123 25.968 48.9416C25.8347 48.7656 25.64 48.6776 25.384 48.6776C25.1013 48.6776 24.8827 48.7816 24.728 48.9896C24.5787 49.1976 24.504 49.4963 24.504 49.8856V50.0136C24.504 50.4083 24.6 50.7016 24.792 50.8936C24.9893 51.0856 25.272 51.1816 25.64 51.1816C25.8587 51.1816 26.064 51.1549 26.256 51.1016C26.4533 51.0429 26.64 50.9523 26.816 50.8296L27.152 51.6296C26.9493 51.7789 26.7147 51.8936 26.448 51.9736C26.1867 52.0536 25.904 52.0936 25.6 52.0936ZM28.0592 52.0056V47.9496H29.1793V51.0856H30.4353V47.9496H31.5553V51.0856H32.8193V47.9496L33.9393 47.9496V52.0056H28.0592ZM37.0609 52.0936C36.3569 52.0936 35.8076 51.9043 35.4129 51.5256C35.0183 51.1469 34.8209 50.6323 34.8209 49.9816C34.8209 49.5603 34.9036 49.1923 35.0689 48.8776C35.2396 48.5629 35.4743 48.3176 35.7729 48.1416C36.0769 47.9603 36.4316 47.8696 36.8369 47.8696C37.2369 47.8696 37.5703 47.9549 37.8369 48.1256C38.1089 48.2963 38.3116 48.5363 38.4449 48.8456C38.5836 49.1496 38.6529 49.5043 38.6529 49.9096V50.1896L35.8129 50.1896V49.5896L37.7729 49.5896L37.6369 49.7016C37.6369 49.3656 37.5676 49.1123 37.4289 48.9416C37.2956 48.7656 37.1009 48.6776 36.8449 48.6776C36.5623 48.6776 36.3436 48.7816 36.1889 48.9896C36.0396 49.1976 35.9649 49.4963 35.9649 49.8856V50.0136C35.9649 50.4083 36.0609 50.7016 36.2529 50.8936C36.4503 51.0856 36.7329 51.1816 37.1009 51.1816C37.3196 51.1816 37.5249 51.1549 37.7169 51.1016C37.9143 51.0429 38.1009 50.9523 38.2769 50.8296L38.6129 51.6296C38.4103 51.7789 38.1756 51.8936 37.9089 51.9736C37.6476 52.0536 37.3649 52.0936 37.0609 52.0936ZM41.5042 52.0936C41.0722 52.0936 40.6935 52.0083 40.3682 51.8376C40.0429 51.6669 39.7922 51.4216 39.6162 51.1016C39.4402 50.7816 39.3522 50.4029 39.3522 49.9656C39.3522 49.5229 39.4402 49.1469 39.6162 48.8376C39.7975 48.5229 40.0482 48.2829 40.3682 48.1176C40.6935 47.9523 41.0722 47.8696 41.5042 47.8696C41.7762 47.8696 42.0402 47.9096 42.2962 47.9896C42.5575 48.0696 42.7709 48.1816 42.9362 48.3256L42.5842 49.1576C42.4509 49.0349 42.2962 48.9443 42.1202 48.8856C41.9495 48.8216 41.7842 48.7896 41.6242 48.7896C41.2989 48.7896 41.0455 48.8909 40.8642 49.0936C40.6829 49.2963 40.5922 49.5896 40.5922 49.9736C40.5922 50.3576 40.6829 50.6509 40.8642 50.8536C41.0455 51.0563 41.2989 51.1576 41.6242 51.1576C41.7789 51.1576 41.9415 51.1283 42.1122 51.0696C42.2882 51.0109 42.4455 50.9229 42.5842 50.8056L42.9362 51.6296C42.7655 51.7736 42.5495 51.8883 42.2882 51.9736C42.0322 52.0536 41.7709 52.0936 41.5042 52.0936ZM44.6033 52.0056V48.8936H43.2593V47.9496H47.1473V48.8936H45.7953V52.0056H44.6033ZM47.7311 52.0056V47.9496H50.0111C50.5391 47.9496 50.9205 48.0456 51.1551 48.2376C51.3951 48.4243 51.5151 48.6829 51.5151 49.0136C51.5151 49.2643 51.4298 49.4749 51.2591 49.6456C51.0938 49.8163 50.8725 49.9256 50.5951 49.9736V49.8536C50.9525 49.8803 51.2191 49.9843 51.3951 50.1656C51.5765 50.3469 51.6671 50.5816 51.6671 50.8696C51.6671 51.2163 51.5285 51.4936 51.2511 51.7016C50.9791 51.9043 50.5898 52.0056 50.0831 52.0056H47.7311ZM48.8431 51.2856H49.9311C50.1391 51.2856 50.2965 51.2456 50.4031 51.1656C50.5151 51.0803 50.5711 50.9549 50.5711 50.7896C50.5711 50.6243 50.5151 50.5016 50.4031 50.4216C50.2965 50.3363 50.1391 50.2936 49.9311 50.2936H48.8431V51.2856ZM48.8431 49.5816H49.8431C50.0298 49.5816 50.1711 49.5416 50.2671 49.4616C50.3685 49.3816 50.4191 49.2669 50.4191 49.1176C50.4191 48.9683 50.3685 48.8563 50.2671 48.7816C50.1711 48.7016 50.0298 48.6616 49.8431 48.6616H48.8431V49.5816ZM52.4577 52.0056V47.9496H53.5457V50.7976H53.2817L55.4257 47.9496H56.4177V52.0056H55.3297V49.1576H55.5937L53.4417 52.0056H52.4577ZM57.1135 52.0056L57.7215 50.9656C57.8282 50.7843 57.9588 50.6403 58.1135 50.5336C58.2735 50.4216 58.4415 50.3656 58.6175 50.3656H58.8255V50.4616C58.3348 50.4616 57.9588 50.3576 57.6975 50.1496C57.4415 49.9363 57.3135 49.6269 57.3135 49.2216C57.3135 48.8163 57.4495 48.5043 57.7215 48.2856C57.9988 48.0616 58.4015 47.9496 58.9295 47.9496H61.0735V52.0056H59.9775V50.6616H59.6095C59.4762 50.6616 59.3562 50.7016 59.2495 50.7816C59.1428 50.8563 59.0522 50.9576 58.9775 51.0856L58.4575 52.0056H57.1135ZM59.1695 49.8936H59.9775V48.7176H59.1695C58.9295 48.7176 58.7482 48.7709 58.6255 48.8776C58.5028 48.9789 58.4415 49.1203 58.4415 49.3016C58.4415 49.4936 58.5028 49.6403 58.6255 49.7416C58.7482 49.8429 58.9295 49.8936 59.1695 49.8936Z" fill="white" fill-opacity="0.25"/>
<g clip-path="url(#clip0_809_1238)">
<path d="M46.6471 30.6191L22.3064 30.6191C22.1405 30.6191 22.0078 30.4856 22.0078 30.3187V22.4357C22.0078 22.2688 22.1405 22.1353 22.3064 22.1353L51.5145 22.1353C51.624 22.1353 51.7236 22.1954 51.7766 22.2888C51.8297 22.3856 51.8264 22.4991 51.77 22.5925L46.8992 30.4756C46.8461 30.5657 46.7499 30.6191 46.6471 30.6191ZM22.605 30.0183L46.4778 30.0183L50.977 22.7361L22.605 22.7361V30.0183Z" fill="white" fill-opacity="0.25"/>
<path d="M45.5638 22.736L23.5391 22.736L25.7555 15.4946H28.1145L29.4218 12.8683H34.0006L34.8699 14.6202H38.3372L40.0792 17.5035H43.5995L45.5638 22.736ZM24.3453 22.1353L44.6978 22.1353L43.1815 18.1008H39.7374L37.9955 15.2176H34.4983L33.6257 13.4656H29.7868L28.4795 16.0919H26.1934L24.3453 22.1353Z" fill="white" fill-opacity="0.25"/>
<path d="M34.6812 15.2174H32.2127C32.0468 15.2174 31.9141 15.0839 31.9141 14.9171C31.9141 14.7503 32.0468 14.6169 32.2127 14.6169H34.6812C34.8471 14.6169 34.9799 14.7503 34.9799 14.9171C34.9799 15.0839 34.8471 15.2174 34.6812 15.2174Z" fill="white" fill-opacity="0.25"/>
<path d="M29.4547 20.764H26.9861C26.8202 20.764 26.6875 20.6305 26.6875 20.4637V18.4212C26.6875 18.2543 26.8202 18.1208 26.9861 18.1208H29.4547C29.6206 18.1208 29.7533 18.2543 29.7533 18.4212V20.4637C29.7533 20.6305 29.6173 20.764 29.4547 20.764ZM27.2847 20.1633H29.1561V18.7215H27.2847V20.1633Z" fill="white" fill-opacity="0.25"/>
<path d="M33.8029 20.764H31.3377C31.1718 20.764 31.0391 20.6305 31.0391 20.4637V18.4212C31.0391 18.2543 31.1718 18.1208 31.3377 18.1208H33.8062C33.9721 18.1208 34.1049 18.2543 34.1049 18.4212V20.4637C34.1015 20.6305 33.9688 20.764 33.8029 20.764ZM31.6363 20.1633H33.5076V18.7215H31.6363V20.1633Z" fill="white" fill-opacity="0.25"/>
<path d="M38.1487 20.7637H35.6801C35.5142 20.7637 35.3815 20.6303 35.3815 20.4634V18.4211C35.3815 18.2543 35.5142 18.1208 35.6801 18.1208H38.1487C38.3146 18.1208 38.4473 18.2543 38.4473 18.4211V20.4634C38.4473 20.6303 38.3113 20.7637 38.1487 20.7637ZM35.9788 20.1631H37.8501V18.7215H35.9788V20.1631ZM23.2809 34.9596C23.115 34.9596 22.9823 34.8262 22.9823 34.6593C22.9823 33.5381 22.0765 32.627 20.9616 32.627C19.8468 32.627 18.941 33.5381 18.941 34.6593C18.941 34.8262 18.8083 34.9596 18.6424 34.9596C18.4765 34.9596 18.3437 34.8262 18.3437 34.6593C18.3437 33.2077 19.5183 32.0264 20.9616 32.0264C22.4049 32.0264 23.5795 33.2077 23.5795 34.6593C23.5795 34.8228 23.4468 34.9596 23.2809 34.9596Z" fill="white" fill-opacity="0.25"/>
<path d="M27.9215 34.96C27.7556 34.96 27.6229 34.8265 27.6229 34.6596C27.6229 33.5382 26.7171 32.6271 25.6023 32.6271C24.4874 32.6271 23.5816 33.5382 23.5816 34.6596C23.5816 34.8265 23.4489 34.96 23.283 34.96C23.1171 34.96 22.9844 34.8265 22.9844 34.6596C22.9844 33.2078 24.1589 32.0264 25.6023 32.0264C27.0456 32.0264 28.2201 33.2078 28.2201 34.6596C28.2201 34.8231 28.0874 34.96 27.9215 34.96Z" fill="white" fill-opacity="0.25"/>
<path d="M32.5621 34.96C32.3962 34.96 32.2635 34.8265 32.2635 34.6596C32.2635 33.5382 31.3577 32.6271 30.2429 32.6271C29.128 32.6271 28.2222 33.5382 28.2222 34.6596C28.2222 34.8265 28.0895 34.96 27.9236 34.96C27.7577 34.96 27.625 34.8265 27.625 34.6596C27.625 33.2078 28.7996 32.0264 30.2429 32.0264C31.6862 32.0264 32.8608 33.2078 32.8608 34.6596C32.8608 34.8231 32.728 34.96 32.5621 34.96Z" fill="white" fill-opacity="0.25"/>
<path d="M37.1559 34.96C36.99 34.96 36.8573 34.8265 36.8573 34.6596C36.8573 33.5382 35.9515 32.6271 34.8366 32.6271C33.7218 32.6271 32.816 33.5382 32.816 34.6596C32.816 34.8265 32.6833 34.96 32.5174 34.96C32.3515 34.96 32.2188 34.8265 32.2188 34.6596C32.2188 33.2078 33.3933 32.0264 34.8366 32.0264C36.2799 32.0264 37.4545 33.2078 37.4545 34.6596C37.4545 34.8231 37.3218 34.96 37.1559 34.96Z" fill="white" fill-opacity="0.25"/>
<path d="M41.7563 34.96C41.5904 34.96 41.4577 34.8265 41.4577 34.6596C41.4577 33.5382 40.5519 32.6271 39.4371 32.6271C38.3222 32.6271 37.4164 33.5382 37.4164 34.6596C37.4164 34.8265 37.2837 34.96 37.1178 34.96C36.9519 34.96 36.8192 34.8265 36.8192 34.6596C36.8192 33.2078 37.9938 32.0264 39.4371 32.0264C40.8804 32.0264 42.055 33.2078 42.055 34.6596C42.055 34.8231 41.9189 34.96 41.7563 34.96ZM31.5934 39.0083C31.4275 39.0083 31.2948 38.8748 31.2948 38.7079C31.2948 37.5865 30.389 36.6754 29.2741 36.6754C28.1593 36.6754 27.2535 37.5865 27.2535 38.7079C27.2535 38.8748 27.1208 39.0083 26.9549 39.0083C26.789 39.0083 26.6562 38.8748 26.6562 38.7079C26.6562 37.2561 27.8308 36.0747 29.2741 36.0747C30.7174 36.0747 31.892 37.2561 31.892 38.7079C31.892 38.8748 31.756 39.0083 31.5934 39.0083Z" fill="white" fill-opacity="0.25"/>
<path d="M36.234 39.0078C36.0681 39.0078 35.9354 38.8743 35.9354 38.7075C35.9354 37.5861 35.0296 36.675 33.9148 36.675C32.7999 36.675 31.8941 37.5861 31.8941 38.7075C31.8941 38.8743 31.7614 39.0078 31.5955 39.0078C31.4296 39.0078 31.2969 38.8743 31.2969 38.7075C31.2969 37.2557 32.4714 36.0742 33.9148 36.0742C35.3581 36.0742 36.5326 37.2557 36.5326 38.7075C36.5326 38.8743 36.3999 39.0078 36.234 39.0078Z" fill="white" fill-opacity="0.25"/>
<path d="M40.8746 39.0078C40.7087 39.0078 40.576 38.8743 40.576 38.7075C40.576 37.5861 39.6702 36.675 38.5554 36.675C37.4405 36.675 36.5347 37.5861 36.5347 38.7075C36.5347 38.8743 36.402 39.0078 36.2361 39.0078C36.0702 39.0078 35.9375 38.8743 35.9375 38.7075C35.9375 37.2557 37.1121 36.0742 38.5554 36.0742C39.9987 36.0742 41.1733 37.2557 41.1733 38.7075C41.1733 38.8743 41.0405 39.0078 40.8746 39.0078Z" fill="white" fill-opacity="0.25"/>
<path d="M45.4684 39.0078C45.3025 39.0078 45.1698 38.8743 45.1698 38.7075C45.1698 37.5861 44.264 36.675 43.1491 36.675C42.0343 36.675 41.1285 37.5861 41.1285 38.7075C41.1285 38.8743 40.9958 39.0078 40.8299 39.0078C40.664 39.0078 40.5312 38.8743 40.5312 38.7075C40.5312 37.2557 41.7058 36.0742 43.1491 36.0742C44.5924 36.0742 45.767 37.2557 45.767 38.7075C45.767 38.8743 45.6343 39.0078 45.4684 39.0078Z" fill="white" fill-opacity="0.25"/>
<path d="M50.0778 39.0078C49.9119 39.0078 49.7791 38.8743 49.7791 38.7075C49.7791 37.5861 48.8733 36.675 47.7585 36.675C46.6437 36.675 45.7379 37.5861 45.7379 38.7075C45.7379 38.8743 45.6051 39.0078 45.4392 39.0078C45.2733 39.0078 45.1406 38.8743 45.1406 38.7075C45.1406 37.2557 46.3152 36.0742 47.7585 36.0742C49.2018 36.0742 50.3764 37.2557 50.3764 38.7075C50.3764 38.8743 50.2437 39.0078 50.0778 39.0078Z" fill="white" fill-opacity="0.25"/>
</g>
<g filter="url(#filter0_b_809_1238)">
<path d="M35.0102 0L65.303 17.5826L65.2898 52.7477L34.9838 70.3303L4.69094 52.7477L4.70416 17.5826L35.0102 0Z" fill="#474747" fill-opacity="0.5"/>
<path d="M5.20406 17.8705L35.01 0.578087L64.8029 17.8705L64.7899 52.4598L34.984 69.7522L5.19105 52.4598L5.20406 17.8705Z" stroke="#474747"/>
</g>
<g clip-path="url(#clip1_809_1238)">
<path d="M29.0711 41.0758C29.0711 41.3371 29.161 41.5583 29.3409 41.7392C29.5207 41.9201 29.7456 42.0105 30.0154 42.0105H39.3838C39.6336 42.0105 39.8535 41.9201 40.0433 41.7392C40.2332 41.5583 40.3231 41.3371 40.3131 41.0758V34.4727C40.3131 34.2114 40.2232 33.9902 40.0433 33.8093C39.8634 33.6284 39.6436 33.538 39.3838 33.538V31.6535C39.3838 31.0103 39.2589 30.4022 39.009 29.8294C38.7592 29.2565 38.4245 28.7539 38.0048 28.3218C37.5851 27.8896 37.0854 27.5529 36.5058 27.3117C35.9262 27.0705 35.3217 26.9449 34.6921 26.9348C33.8427 26.9348 33.0582 27.1459 32.3388 27.568C31.6193 27.9901 31.0547 28.563 30.645 29.2866C30.2352 30.0103 30.0254 30.7992 30.0154 31.6535V33.538C29.7556 33.538 29.5307 33.6284 29.3409 33.8093C29.151 33.9902 29.0611 34.2114 29.0711 34.4727L29.0711 41.0758ZM30.9447 40.1261L30.9447 35.4224H38.4395V40.1261H30.9447ZM31.8891 33.538V31.6535C31.8891 30.8696 32.1589 30.2012 32.6985 29.6484C33.2381 29.0957 33.9027 28.8193 34.6921 28.8193C35.4815 28.8193 36.1461 29.0957 36.6857 29.6484C37.2253 30.2012 37.5001 30.8696 37.5101 31.6535V33.538H31.8891Z" fill="#3052FF"/>
</g>
<defs>
<filter id="filter0_b_809_1238" x="3.6875" y="-1" width="62.6172" height="72.3303" filterUnits="userSpaceOnUse" color-interpolation-filters="sRGB">
<feFlood flood-opacity="0" result="BackgroundImageFix"/>
<feGaussianBlur in="BackgroundImageFix" stdDeviation="0.5"/>
<feComposite in2="SourceAlpha" operator="in" result="effect1_backgroundBlur_809_1238"/>
<feBlend mode="normal" in="SourceGraphic" in2="effect1_backgroundBlur_809_1238" result="shape"/>
</filter>
<clipPath id="clip0_809_1238">
<rect width="33.976" height="34.1716" fill="white" transform="translate(18.1953 8.84375)"/>
</clipPath>
<clipPath id="clip1_809_1238">
<rect width="14.9894" height="15.0757" fill="white" transform="translate(27.1953 26.9348)"/>
</clipPath>
</defs>
</svg>
