<svg width="70" height="70" viewBox="0 0 70 70" fill="none" xmlns="http://www.w3.org/2000/svg">
<path d="M5.20406 17.7886L35.01 0.577406L64.8029 17.7886L64.7899 52.2114L34.984 69.4226L5.19105 52.2114L5.20406 17.7886Z" stroke="#3052FF"/>
<path d="M27.576 38V32.36H28.824V34.624H31.408V32.36H32.664V38H31.408V35.656H28.824V38H27.576ZM35.8344 38.088C35.1304 38.088 34.581 37.8987 34.1864 37.52C33.7917 37.1413 33.5944 36.6267 33.5944 35.976C33.5944 35.5547 33.677 35.1867 33.8424 34.872C34.013 34.5573 34.2477 34.312 34.5464 34.136C34.8504 33.9547 35.205 33.864 35.6104 33.864C36.0104 33.864 36.3437 33.9493 36.6104 34.12C36.8824 34.2907 37.085 34.5307 37.2184 34.84C37.357 35.144 37.4264 35.4987 37.4264 35.904V36.184H34.5864V35.584H36.5464L36.4104 35.696C36.4104 35.36 36.341 35.1067 36.2024 34.936C36.069 34.76 35.8744 34.672 35.6184 34.672C35.3357 34.672 35.117 34.776 34.9624 34.984C34.813 35.192 34.7384 35.4907 34.7384 35.88V36.008C34.7384 36.4027 34.8344 36.696 35.0264 36.888C35.2237 37.08 35.5064 37.176 35.8744 37.176C36.093 37.176 36.2984 37.1493 36.4904 37.096C36.6877 37.0373 36.8744 36.9467 37.0504 36.824L37.3864 37.624C37.1837 37.7733 36.949 37.888 36.6824 37.968C36.421 38.048 36.1384 38.088 35.8344 38.088ZM39.1736 38V34.888H37.8296V33.944H41.7176V34.888H40.3656V38H39.1736Z" fill="white"/>
</svg>
