<svg width="70" height="71" viewBox="0 0 70 71" fill="none" xmlns="http://www.w3.org/2000/svg">
<path d="M5.20406 17.8705L35.01 0.578087L64.8029 17.8705L64.7899 52.4598L34.984 69.7522L5.19105 52.4598L5.20406 17.8705Z" stroke="#3052FF"/>
<g clip-path="url(#clip0_809_1200)">
<path d="M46.3126 13.9108V32.7555H43.3147V31.7085H45.3133V14.9578L25.3274 14.9578L25.3274 31.7085H33.3218V32.7555H24.3281L24.3281 13.9108L46.3126 13.9108ZM39.3175 16.0047L31.3232 16.0047V17.0516L39.3175 17.0516V16.0047ZM37.319 19.1454V18.0985H33.3218V19.1454H37.319ZM30.3239 24.3801H26.3267V25.427H30.3239V24.3801ZM30.3239 26.4739H26.3267V27.5208H30.3239V26.4739ZM26.3267 29.6147H28.3253V28.5678H26.3267V29.6147ZM40.3168 26.4739C40.3168 26.888 40.1996 27.2929 39.98 27.6372C39.7604 27.9815 39.4483 28.2499 39.0831 28.4084C38.7179 28.5669 38.316 28.6083 37.9283 28.5275C37.5407 28.4467 37.1845 28.2473 36.905 27.9545C36.6255 27.6617 36.4352 27.2886 36.3581 26.8824C36.281 26.4762 36.3205 26.0552 36.4718 25.6726C36.6231 25.29 36.8792 24.963 37.2079 24.7329C37.5366 24.5029 37.923 24.3801 38.3183 24.3801C38.8482 24.3806 39.3562 24.6014 39.7309 24.994C40.1056 25.3865 40.3163 25.9188 40.3168 26.4739ZM39.3175 26.4739C39.3175 26.2669 39.2589 26.0644 39.1491 25.8923C39.0393 25.7201 38.8833 25.5859 38.7007 25.5067C38.5181 25.4274 38.3171 25.4067 38.1233 25.4471C37.9295 25.4875 37.7514 25.5872 37.6116 25.7336C37.4719 25.88 37.3767 26.0666 37.3382 26.2697C37.2996 26.4728 37.3194 26.6833 37.395 26.8746C37.4707 27.0659 37.5987 27.2294 37.7631 27.3444C37.9274 27.4594 38.1206 27.5208 38.3183 27.5208C38.5832 27.5206 38.8372 27.4102 39.0246 27.2139C39.2119 27.0176 39.3173 26.7515 39.3175 26.4739ZM39.3195 21.9795C39.3646 22.1123 39.4358 22.2339 39.5284 22.3362C39.621 22.4385 39.733 22.5194 39.8573 22.5737C39.9815 22.6279 40.1152 22.6543 40.2498 22.6511C40.3844 22.6479 40.5168 22.6153 40.6386 22.5553C40.8377 22.4578 41.0604 22.4264 41.277 22.4651C41.4936 22.5038 41.6938 22.6109 41.8508 22.772C42.0062 22.9347 42.1097 23.1438 42.1473 23.3705C42.1849 23.5973 42.1546 23.8307 42.0606 24.0388C42.0028 24.1665 41.9711 24.3055 41.9677 24.4468C41.9643 24.5881 41.9892 24.7286 42.0408 24.8592C42.0924 24.9898 42.1695 25.1076 42.2673 25.2051C42.365 25.3025 42.4812 25.3774 42.6082 25.4249C42.8147 25.5022 42.9934 25.6445 43.1197 25.8323C43.246 26.0201 43.3138 26.2442 43.3138 26.4739C43.3138 26.7037 43.246 26.9278 43.1197 27.1156C42.9934 27.3034 42.8147 27.4457 42.6082 27.5229C42.4811 27.5702 42.3649 27.6449 42.267 27.7422C42.1692 27.8395 42.0919 27.9572 42.0402 28.0878C41.9885 28.2183 41.9635 28.3588 41.9668 28.5001C41.9702 28.6413 42.0018 28.7803 42.0596 28.908C42.1302 29.0596 42.1665 29.2262 42.1657 29.3948C42.165 29.5635 42.1272 29.7297 42.0554 29.8806C41.9835 30.0315 41.8794 30.1631 41.7512 30.2651C41.6231 30.3671 41.4742 30.4369 41.3161 30.469V37.8456L38.3183 35.1885L35.3204 37.8456V30.469C35.1625 30.4368 35.0137 30.3671 34.8856 30.2651C34.7576 30.1632 34.6536 30.0317 34.5817 29.881C34.5099 29.7302 34.4721 29.5641 34.4712 29.3956C34.4704 29.2271 34.5065 29.0606 34.5769 28.9091C34.6349 28.7813 34.6666 28.6422 34.6701 28.5008C34.6735 28.3594 34.6485 28.2188 34.5968 28.0882C34.5451 27.9575 34.4678 27.8397 34.3698 27.7423C34.2719 27.6449 34.1555 27.5702 34.0283 27.5229C33.8218 27.4457 33.6431 27.3034 33.5168 27.1156C33.3905 26.9278 33.3227 26.7037 33.3227 26.4739C33.3227 26.2442 33.3905 26.0201 33.5168 25.8323C33.6431 25.6445 33.8218 25.5022 34.0283 25.4249C34.1554 25.3775 34.2717 25.3027 34.3696 25.2053C34.4674 25.1079 34.5447 24.9901 34.5964 24.8595C34.6481 24.7288 34.673 24.5883 34.6697 24.447C34.6663 24.3056 34.6347 24.1665 34.5769 24.0388C34.4828 23.8308 34.4523 23.5975 34.4897 23.3707C34.5271 23.1439 34.6305 22.9348 34.7857 22.772C34.9427 22.6113 35.1428 22.5045 35.3592 22.466C35.5756 22.4275 35.798 22.459 35.9969 22.5563C36.1188 22.6163 36.2513 22.6489 36.3859 22.652C36.5205 22.6551 36.6542 22.6286 36.7785 22.5743C36.9028 22.52 37.0148 22.439 37.1074 22.3365C37.1999 22.2341 37.271 22.1124 37.316 21.9795C37.3895 21.7628 37.5253 21.5752 37.7047 21.4426C37.8841 21.31 38.0982 21.2388 38.3178 21.2388C38.5373 21.2388 38.7515 21.31 38.9308 21.4426C39.1102 21.5752 39.246 21.7628 39.3195 21.9795ZM40.3168 35.5895V30.313C40.1041 30.2847 39.8885 30.3345 39.7068 30.4537C39.525 30.573 39.3882 30.7544 39.3195 30.9673C39.2458 31.1837 39.11 31.3708 38.9307 31.5032C38.7515 31.6355 38.5375 31.7066 38.3183 31.7066C38.099 31.7066 37.885 31.6355 37.7058 31.5032C37.5265 31.3708 37.3907 31.1837 37.317 30.9673C37.2483 30.7544 37.1115 30.573 36.9298 30.4537C36.748 30.3345 36.5324 30.2847 36.3197 30.313V35.5884L38.3183 33.817L40.3168 35.5895ZM38.3782 30.6176C38.5142 30.2171 38.7652 29.8704 39.0967 29.6252C39.4282 29.38 39.8241 29.2483 40.2299 29.2483C40.5304 29.2516 40.8267 29.3219 41.0993 29.4545L41.1573 29.3592C41.0391 29.0993 40.9744 28.8163 40.9673 28.5286C40.9602 28.2408 41.0109 27.9547 41.116 27.6887C41.2211 27.4227 41.3784 27.1829 41.5776 26.9846C41.7768 26.7863 42.0135 26.6341 42.2725 26.5378V26.4101C42.0137 26.3134 41.7772 26.1611 41.5782 25.9628C41.3791 25.7644 41.222 25.5246 41.1169 25.2587C41.0118 24.9929 40.9611 24.7069 40.9681 24.4192C40.975 24.1315 41.0395 23.8486 41.1573 23.5886L41.0703 23.5007C40.8222 23.624 40.5521 23.6915 40.2775 23.6987C40.003 23.7059 39.73 23.6527 39.4763 23.5425C39.2226 23.4323 38.9938 23.2675 38.8046 23.0589C38.6155 22.8502 38.4702 22.6024 38.3782 22.3312H38.2583C38.1663 22.6024 38.021 22.8502 37.8319 23.0589C37.6427 23.2675 37.4139 23.4323 37.1602 23.5425C36.9065 23.6527 36.6335 23.7059 36.359 23.6987C36.0844 23.6915 35.8143 23.624 35.5662 23.5007L35.4793 23.5886C35.5971 23.8486 35.6615 24.1315 35.6685 24.4192C35.6754 24.7069 35.6247 24.9929 35.5196 25.2587C35.4145 25.5246 35.2574 25.7644 35.0583 25.9628C34.8593 26.1611 34.6228 26.3134 34.364 26.4101V26.5378C34.623 26.6341 34.8597 26.7863 35.0589 26.9846C35.2581 27.1829 35.4154 27.4227 35.5205 27.6887C35.6256 27.9547 35.6763 28.2408 35.6692 28.5286C35.6621 28.8163 35.5974 29.0993 35.4793 29.3592L35.5372 29.4535C35.8098 29.3213 36.1062 29.2513 36.4066 29.2483C36.8124 29.2483 37.2083 29.38 37.5398 29.6252C37.8714 29.8704 38.1223 30.2171 38.2583 30.6176L38.3183 30.6616L38.3782 30.6176Z" fill="#3052FF"/>
</g>
<path d="M9.64775 52.0934C9.04508 52.0934 8.52775 51.9734 8.09575 51.7334C7.66375 51.4934 7.33042 51.1574 7.09575 50.7254C6.86642 50.288 6.75175 49.7734 6.75175 49.1814C6.75175 48.5894 6.86642 48.0774 7.09575 47.6454C7.33042 47.2134 7.66375 46.8774 8.09575 46.6374C8.52775 46.3974 9.04508 46.2774 9.64775 46.2774C10.0371 46.2774 10.3918 46.3334 10.7118 46.4454C11.0318 46.552 11.3038 46.7094 11.5278 46.9174L11.1358 47.9014C10.8904 47.7094 10.6558 47.5734 10.4318 47.4934C10.2131 47.4134 9.96508 47.3734 9.68775 47.3734C9.15975 47.3734 8.75442 47.5307 8.47175 47.8454C8.19442 48.1547 8.05575 48.6 8.05575 49.1814C8.05575 49.7627 8.19442 50.2107 8.47175 50.5254C8.75442 50.84 9.15975 50.9974 9.68775 50.9974C9.96508 50.9974 10.2131 50.9574 10.4318 50.8774C10.6558 50.7974 10.8904 50.6614 11.1358 50.4694L11.5278 51.4534C11.3038 51.656 11.0318 51.8134 10.7118 51.9254C10.3918 52.0374 10.0371 52.0934 9.64775 52.0934ZM14.3422 52.0934C13.6382 52.0934 13.0889 51.904 12.6942 51.5254C12.2995 51.1467 12.1022 50.632 12.1022 49.9814C12.1022 49.56 12.1849 49.192 12.3502 48.8774C12.5209 48.5627 12.7555 48.3174 13.0542 48.1414C13.3582 47.96 13.7129 47.8694 14.1182 47.8694C14.5182 47.8694 14.8515 47.9547 15.1182 48.1254C15.3902 48.296 15.5929 48.536 15.7262 48.8454C15.8649 49.1494 15.9342 49.504 15.9342 49.9094V50.1894H13.0942V49.5894H15.0542L14.9182 49.7014C14.9182 49.3654 14.8489 49.112 14.7102 48.9414C14.5769 48.7654 14.3822 48.6774 14.1262 48.6774C13.8435 48.6774 13.6249 48.7814 13.4702 48.9894C13.3209 49.1974 13.2462 49.496 13.2462 49.8854V50.0134C13.2462 50.408 13.3422 50.7014 13.5342 50.8934C13.7315 51.0854 14.0142 51.1814 14.3822 51.1814C14.6009 51.1814 14.8062 51.1547 14.9982 51.1014C15.1955 51.0427 15.3822 50.952 15.5582 50.8294L15.8942 51.6294C15.6915 51.7787 15.4569 51.8934 15.1902 51.9734C14.9289 52.0534 14.6462 52.0934 14.3422 52.0934ZM16.8334 53.7334V49.0054C16.8334 48.8347 16.8281 48.6614 16.8174 48.4854C16.8068 48.304 16.7908 48.1254 16.7694 47.9494H17.9294L18.0254 48.7414H17.9374C18.0174 48.4747 18.1854 48.264 18.4414 48.1094C18.6974 47.9494 18.9908 47.8694 19.3214 47.8694C19.6734 47.8694 19.9828 47.9547 20.2494 48.1254C20.5161 48.2907 20.7241 48.5307 20.8734 48.8454C21.0281 49.16 21.1054 49.536 21.1054 49.9734C21.1054 50.416 21.0281 50.7947 20.8734 51.1094C20.7241 51.424 20.5161 51.6667 20.2494 51.8374C19.9828 52.008 19.6734 52.0934 19.3214 52.0934C18.9961 52.0934 18.7054 52.016 18.4494 51.8614C18.1988 51.7067 18.0308 51.5014 17.9454 51.2454H18.0414V53.7334H16.8334ZM18.9534 51.1814C19.2361 51.1814 19.4628 51.0827 19.6334 50.8854C19.8041 50.688 19.8894 50.384 19.8894 49.9734C19.8894 49.5627 19.8041 49.2614 19.6334 49.0694C19.4628 48.8774 19.2361 48.7814 18.9534 48.7814C18.6761 48.7814 18.4494 48.8774 18.2734 49.0694C18.1028 49.2614 18.0174 49.5627 18.0174 49.9734C18.0174 50.384 18.1028 50.688 18.2734 50.8854C18.4494 51.0827 18.6761 51.1814 18.9534 51.1814ZM22.8611 52.0054V48.8934H21.5171V47.9494H25.4051V48.8934H24.0531V52.0054H22.8611ZM25.9889 52.0054V47.9494H27.0769V50.7974H26.8129L28.9569 47.9494H29.9489V52.0054H28.8609V49.1574H29.1249L26.9729 52.0054H25.9889ZM33.4128 53.7334V51.2854H33.5008C33.4154 51.5467 33.2714 51.7467 33.0688 51.8854C32.8714 52.024 32.6341 52.0934 32.3568 52.0934C32.0581 52.0934 31.7914 52.0054 31.5568 51.8294C31.3274 51.6534 31.1461 51.408 31.0128 51.0934C30.8848 50.7787 30.8208 50.4054 30.8208 49.9734C30.8208 49.5414 30.8848 49.168 31.0128 48.8534C31.1408 48.5387 31.3194 48.296 31.5488 48.1254C31.7834 47.9547 32.0528 47.8694 32.3568 47.8694C32.6341 47.8694 32.8714 47.9387 33.0688 48.0774C33.2714 48.216 33.4154 48.4107 33.5008 48.6614H33.4128V46.1174H34.6128V48.6614H34.5168C34.6021 48.4107 34.7461 48.216 34.9488 48.0774C35.1514 47.9387 35.3914 47.8694 35.6688 47.8694C35.9674 47.8694 36.2314 47.9547 36.4608 48.1254C36.6954 48.296 36.8768 48.5387 37.0048 48.8534C37.1381 49.168 37.2048 49.5414 37.2048 49.9734C37.2048 50.4054 37.1381 50.7787 37.0048 51.0934C36.8768 51.408 36.6954 51.6534 36.4608 51.8294C36.2314 52.0054 35.9674 52.0934 35.6688 52.0934C35.3968 52.0934 35.1594 52.024 34.9568 51.8854C34.7594 51.7467 34.6128 51.5467 34.5168 51.2854H34.6128V53.7334L33.4128 53.7334ZM32.7328 51.1974C32.9461 51.1974 33.1141 51.0987 33.2368 50.9014C33.3648 50.6987 33.4288 50.3894 33.4288 49.9734C33.4288 49.5574 33.3648 49.2507 33.2368 49.0534C33.1088 48.8507 32.9381 48.7494 32.7248 48.7494C32.5114 48.7494 32.3408 48.8507 32.2128 49.0534C32.0848 49.2507 32.0208 49.5574 32.0208 49.9734C32.0208 50.3894 32.0848 50.6987 32.2128 50.9014C32.3408 51.0987 32.5141 51.1974 32.7328 51.1974ZM35.2928 51.1974C35.5114 51.1974 35.6848 51.0987 35.8128 50.9014C35.9408 50.6987 36.0048 50.3894 36.0048 49.9734C36.0048 49.5574 35.9381 49.2507 35.8048 49.0534C35.6768 48.8507 35.5061 48.7494 35.2928 48.7494C35.0794 48.7494 34.9088 48.8507 34.7808 49.0534C34.6528 49.2507 34.5888 49.5574 34.5888 49.9734C34.5888 50.3894 34.6528 50.6987 34.7808 50.9014C34.9088 51.0987 35.0794 51.1974 35.2928 51.1974ZM38.0827 52.0054V47.9494H39.1707V50.7974H38.9067L41.0507 47.9494H42.0427V52.0054H40.9547V49.1574H41.2187L39.0667 52.0054H38.0827ZM43.0905 52.0054V47.9494H44.2825V49.4774H44.8025L45.8985 47.9494H47.1865L45.7145 50.0134L45.4745 49.6294C45.6185 49.6454 45.7492 49.688 45.8665 49.7574C45.9838 49.8267 46.0932 49.9174 46.1945 50.0294C46.3012 50.1414 46.3972 50.2747 46.4825 50.4294L47.3465 52.0054H46.0665L45.4025 50.8134C45.3492 50.7067 45.2905 50.624 45.2265 50.5654C45.1678 50.5014 45.1012 50.4587 45.0265 50.4374C44.9518 50.4107 44.8612 50.3974 44.7545 50.3974H44.2825V52.0054H43.0905ZM49.4094 52.0934C49.0574 52.0934 48.7481 52.008 48.4814 51.8374C48.2148 51.6667 48.0068 51.424 47.8574 51.1094C47.7081 50.7947 47.6334 50.416 47.6334 49.9734C47.6334 49.536 47.7081 49.16 47.8574 48.8454C48.0068 48.5307 48.2148 48.2907 48.4814 48.1254C48.7481 47.9547 49.0574 47.8694 49.4094 47.8694C49.7348 47.8694 50.0254 47.9494 50.2814 48.1094C50.5428 48.264 50.7134 48.4747 50.7934 48.7414H50.7054L50.8014 47.9494H51.9614C51.9454 48.1254 51.9294 48.304 51.9134 48.4854C51.9028 48.6614 51.8974 48.8347 51.8974 49.0054V52.0054H50.6974L50.6894 51.2454H50.7854C50.7001 51.5014 50.5294 51.7067 50.2734 51.8614C50.0174 52.016 49.7294 52.0934 49.4094 52.0934ZM49.7774 51.1814C50.0548 51.1814 50.2788 51.0827 50.4494 50.8854C50.6201 50.688 50.7054 50.384 50.7054 49.9734C50.7054 49.5627 50.6201 49.2614 50.4494 49.0694C50.2788 48.8774 50.0548 48.7814 49.7774 48.7814C49.5001 48.7814 49.2761 48.8774 49.1054 49.0694C48.9348 49.2614 48.8494 49.5627 48.8494 49.9734C48.8494 50.384 48.9321 50.688 49.0974 50.8854C49.2681 51.0827 49.4948 51.1814 49.7774 51.1814ZM53.8611 52.0054V48.8934H52.5171V47.9494H56.4051V48.8934H55.0531V52.0054H53.8611ZM56.9889 52.0054V47.9494H58.1809V49.2534H59.1569C59.7116 49.2534 60.1276 49.368 60.4049 49.5974C60.6823 49.8267 60.8209 50.16 60.8209 50.5974C60.8209 50.88 60.7543 51.128 60.6209 51.3414C60.4876 51.5494 60.2956 51.712 60.0449 51.8294C59.7996 51.9467 59.5036 52.0054 59.1569 52.0054H56.9889ZM58.1809 51.2374H58.9729C59.2129 51.2374 59.3969 51.1867 59.5249 51.0854C59.6583 50.9787 59.7249 50.824 59.7249 50.6214C59.7249 50.4134 59.6609 50.2614 59.5329 50.1654C59.4049 50.0694 59.2183 50.0214 58.9729 50.0214H58.1809V51.2374ZM61.2609 52.0054V47.9494H62.4609V52.0054H61.2609Z" fill="white"/>
<defs>
<clipPath id="clip0_809_1200">
<rect width="23.9831" height="25.1262" fill="white" transform="translate(23.3281 12.8638)"/>
</clipPath>
</defs>
</svg>
