<svg width="70" height="71" viewBox="0 0 70 71" fill="none" xmlns="http://www.w3.org/2000/svg">
<path d="M5.20406 18.1298L35.01 0.837365L64.8029 18.1298L64.7899 52.719L34.984 70.0115L5.19105 52.719L5.20406 18.1298Z" stroke="#3052FF"/>
<path d="M19.4581 49.2495V44.6255H17.6661V43.6095H22.4981V44.6255H20.7061V49.2495H19.4581ZM24.5688 49.3375C23.8648 49.3375 23.3154 49.1482 22.9208 48.7695C22.5261 48.3908 22.3288 47.8762 22.3288 47.2255C22.3288 46.8042 22.4114 46.4362 22.5768 46.1215C22.7474 45.8068 22.9821 45.5615 23.2808 45.3855C23.5848 45.2042 23.9394 45.1135 24.3448 45.1135C24.7448 45.1135 25.0781 45.1988 25.3448 45.3695C25.6168 45.5402 25.8194 45.7802 25.9528 46.0895C26.0914 46.3935 26.1608 46.7482 26.1608 47.1535V47.4335H23.3208V46.8335H25.2808L25.1448 46.9455C25.1448 46.6095 25.0754 46.3562 24.9368 46.1855C24.8034 46.0095 24.6088 45.9215 24.3528 45.9215C24.0701 45.9215 23.8514 46.0255 23.6968 46.2335C23.5474 46.4415 23.4728 46.7402 23.4728 47.1295V47.2575C23.4728 47.6522 23.5688 47.9455 23.7608 48.1375C23.9581 48.3295 24.2408 48.4255 24.6088 48.4255C24.8274 48.4255 25.0328 48.3988 25.2248 48.3455C25.4221 48.2868 25.6088 48.1962 25.7848 48.0735L26.1208 48.8735C25.9181 49.0228 25.6834 49.1375 25.4168 49.2175C25.1554 49.2975 24.8728 49.3375 24.5688 49.3375ZM26.3099 49.2495L28.2299 46.8895V47.4255L26.4139 45.1935H27.8379L28.9179 46.6095H28.4859L29.5739 45.1935H30.9899L29.1819 47.4335V46.8815L31.1019 49.2495H29.6699L28.4859 47.7295H28.9179L27.7259 49.2495H26.3099ZM31.5358 49.2495V45.1935H32.7278V46.7215H34.3278V45.1935H35.5198V49.2495H34.3278V47.6415H32.7278V49.2495H31.5358ZM36.5749 49.2495V45.1935H37.6629V48.0415H37.3989L39.5429 45.1935H40.5349V49.2495H39.4469V46.4015H39.7109L37.5589 49.2495H36.5749ZM41.5827 49.2495V45.1935L42.7747 45.1935V46.7215H43.2947L44.3907 45.1935H45.6787L44.2067 47.2575L43.9667 46.8735C44.1107 46.8895 44.2414 46.9322 44.3587 47.0015C44.476 47.0708 44.5854 47.1615 44.6867 47.2735C44.7934 47.3855 44.8894 47.5188 44.9747 47.6735L45.8387 49.2495L44.5587 49.2495L43.8947 48.0575C43.8414 47.9508 43.7827 47.8682 43.7187 47.8095C43.66 47.7455 43.5934 47.7028 43.5187 47.6815C43.444 47.6548 43.3534 47.6415 43.2467 47.6415H42.7747V49.2495H41.5827ZM47.9016 49.3375C47.5496 49.3375 47.2403 49.2522 46.9736 49.0815C46.707 48.9108 46.499 48.6682 46.3496 48.3535C46.2003 48.0388 46.1256 47.6602 46.1256 47.2175C46.1256 46.7802 46.2003 46.4042 46.3496 46.0895C46.499 45.7748 46.707 45.5348 46.9736 45.3695C47.2403 45.1988 47.5496 45.1135 47.9016 45.1135C48.227 45.1135 48.5176 45.1935 48.7736 45.3535C49.035 45.5082 49.2056 45.7188 49.2856 45.9855H49.1976L49.2936 45.1935H50.4536C50.4376 45.3695 50.4216 45.5482 50.4056 45.7295C50.395 45.9055 50.3896 46.0788 50.3896 46.2495V49.2495H49.1896L49.1816 48.4895H49.2776C49.1923 48.7455 49.0216 48.9508 48.7656 49.1055C48.5096 49.2602 48.2216 49.3375 47.9016 49.3375ZM48.2696 48.4255C48.547 48.4255 48.771 48.3268 48.9416 48.1295C49.1123 47.9322 49.1976 47.6282 49.1976 47.2175C49.1976 46.8068 49.1123 46.5055 48.9416 46.3135C48.771 46.1215 48.547 46.0255 48.2696 46.0255C47.9923 46.0255 47.7683 46.1215 47.5976 46.3135C47.427 46.5055 47.3416 46.8068 47.3416 47.2175C47.3416 47.6282 47.4243 47.9322 47.5896 48.1295C47.7603 48.3268 47.987 48.4255 48.2696 48.4255Z" fill="white"/>
<mask id="path-3-outside-1_809_1181" maskUnits="userSpaceOnUse" x="24.2188" y="15.526" width="21" height="12" fill="black">
<rect fill="white" x="24.2188" y="15.526" width="21" height="12"/>
<path d="M29.9486 24.8972C29.4774 24.9242 29.0058 24.8526 28.5616 24.6865C28.1174 24.5204 27.7096 24.2633 27.3621 23.9302C27.0147 23.5972 26.7347 23.1949 26.5386 22.7472C26.3425 22.2995 26.2342 21.8154 26.2203 21.3234C26.2063 20.8314 26.287 20.3414 26.4574 19.8824C26.6278 19.4234 26.8845 19.0046 27.2125 18.6507C27.5405 18.2968 27.933 18.015 28.3671 17.8218C28.8011 17.6287 29.2678 17.5281 29.7396 17.526H29.9486L42.999 18.4369V24.0254L33.7148 24.6401L31.9094 24.7351"/>
</mask>
<path d="M30.063 26.8939C31.1658 26.8307 32.0085 25.8855 31.9453 24.7827C31.8821 23.68 30.9369 22.8373 29.8341 22.9005L30.063 26.8939ZM29.7396 17.526V15.526L29.7308 15.526L29.7396 17.526ZM29.9486 17.526L30.0878 15.5309C30.0415 15.5276 29.995 15.526 29.9486 15.526V17.526ZM42.999 18.4369H44.999C44.999 17.3864 44.1863 16.5149 43.1383 16.4418L42.999 18.4369ZM42.999 24.0254L43.1312 26.021C44.1822 25.9514 44.999 25.0787 44.999 24.0254H42.999ZM33.7148 24.6401L33.8199 26.6374C33.8289 26.6369 33.8379 26.6364 33.8469 26.6358L33.7148 24.6401ZM31.8043 22.7379C30.7012 22.7959 29.8541 23.7372 29.9121 24.8402C29.9702 25.9433 30.9114 26.7904 32.0145 26.7324L31.8043 22.7379ZM29.8341 22.9005C29.6416 22.9115 29.4474 22.8825 29.262 22.8131L27.8613 26.5598C28.5643 26.8227 29.3133 26.9369 30.063 26.8939L29.8341 22.9005ZM29.262 22.8131C29.0764 22.7437 28.9003 22.6342 28.7461 22.4864L25.9782 25.374C26.5189 25.8924 27.1585 26.2971 27.8613 26.5598L29.262 22.8131ZM28.7461 22.4864C28.5918 22.3385 28.4627 22.1551 28.3705 21.9448L24.7066 23.5497C25.0067 24.2347 25.4376 24.8559 25.9782 25.374L28.7461 22.4864ZM28.3705 21.9448C28.2783 21.7343 28.2262 21.5035 28.2195 21.2667L24.2211 21.38C24.2423 22.1272 24.4066 22.8647 24.7066 23.5497L28.3705 21.9448ZM28.2195 21.2667C28.2128 21.0299 28.2517 20.7956 28.3323 20.5785L24.5824 19.1863C24.3222 19.8873 24.1999 20.6329 24.2211 21.38L28.2195 21.2667ZM28.3323 20.5785C28.4129 20.3615 28.5323 20.1689 28.6794 20.0102L25.7456 17.2912C25.2368 17.8402 24.8426 18.4853 24.5824 19.1863L28.3323 20.5785ZM28.6794 20.0102C28.8263 19.8517 28.9975 19.7304 29.1803 19.649L27.5539 15.9946C26.8686 16.2996 26.2546 16.742 25.7456 17.2912L28.6794 20.0102ZM29.1803 19.649C29.3628 19.5678 29.5557 19.5268 29.7485 19.526L29.7308 15.526C28.9798 15.5293 28.2394 15.6895 27.5539 15.9946L29.1803 19.649ZM29.7396 19.526H29.9486V15.526H29.7396V19.526ZM29.8093 19.5211L42.8598 20.4321L43.1383 16.4418L30.0878 15.5309L29.8093 19.5211ZM40.999 18.4369V24.0254H44.999V18.4369H40.999ZM42.8669 22.0298L33.5827 22.6445L33.8469 26.6358L43.1312 26.021L42.8669 22.0298ZM33.6097 22.6429L31.8043 22.7379L32.0145 26.7324L33.8199 26.6374L33.6097 22.6429Z" fill="#3052FF" mask="url(#path-3-outside-1_809_1181)"/>
<mask id="path-5-inside-2_809_1181" fill="white">
<path d="M33.2176 25.3596L34.6006 29.1256C34.7578 29.6342 34.7149 30.1849 34.4812 30.6565C34.2476 31.1281 33.8423 31.482 33.3547 31.6402C32.8671 31.7985 32.3369 31.7482 31.881 31.5004C31.425 31.2526 31.0805 30.8276 30.9233 30.319L29.2422 24.8795"/>
</mask>
<path d="M35.0865 24.6434C34.706 23.6073 33.5608 23.0881 32.5286 23.4836C31.4964 23.8792 30.9681 25.0397 31.3486 26.0758L35.0865 24.6434ZM34.6006 29.1256L36.5029 28.5082C36.4927 28.475 36.4815 28.442 36.4695 28.4094L34.6006 29.1256ZM31.1445 24.2621C30.8184 23.2068 29.7023 22.6277 28.6516 22.9686C27.601 23.3096 27.0137 24.4415 27.3399 25.4968L31.1445 24.2621ZM31.3486 26.0758L32.7317 29.8418L36.4695 28.4094L35.0865 24.6434L31.3486 26.0758ZM32.6983 29.7429C32.7016 29.7538 32.7023 29.7634 32.7017 29.7705C32.7012 29.7775 32.6997 29.779 32.7013 29.7758L36.2611 31.5372C36.7309 30.5892 36.8097 29.5009 36.5029 28.5082L32.6983 29.7429ZM32.7013 29.7758C32.7053 29.7677 32.7236 29.7426 32.7642 29.7294L33.9452 33.551C34.9611 33.2214 35.7898 32.4885 36.2611 31.5372L32.7013 29.7758ZM32.7642 29.7294C32.8047 29.7162 32.8338 29.726 32.8416 29.7303L30.9203 33.2705C31.8401 33.7703 32.9294 33.8807 33.9452 33.551L32.7642 29.7294ZM32.8416 29.7303C32.8447 29.7319 32.8427 29.7316 32.8383 29.7262C32.8339 29.7207 32.829 29.7124 32.8256 29.7016L29.021 30.9363C29.3278 31.929 30.0036 32.7724 30.9203 33.2705L32.8416 29.7303ZM32.8256 29.7016L31.1445 24.2621L27.3399 25.4968L29.021 30.9363L32.8256 29.7016Z" fill="#3052FF" mask="url(#path-5-inside-2_809_1181)"/>
<path d="M30.1681 27.3606H29.2031" stroke="#3052FF" stroke-width="2" stroke-linecap="round" stroke-linejoin="round"/>
<path d="M29.8259 23.3907C31.0094 23.3907 31.9331 22.3961 31.9331 21.2141C31.9331 20.0322 31.0094 19.0376 29.8259 19.0376C28.6425 19.0376 27.7188 20.0322 27.7188 21.2141C27.7188 22.3961 28.6425 23.3907 29.8259 23.3907Z" stroke="#3052FF" stroke-linecap="round" stroke-linejoin="round"/>
<path d="M32.0951 31.2312C32.0951 31.2312 31.6072 32.9077 32.2988 34.0813C32.9904 35.2549 31.2266 35.9423 31.2266 35.8752" stroke="#3052FF" stroke-linecap="round" stroke-linejoin="round"/>
</svg>
