<svg width="70" height="71" viewBox="0 0 70 71" fill="none" xmlns="http://www.w3.org/2000/svg">
<path d="M5.20406 17.8705L35.01 0.578087L64.8029 17.8705L64.7899 52.4598L34.984 69.7522L5.19105 52.4598L5.20406 17.8705Z" stroke="#3052FF"/>
<path d="M24.88 38V33.376H23.088V32.36H27.92V33.376H26.128V38H24.88ZM29.8706 38.088C29.4386 38.088 29.0626 38.0027 28.7426 37.832C28.428 37.656 28.1826 37.4107 28.0066 37.096C27.836 36.7813 27.7506 36.4053 27.7506 35.968C27.7506 35.536 27.836 35.1627 28.0066 34.848C28.1826 34.5333 28.428 34.2907 28.7426 34.12C29.0626 33.9493 29.4386 33.864 29.8706 33.864C30.3026 33.864 30.6786 33.9493 30.9986 34.12C31.3186 34.2907 31.564 34.5333 31.7346 34.848C31.9106 35.1627 31.9986 35.536 31.9986 35.968C31.9986 36.4053 31.9106 36.7813 31.7346 37.096C31.564 37.4107 31.3186 37.656 30.9986 37.832C30.6786 38.0027 30.3026 38.088 29.8706 38.088ZM29.8706 37.176C30.148 37.176 30.3666 37.0773 30.5266 36.88C30.692 36.6827 30.7746 36.3787 30.7746 35.968C30.7746 35.5573 30.692 35.256 30.5266 35.064C30.3666 34.872 30.148 34.776 29.8706 34.776C29.5933 34.776 29.372 34.872 29.2066 35.064C29.0466 35.256 28.9666 35.5573 28.9666 35.968C28.9666 36.3787 29.0466 36.6827 29.2066 36.88C29.372 37.0773 29.5933 37.176 29.8706 37.176ZM32.9116 39.728V35C32.9116 34.8293 32.9062 34.656 32.8956 34.48C32.8849 34.2987 32.8689 34.12 32.8476 33.944H34.0076L34.1036 34.736H34.0156C34.0956 34.4693 34.2636 34.2587 34.5196 34.104C34.7756 33.944 35.0689 33.864 35.3996 33.864C35.7516 33.864 36.0609 33.9493 36.3276 34.12C36.5942 34.2853 36.8022 34.5253 36.9516 34.84C37.1062 35.1547 37.1836 35.5307 37.1836 35.968C37.1836 36.4107 37.1062 36.7893 36.9516 37.104C36.8022 37.4187 36.5942 37.6613 36.3276 37.832C36.0609 38.0027 35.7516 38.088 35.3996 38.088C35.0742 38.088 34.7836 38.0107 34.5276 37.856C34.2769 37.7013 34.1089 37.496 34.0236 37.24H34.1196V39.728H32.9116ZM35.0316 37.176C35.3142 37.176 35.5409 37.0773 35.7116 36.88C35.8822 36.6827 35.9676 36.3787 35.9676 35.968C35.9676 35.5573 35.8822 35.256 35.7116 35.064C35.5409 34.872 35.3142 34.776 35.0316 34.776C34.7542 34.776 34.5276 34.872 34.3516 35.064C34.1809 35.256 34.0956 35.5573 34.0956 35.968C34.0956 36.3787 34.1809 36.6827 34.3516 36.88C34.5276 37.0773 34.7542 37.176 35.0316 37.176ZM38.0592 38V33.944H41.2273V34.888H39.2673V38H38.0592ZM41.903 38V33.944H42.991V36.792H42.727L44.871 33.944H45.863V38H44.775V35.152H45.039L42.887 38H41.903Z" fill="white"/>
</svg>
