<svg width="31" height="30" viewBox="0 0 31 30" fill="none" xmlns="http://www.w3.org/2000/svg">
<path d="M3.84381 21.2501C3.84375 21.1694 3.84375 21.0861 3.84375 21.0002V9.00025C3.84375 7.60011 3.84375 6.89953 4.11624 6.36475C4.35591 5.89434 4.73809 5.51216 5.2085 5.27249C5.74328 5 6.44386 5 7.844 5H22.344C23.7441 5 24.4439 5 24.9786 5.27249C25.449 5.51216 25.8319 5.89434 26.0715 6.36475C26.3437 6.899 26.3438 7.59874 26.3438 8.99614V21.0039C26.3438 21.6101 26.3438 22.0849 26.3215 22.4717M3.84381 21.2501C3.84478 22.4855 3.86046 23.1323 4.11624 23.6343C4.35591 24.1046 4.73809 24.4881 5.2085 24.7277C5.74275 25 6.44249 25 7.83989 25H22.3483C23.7456 25 24.4444 25 24.9786 24.7277C25.449 24.4881 25.8319 24.1046 26.0715 23.6343C26.2256 23.3318 26.2925 22.9766 26.3215 22.4717M3.84381 21.2501L9.80373 14.2969L9.80549 14.295C10.3341 13.6782 10.5988 13.3694 10.9128 13.258C11.1887 13.1602 11.4898 13.1625 11.7643 13.2641C12.077 13.38 12.3376 13.6924 12.8586 14.3176L16.1976 18.3244C16.68 18.9033 16.9225 19.1943 17.217 19.3111C17.4769 19.4141 17.7634 19.4257 18.0314 19.3466C18.3365 19.2566 18.6051 18.988 19.1423 18.4509L19.7635 17.8296C20.3104 17.2827 20.5839 17.0095 20.8934 16.9201C21.1651 16.8418 21.4557 16.8586 21.7172 16.9665C22.015 17.0895 22.2565 17.3905 22.7396 17.9944L26.3215 22.4717M26.3215 22.4717L26.3438 22.4995M18.8438 12.5C18.1534 12.5 17.5938 11.9404 17.5938 11.25C17.5938 10.5596 18.1534 10 18.8438 10C19.5341 10 20.0938 10.5596 20.0938 11.25C20.0938 11.9404 19.5341 12.5 18.8438 12.5Z" stroke="white" stroke-width="2" stroke-linecap="round" stroke-linejoin="round"/>
</svg>
