<svg width="28" height="28" viewBox="0 0 28 28" fill="none" xmlns="http://www.w3.org/2000/svg">
<path fill-rule="evenodd" clip-rule="evenodd" d="M2.33594 7C2.33594 5.06701 3.90295 3.5 5.83594 3.5H22.1693C24.1023 3.5 25.6693 5.06701 25.6693 7V17.5C25.6693 19.433 24.1023 21 22.1693 21H15.1693V22.1667H17.5026C18.147 22.1667 18.6693 22.689 18.6693 23.3333C18.6693 23.9777 18.147 24.5 17.5026 24.5H10.5026C9.85828 24.5 9.33594 23.9777 9.33594 23.3333C9.33594 22.689 9.85828 22.1667 10.5026 22.1667H12.8359V21H5.83594C3.90295 21 2.33594 19.433 2.33594 17.5V7ZM5.83594 5.83333C5.19161 5.83333 4.66927 6.35567 4.66927 7V17.5C4.66927 18.1443 5.19161 18.6667 5.83594 18.6667H22.1693C22.8136 18.6667 23.3359 18.1443 23.3359 17.5V7C23.3359 6.35567 22.8136 5.83333 22.1693 5.83333H5.83594Z" fill="#3052FF"/>
</svg>
