<svg width="31" height="27" viewBox="0 0 31 27" fill="none" xmlns="http://www.w3.org/2000/svg">
<path d="M7.18718 25H23.0133C25.7379 25 27.0938 23.7007 27.0938 21.1271V5.87288C27.0938 3.29929 25.7379 2 23.0133 2H7.18718C4.47562 2 3.09375 3.28677 3.09375 5.87288V21.1271C3.09375 23.7132 4.47562 25 7.18718 25ZM7.22628 22.9886C5.92267 22.9886 5.19264 22.3265 5.19264 21.0272V5.97283C5.19264 4.67354 5.92267 4.01139 7.22628 4.01139H22.9742C24.2648 4.01139 24.9948 4.67354 24.9948 5.97283V21.0272C24.9948 22.3265 24.2648 22.9886 22.9742 22.9886H7.22628ZM9.63798 17.729C9.63798 18.2787 10.0943 18.7284 10.6679 18.7284C10.9547 18.7284 11.2154 18.6285 11.3979 18.4411L15.0872 14.893L18.7895 18.4411C18.972 18.616 19.2197 18.7284 19.5065 18.7284C20.0801 18.7284 20.5494 18.2787 20.5494 17.729C20.5494 17.4416 20.4321 17.2168 20.2365 17.0293L16.5603 13.4938L20.2496 9.94566C20.4581 9.74582 20.5625 9.52093 20.5625 9.25857C20.5625 8.70889 20.1062 8.25911 19.5196 8.25911C19.2588 8.25911 19.0372 8.35906 18.8286 8.55895L15.0872 12.1195L11.3718 8.57142C11.1763 8.39653 10.9547 8.28411 10.6679 8.28411C10.1073 8.28411 9.63798 8.72137 9.63798 9.27104C9.63798 9.53341 9.75534 9.77077 9.93784 9.95819L13.6271 13.4938L9.93784 17.0418C9.75534 17.2292 9.63798 17.4541 9.63798 17.729Z" fill="#FF0000"/>
</svg>
