<svg width="72" height="70" viewBox="0 0 72 70" fill="none" xmlns="http://www.w3.org/2000/svg">
<path d="M53.3014 5.20707L70.5938 35.013L53.3014 64.8059L18.7121 64.7929L1.41969 34.987L18.7121 5.19406L53.3014 5.20707Z" stroke="#3052FF"/>
<path d="M15.4119 51.9991V46.3591H16.6599V51.9991H15.4119ZM17.7226 51.9991V48.9991C17.7226 48.8284 17.7172 48.6551 17.7066 48.4791C17.6959 48.2978 17.6799 48.1191 17.6586 47.9431H18.8186L18.9066 48.6951H18.8106C18.9439 48.4284 19.1332 48.2231 19.3786 48.0791C19.6239 47.9351 19.9092 47.8631 20.2346 47.8631C20.7092 47.8631 21.0639 48.0018 21.2986 48.2791C21.5386 48.5511 21.6586 48.9751 21.6586 49.5511V51.9991H20.4506V49.6071C20.4506 49.3138 20.3972 49.1058 20.2906 48.9831C20.1839 48.8604 20.0239 48.7991 19.8106 48.7991C19.5439 48.7991 19.3306 48.8844 19.1706 49.0551C19.0106 49.2204 18.9306 49.4444 18.9306 49.7271V51.9991H17.7226ZM24.1248 52.0871C23.7621 52.0871 23.4315 52.0471 23.1328 51.9671C22.8341 51.8871 22.5808 51.7751 22.3728 51.6311L22.6848 50.8311C22.8928 50.9591 23.1221 51.0604 23.3728 51.1351C23.6288 51.2098 23.8821 51.2471 24.1328 51.2471C24.3675 51.2471 24.5408 51.2098 24.6528 51.1351C24.7648 51.0604 24.8208 50.9591 24.8208 50.8311C24.8208 50.7244 24.7835 50.6418 24.7088 50.5831C24.6395 50.5244 24.5301 50.4818 24.3808 50.4551L23.5568 50.3031C23.2101 50.2338 22.9461 50.1058 22.7648 49.9191C22.5835 49.7324 22.4928 49.4898 22.4928 49.1911C22.4928 48.9298 22.5621 48.7004 22.7008 48.5031C22.8448 48.3004 23.0501 48.1431 23.3168 48.0311C23.5835 47.9191 23.8955 47.8631 24.2528 47.8631C24.5568 47.8631 24.8448 47.9004 25.1168 47.9751C25.3888 48.0498 25.6208 48.1644 25.8128 48.3191L25.4848 49.0951C25.3195 48.9724 25.1275 48.8738 24.9088 48.7991C24.6955 48.7244 24.4901 48.6871 24.2928 48.6871C24.0368 48.6871 23.8528 48.7298 23.7408 48.8151C23.6288 48.8951 23.5728 48.9991 23.5728 49.1271C23.5728 49.2231 23.6048 49.3031 23.6688 49.3671C23.7381 49.4311 23.8421 49.4791 23.9808 49.5111L24.8128 49.6631C25.1701 49.7271 25.4421 49.8471 25.6288 50.0231C25.8155 50.1991 25.9088 50.4418 25.9088 50.7511C25.9088 51.0338 25.8341 51.2738 25.6848 51.4711C25.5355 51.6684 25.3248 51.8204 25.0528 51.9271C24.7861 52.0338 24.4768 52.0871 24.1248 52.0871ZM28.517 52.0871C27.989 52.0871 27.5917 51.9564 27.325 51.6951C27.0583 51.4284 26.925 51.0311 26.925 50.5031V48.8471H26.157V47.9431H26.925V46.9511L28.133 46.6551V47.9431H29.173V48.8471H28.133V50.4391C28.133 50.6951 28.1863 50.8711 28.293 50.9671C28.3997 51.0631 28.5357 51.1111 28.701 51.1111C28.8023 51.1111 28.885 51.1058 28.949 51.0951C29.0183 51.0791 29.0903 51.0578 29.165 51.0311V51.9671C29.0637 52.0098 28.957 52.0391 28.845 52.0551C28.733 52.0764 28.6237 52.0871 28.517 52.0871ZM31.3689 52.0871C31.0169 52.0871 30.7075 52.0018 30.4409 51.8311C30.1742 51.6604 29.9662 51.4178 29.8169 51.1031C29.6675 50.7884 29.5929 50.4098 29.5929 49.9671C29.5929 49.5298 29.6675 49.1538 29.8169 48.8391C29.9662 48.5244 30.1742 48.2844 30.4409 48.1191C30.7075 47.9484 31.0169 47.8631 31.3689 47.8631C31.6942 47.8631 31.9849 47.9431 32.2409 48.1031C32.5022 48.2578 32.6729 48.4684 32.7529 48.7351H32.6649L32.7609 47.9431H33.9209C33.9049 48.1191 33.8889 48.2978 33.8729 48.4791C33.8622 48.6551 33.8569 48.8284 33.8569 48.9991V51.9991H32.6569L32.6489 51.2391H32.7449C32.6595 51.4951 32.4889 51.7004 32.2329 51.8551C31.9769 52.0098 31.6889 52.0871 31.3689 52.0871ZM31.7369 51.1751C32.0142 51.1751 32.2382 51.0764 32.4089 50.8791C32.5795 50.6818 32.6649 50.3778 32.6649 49.9671C32.6649 49.5564 32.5795 49.2551 32.4089 49.0631C32.2382 48.8711 32.0142 48.7751 31.7369 48.7751C31.4595 48.7751 31.2355 48.8711 31.0649 49.0631C30.8942 49.2551 30.8089 49.5564 30.8089 49.9671C30.8089 50.3778 30.8915 50.6818 31.0569 50.8791C31.2275 51.0764 31.4542 51.1751 31.7369 51.1751ZM36.7756 53.7911C36.3862 53.7911 36.0396 53.7511 35.7356 53.6711C35.4316 53.5964 35.1596 53.4818 34.9196 53.3271L35.1516 52.4631C35.3009 52.5591 35.4582 52.6364 35.6236 52.6951C35.7942 52.7591 35.9676 52.8044 36.1436 52.8311C36.3249 52.8631 36.5036 52.8791 36.6796 52.8791C37.0369 52.8791 37.3036 52.7938 37.4796 52.6231C37.6556 52.4524 37.7436 52.2098 37.7436 51.8951V51.0551H37.8236C37.7382 51.3111 37.5676 51.5164 37.3116 51.6711C37.0556 51.8258 36.7676 51.9031 36.4476 51.9031C36.0849 51.9031 35.7676 51.8204 35.4956 51.6551C35.2289 51.4898 35.0209 51.2551 34.8716 50.9511C34.7222 50.6471 34.6476 50.2898 34.6476 49.8791C34.6476 49.4684 34.7222 49.1111 34.8716 48.8071C35.0209 48.5031 35.2289 48.2711 35.4956 48.1111C35.7676 47.9458 36.0849 47.8631 36.4476 47.8631C36.7729 47.8631 37.0582 47.9404 37.3036 48.0951C37.5542 48.2444 37.7222 48.4444 37.8076 48.6951L37.7436 48.6631L37.8236 47.9431H38.9916C38.9702 48.1191 38.9542 48.2978 38.9436 48.4791C38.9329 48.6551 38.9276 48.8284 38.9276 48.9991V51.7591C38.9276 52.4151 38.7436 52.9164 38.3756 53.2631C38.0076 53.6151 37.4742 53.7911 36.7756 53.7911ZM36.8076 50.9911C37.0902 50.9911 37.3142 50.8951 37.4796 50.7031C37.6449 50.5111 37.7276 50.2364 37.7276 49.8791C37.7276 49.5218 37.6449 49.2498 37.4796 49.0631C37.3142 48.8711 37.0902 48.7751 36.8076 48.7751C36.5142 48.7751 36.2822 48.8711 36.1116 49.0631C35.9462 49.2498 35.8636 49.5218 35.8636 49.8791C35.8636 50.2364 35.9462 50.5111 36.1116 50.7031C36.2822 50.8951 36.5142 50.9911 36.8076 50.9911ZM39.9021 51.9991V49.0151C39.9021 48.8391 39.8967 48.6604 39.8861 48.4791C39.8807 48.2978 39.8674 48.1191 39.8461 47.9431H41.0061L41.1421 49.1271H40.9581C41.0114 48.8391 41.0967 48.6018 41.2141 48.4151C41.3367 48.2284 41.4861 48.0898 41.6621 47.9991C41.8434 47.9084 42.0487 47.8631 42.2781 47.8631C42.3794 47.8631 42.4594 47.8684 42.5181 47.8791C42.5767 47.8844 42.6354 47.8978 42.6941 47.9191L42.6861 48.9831C42.5741 48.9351 42.4781 48.9058 42.3981 48.8951C42.3234 48.8791 42.2274 48.8711 42.1101 48.8711C41.8861 48.8711 41.6994 48.9138 41.5501 48.9991C41.4061 49.0844 41.2967 49.2098 41.2221 49.3751C41.1527 49.5404 41.1181 49.7404 41.1181 49.9751V51.9991H39.9021ZM44.7361 52.0871C44.3841 52.0871 44.0747 52.0018 43.8081 51.8311C43.5414 51.6604 43.3334 51.4178 43.1841 51.1031C43.0347 50.7884 42.9601 50.4098 42.9601 49.9671C42.9601 49.5298 43.0347 49.1538 43.1841 48.8391C43.3334 48.5244 43.5414 48.2844 43.8081 48.1191C44.0747 47.9484 44.3841 47.8631 44.7361 47.8631C45.0614 47.8631 45.3521 47.9431 45.6081 48.1031C45.8694 48.2578 46.0401 48.4684 46.1201 48.7351H46.0321L46.1281 47.9431H47.2881C47.2721 48.1191 47.2561 48.2978 47.2401 48.4791C47.2294 48.6551 47.2241 48.8284 47.2241 48.9991V51.9991H46.0241L46.0161 51.2391H46.1121C46.0267 51.4951 45.8561 51.7004 45.6001 51.8551C45.3441 52.0098 45.0561 52.0871 44.7361 52.0871ZM45.1041 51.1751C45.3814 51.1751 45.6054 51.0764 45.7761 50.8791C45.9467 50.6818 46.0321 50.3778 46.0321 49.9671C46.0321 49.5564 45.9467 49.2551 45.7761 49.0631C45.6054 48.8711 45.3814 48.7751 45.1041 48.7751C44.8267 48.7751 44.6027 48.8711 44.4321 49.0631C44.2614 49.2551 44.1761 49.5564 44.1761 49.9671C44.1761 50.3778 44.2587 50.6818 44.4241 50.8791C44.5947 51.0764 44.8214 51.1751 45.1041 51.1751ZM48.2148 51.9991V48.9991C48.2148 48.8284 48.2094 48.6551 48.1988 48.4791C48.1881 48.2978 48.1721 48.1191 48.1508 47.9431H49.3108L49.3988 48.6951H49.3028C49.4201 48.4391 49.5934 48.2364 49.8228 48.0871C50.0521 47.9378 50.3241 47.8631 50.6388 47.8631C50.9481 47.8631 51.2068 47.9378 51.4148 48.0871C51.6281 48.2311 51.7801 48.4578 51.8708 48.7671H51.7428C51.8601 48.4898 52.0468 48.2711 52.3028 48.1111C52.5588 47.9458 52.8494 47.8631 53.1748 47.8631C53.6334 47.8631 53.9748 47.9991 54.1988 48.2711C54.4228 48.5431 54.5348 48.9698 54.5348 49.5511V51.9991H53.3268V49.5911C53.3268 49.3084 53.2814 49.1058 53.1908 48.9831C53.1001 48.8604 52.9534 48.7991 52.7508 48.7991C52.5108 48.7991 52.3214 48.8844 52.1828 49.0551C52.0441 49.2258 51.9748 49.4604 51.9748 49.7591V51.9991H50.7668V49.5911C50.7668 49.3084 50.7214 49.1058 50.6308 48.9831C50.5401 48.8604 50.3934 48.7991 50.1908 48.7991C49.9508 48.7991 49.7614 48.8844 49.6228 49.0551C49.4894 49.2258 49.4228 49.4604 49.4228 49.7591V51.9991H48.2148Z" fill="white"/>
<path fill-rule="evenodd" clip-rule="evenodd" d="M27.5 25.9984C27.5 24.1575 28.9924 22.6651 30.8333 22.6651H40.8333C42.6742 22.6651 44.1667 24.1575 44.1667 25.9984V35.9984C44.1667 37.8394 42.6742 39.3318 40.8333 39.3318H30.8333C28.9924 39.3318 27.5 37.8394 27.5 35.9984V25.9984ZM30.8333 24.3318C29.9129 24.3318 29.1667 25.078 29.1667 25.9984V35.9984C29.1667 36.9189 29.9129 37.6651 30.8333 37.6651H40.8333C41.7538 37.6651 42.5 36.9189 42.5 35.9984V25.9984C42.5 25.078 41.7538 24.3318 40.8333 24.3318H30.8333ZM35.8333 28.4984C34.4526 28.4984 33.3333 29.6177 33.3333 30.9984C33.3333 32.3792 34.4526 33.4984 35.8333 33.4984C37.2141 33.4984 38.3333 32.3792 38.3333 30.9984C38.3333 29.6177 37.2141 28.4984 35.8333 28.4984ZM31.6667 30.9984C31.6667 28.6973 33.5321 26.8318 35.8333 26.8318C38.1345 26.8318 40 28.6973 40 30.9984C40 33.2996 38.1345 35.1651 35.8333 35.1651C33.5321 35.1651 31.6667 33.2996 31.6667 30.9984ZM40.4167 27.6651C41.107 27.6651 41.6667 27.1055 41.6667 26.4151C41.6667 25.7248 41.107 25.1651 40.4167 25.1651C39.7263 25.1651 39.1667 25.7248 39.1667 26.4151C39.1667 27.1055 39.7263 27.6651 40.4167 27.6651Z" fill="white"/>
</svg>
