<svg width="72" height="70" viewBox="0 0 72 70" fill="none" xmlns="http://www.w3.org/2000/svg">
<path d="M53.3014 5.20706L70.5938 35.013L53.3014 64.8059L18.7121 64.7929L1.41969 34.987L18.7121 5.19405L53.3014 5.20706Z" fill="#3052FF" stroke="#3052FF"/>
<path d="M19.7159 51.9991V47.3751H17.9239V46.3591H22.7559V47.3751H20.9639V51.9991H19.7159ZM24.7626 52.0871C24.0586 52.0871 23.5092 51.8978 23.1146 51.5191C22.7199 51.1404 22.5226 50.6258 22.5226 49.9751C22.5226 49.5538 22.6052 49.1858 22.7706 48.8711C22.9412 48.5564 23.1759 48.3111 23.4746 48.1351C23.7786 47.9538 24.1332 47.8631 24.5386 47.8631C24.9386 47.8631 25.2719 47.9484 25.5386 48.1191C25.8106 48.2898 26.0132 48.5298 26.1466 48.8391C26.2852 49.1431 26.3546 49.4978 26.3546 49.9031V50.1831H23.5146V49.5831H25.4746L25.3386 49.6951C25.3386 49.3591 25.2692 49.1058 25.1306 48.9351C24.9972 48.7591 24.8026 48.6711 24.5466 48.6711C24.2639 48.6711 24.0452 48.7751 23.8906 48.9831C23.7412 49.1911 23.6666 49.4898 23.6666 49.8791V50.0071C23.6666 50.4018 23.7626 50.6951 23.9546 50.8871C24.1519 51.0791 24.4346 51.1751 24.8026 51.1751C25.0212 51.1751 25.2266 51.1484 25.4186 51.0951C25.6159 51.0364 25.8026 50.9458 25.9786 50.8231L26.3146 51.6231C26.1119 51.7724 25.8772 51.8871 25.6106 51.9671C25.3492 52.0471 25.0666 52.0871 24.7626 52.0871ZM27.121 51.9991V46.1111H28.329V51.9991H27.121ZM31.3563 52.0871C30.6523 52.0871 30.103 51.8978 29.7083 51.5191C29.3136 51.1404 29.1163 50.6258 29.1163 49.9751C29.1163 49.5538 29.199 49.1858 29.3643 48.8711C29.535 48.5564 29.7696 48.3111 30.0683 48.1351C30.3723 47.9538 30.727 47.8631 31.1323 47.8631C31.5323 47.8631 31.8656 47.9484 32.1323 48.1191C32.4043 48.2898 32.607 48.5298 32.7403 48.8391C32.879 49.1431 32.9483 49.4978 32.9483 49.9031V50.1831H30.1083V49.5831H32.0683L31.9323 49.6951C31.9323 49.3591 31.863 49.1058 31.7243 48.9351C31.591 48.7591 31.3963 48.6711 31.1403 48.6711C30.8576 48.6711 30.639 48.7751 30.4843 48.9831C30.335 49.1911 30.2603 49.4898 30.2603 49.8791V50.0071C30.2603 50.4018 30.3563 50.6951 30.5483 50.8871C30.7456 51.0791 31.0283 51.1751 31.3963 51.1751C31.615 51.1751 31.8203 51.1484 32.0123 51.0951C32.2096 51.0364 32.3963 50.9458 32.5723 50.8231L32.9083 51.6231C32.7056 51.7724 32.471 51.8871 32.2043 51.9671C31.943 52.0471 31.6603 52.0871 31.3563 52.0871ZM35.6428 53.7911C35.2534 53.7911 34.9068 53.7511 34.6028 53.6711C34.2988 53.5964 34.0268 53.4818 33.7868 53.3271L34.0188 52.4631C34.1681 52.5591 34.3254 52.6364 34.4908 52.6951C34.6614 52.7591 34.8348 52.8044 35.0108 52.8311C35.1921 52.8631 35.3708 52.8791 35.5468 52.8791C35.9041 52.8791 36.1708 52.7938 36.3468 52.6231C36.5228 52.4524 36.6108 52.2098 36.6108 51.8951V51.0551H36.6908C36.6054 51.3111 36.4348 51.5164 36.1788 51.6711C35.9228 51.8258 35.6348 51.9031 35.3148 51.9031C34.9521 51.9031 34.6348 51.8204 34.3628 51.6551C34.0961 51.4898 33.8881 51.2551 33.7388 50.9511C33.5894 50.6471 33.5148 50.2898 33.5148 49.8791C33.5148 49.4684 33.5894 49.1111 33.7388 48.8071C33.8881 48.5031 34.0961 48.2711 34.3628 48.1111C34.6348 47.9458 34.9521 47.8631 35.3148 47.8631C35.6401 47.8631 35.9254 47.9404 36.1708 48.0951C36.4214 48.2444 36.5894 48.4444 36.6748 48.6951L36.6108 48.6631L36.6908 47.9431H37.8588C37.8374 48.1191 37.8214 48.2978 37.8108 48.4791C37.8001 48.6551 37.7948 48.8284 37.7948 48.9991V51.7591C37.7948 52.4151 37.6108 52.9164 37.2428 53.2631C36.8748 53.6151 36.3414 53.7911 35.6428 53.7911ZM35.6748 50.9911C35.9574 50.9911 36.1814 50.8951 36.3468 50.7031C36.5121 50.5111 36.5948 50.2364 36.5948 49.8791C36.5948 49.5218 36.5121 49.2498 36.3468 49.0631C36.1814 48.8711 35.9574 48.7751 35.6748 48.7751C35.3814 48.7751 35.1494 48.8711 34.9788 49.0631C34.8134 49.2498 34.7308 49.5218 34.7308 49.8791C34.7308 50.2364 34.8134 50.5111 34.9788 50.7031C35.1494 50.8951 35.3814 50.9911 35.6748 50.9911ZM38.7693 51.9991V49.0151C38.7693 48.8391 38.7639 48.6604 38.7533 48.4791C38.7479 48.2978 38.7346 48.1191 38.7133 47.9431H39.8733L40.0093 49.1271H39.8253C39.8786 48.8391 39.9639 48.6018 40.0813 48.4151C40.2039 48.2284 40.3533 48.0898 40.5293 47.9991C40.7106 47.9084 40.9159 47.8631 41.1453 47.8631C41.2466 47.8631 41.3266 47.8684 41.3853 47.8791C41.4439 47.8844 41.5026 47.8978 41.5613 47.9191L41.5533 48.9831C41.4413 48.9351 41.3453 48.9058 41.2653 48.8951C41.1906 48.8791 41.0946 48.8711 40.9773 48.8711C40.7533 48.8711 40.5666 48.9138 40.4173 48.9991C40.2733 49.0844 40.1639 49.2098 40.0893 49.3751C40.0199 49.5404 39.9853 49.7404 39.9853 49.9751V51.9991H38.7693ZM43.6033 52.0871C43.2513 52.0871 42.9419 52.0018 42.6753 51.8311C42.4086 51.6604 42.2006 51.4178 42.0513 51.1031C41.9019 50.7884 41.8273 50.4098 41.8273 49.9671C41.8273 49.5298 41.9019 49.1538 42.0513 48.8391C42.2006 48.5244 42.4086 48.2844 42.6753 48.1191C42.9419 47.9484 43.2513 47.8631 43.6033 47.8631C43.9286 47.8631 44.2193 47.9431 44.4753 48.1031C44.7366 48.2578 44.9073 48.4684 44.9873 48.7351H44.8993L44.9953 47.9431H46.1553C46.1393 48.1191 46.1233 48.2978 46.1073 48.4791C46.0966 48.6551 46.0913 48.8284 46.0913 48.9991V51.9991H44.8913L44.8833 51.2391H44.9793C44.8939 51.4951 44.7233 51.7004 44.4673 51.8551C44.2113 52.0098 43.9233 52.0871 43.6033 52.0871ZM43.9713 51.1751C44.2486 51.1751 44.4726 51.0764 44.6433 50.8791C44.8139 50.6818 44.8993 50.3778 44.8993 49.9671C44.8993 49.5564 44.8139 49.2551 44.6433 49.0631C44.4726 48.8711 44.2486 48.7751 43.9713 48.7751C43.6939 48.7751 43.4699 48.8711 43.2993 49.0631C43.1286 49.2551 43.0433 49.5564 43.0433 49.9671C43.0433 50.3778 43.1259 50.6818 43.2913 50.8791C43.4619 51.0764 43.6886 51.1751 43.9713 51.1751ZM47.0819 51.9991V48.9991C47.0819 48.8284 47.0766 48.6551 47.0659 48.4791C47.0553 48.2978 47.0393 48.1191 47.0179 47.9431H48.1779L48.2659 48.6951H48.1699C48.2873 48.4391 48.4606 48.2364 48.6899 48.0871C48.9193 47.9378 49.1913 47.8631 49.5059 47.8631C49.8153 47.8631 50.0739 47.9378 50.2819 48.0871C50.4953 48.2311 50.6473 48.4578 50.7379 48.7671H50.6099C50.7273 48.4898 50.9139 48.2711 51.1699 48.1111C51.4259 47.9458 51.7166 47.8631 52.0419 47.8631C52.5006 47.8631 52.8419 47.9991 53.0659 48.2711C53.2899 48.5431 53.4019 48.9698 53.4019 49.5511V51.9991H52.1939V49.5911C52.1939 49.3084 52.1486 49.1058 52.0579 48.9831C51.9673 48.8604 51.8206 48.7991 51.6179 48.7991C51.3779 48.7991 51.1886 48.8844 51.0499 49.0551C50.9113 49.2258 50.8419 49.4604 50.8419 49.7591V51.9991H49.6339V49.5911C49.6339 49.3084 49.5886 49.1058 49.4979 48.9831C49.4073 48.8604 49.2606 48.7991 49.0579 48.7991C48.8179 48.7991 48.6286 48.8844 48.4899 49.0551C48.3566 49.2258 48.2899 49.4604 48.2899 49.7591V51.9991H47.0819Z" fill="white"/>
<path d="M27.572 31.3982C27.3075 31.8225 27.3072 31.8223 27.307 31.8222L27.3064 31.8218L27.3053 31.8211L27.3026 31.8194L27.2962 31.8153L27.2794 31.804C27.2664 31.7951 27.2499 31.7834 27.231 31.7689C27.1936 31.7404 27.1437 31.6989 27.0913 31.6452C26.9948 31.5461 26.8466 31.3611 26.8068 31.1003C26.762 30.8066 26.8691 30.5235 27.0958 30.2885C27.3051 30.0715 27.6227 29.8854 28.0525 29.7174C28.0526 29.7174 28.0526 29.7174 28.0526 29.7174L28.0526 29.7173L28.0528 29.7173L28.0538 29.7169L28.0575 29.7154L28.0721 29.7094L28.1297 29.6858L28.3501 29.5956L29.1547 29.2662C29.8309 28.9893 30.757 28.6099 31.757 28.1998C33.7556 27.3803 36.0477 26.4388 37.2299 25.9478C37.6898 25.7485 38.6868 25.3352 39.565 24.9733C40.0062 24.7914 40.4191 24.6218 40.7217 24.4978L41.0826 24.3498L41.1818 24.3092L41.2078 24.2986L41.2144 24.2959L41.2161 24.2952L41.2165 24.295L41.2166 24.295L41.4059 24.7577M27.572 31.3982L27.4103 31.8713L27.4104 31.8713L27.4106 31.8714L27.4114 31.8717L27.4145 31.8727L27.4266 31.8768L27.4729 31.8926L27.6466 31.9513C27.7952 32.0013 28.0057 32.0716 28.2533 32.1531C28.7478 32.3157 29.3931 32.5236 29.9906 32.7023C30.6569 32.9016 31.189 32.8961 31.5708 32.8286C31.7603 32.7951 31.9096 32.7468 32.0169 32.7035C32.0705 32.6819 32.1136 32.6615 32.146 32.6448C32.1622 32.6365 32.1758 32.6291 32.1866 32.6229L32.2009 32.6146L32.2066 32.6112L32.209 32.6097L32.2101 32.609L32.2107 32.6087C32.2109 32.6085 32.2112 32.6083 31.9475 32.1852L32.2113 32.6085L32.2208 32.6022L31.9468 32.184L32.2208 32.6022L32.2209 32.6021L32.2213 32.6019L32.2229 32.6009L32.2289 32.5969L32.2527 32.5813L32.3454 32.5204C32.4266 32.467 32.5455 32.3888 32.697 32.2888C32.9999 32.0889 33.4328 31.8024 33.9532 31.4557C34.8681 30.8462 36.0541 30.0502 37.2799 29.2114C36.3135 30.147 35.1096 31.2815 34.0571 32.2434C33.6546 32.5965 33.4683 33.011 33.537 33.4416C33.5988 33.8286 33.8502 34.1033 34.0263 34.2537L34.0286 34.2558C34.5663 34.7093 35.5463 35.3829 36.3892 35.9448C36.8151 36.2286 37.2134 36.4889 37.5143 36.6849C37.5535 36.7105 37.5909 36.7349 37.6265 36.758C37.728 36.8242 37.8146 36.8806 37.8834 36.9257C37.9299 36.9561 37.967 36.9806 37.9945 36.999C38.0159 37.0132 38.0268 37.0208 38.0308 37.0235C38.1723 37.1337 38.5248 37.363 38.9306 37.5498C39.1418 37.6469 39.382 37.7394 39.6263 37.7962C39.8653 37.8518 40.1447 37.8818 40.4166 37.8181L40.4166 37.8181C40.9781 37.6863 41.2583 37.2457 41.3888 36.936C41.4567 36.7748 41.4958 36.6237 41.5182 36.5143C41.5295 36.4589 41.537 36.4123 41.5417 36.378C41.5441 36.3608 41.5458 36.3466 41.547 36.3358L41.5471 36.3356L41.5508 36.312L41.5679 36.2047L41.6324 35.7995L41.8602 34.3698C42.0474 33.196 42.2937 31.654 42.5301 30.1807L42.5302 30.1807L42.5308 30.1764C42.6157 29.6159 42.7013 29.0622 42.7818 28.5416C42.996 27.157 43.174 26.0061 43.205 25.5835C43.2407 25.1723 43.1665 24.8054 42.9334 24.5325C42.7011 24.2605 42.3883 24.1728 42.1438 24.1516C41.8998 24.1304 41.6683 24.1692 41.5119 24.2058C41.4306 24.2248 41.3623 24.245 41.3133 24.2608C41.2886 24.2688 41.2685 24.2757 41.2536 24.281L41.2353 24.2877L41.2292 24.29L41.2269 24.2909L41.226 24.2912L41.2256 24.2914C41.2254 24.2915 41.2252 24.2915 41.4059 24.7577M27.572 31.3982L27.3075 31.8225L27.3561 31.8528L27.4103 31.8713L27.572 31.3982ZM41.4059 24.7577L41.2166 24.295L41.2252 24.2915L41.4059 24.7577ZM38.4472 27.9305C38.4471 27.9308 38.447 27.9311 38.4469 27.9315L38.4472 27.9305Z" stroke="white"/>
</svg>
