<svg width="71" height="70" viewBox="0 0 71 70" fill="none" xmlns="http://www.w3.org/2000/svg">
<path d="M52.4576 5.20706L69.75 35.013L52.4576 64.8059L17.8684 64.7929L0.575942 34.987L17.8684 5.19405L52.4576 5.20706Z" fill="#3052FF" stroke="#3052FF"/>
<path d="M24.1961 52.0871C23.5508 52.0871 23.0068 51.9698 22.5641 51.7351C22.1268 51.4951 21.7961 51.1591 21.5721 50.7271C21.3481 50.2898 21.2361 49.7804 21.2361 49.1991C21.2361 48.6018 21.3561 48.0844 21.5961 47.6471C21.8415 47.2098 22.1935 46.8711 22.6521 46.6311C23.1108 46.3911 23.6601 46.2711 24.3001 46.2711C24.7108 46.2711 25.0708 46.3244 25.3801 46.4311C25.6948 46.5324 25.9695 46.6791 26.2041 46.8711L25.8041 47.8391C25.6335 47.7164 25.4735 47.6204 25.3241 47.5511C25.1748 47.4764 25.0201 47.4258 24.8601 47.3991C24.7001 47.3671 24.5161 47.3511 24.3081 47.3511C23.7215 47.3511 23.2788 47.5111 22.9801 47.8311C22.6868 48.1458 22.5401 48.6044 22.5401 49.2071C22.5401 49.8044 22.6788 50.2578 22.9561 50.5671C23.2335 50.8764 23.6681 51.0311 24.2601 51.0311C24.4575 51.0311 24.6601 51.0124 24.8681 50.9751C25.0761 50.9378 25.2815 50.8818 25.4841 50.8071L25.2601 51.2871V49.7671H24.0201V48.8791H26.2921V51.6471C26.0095 51.7858 25.6815 51.8951 25.3081 51.9751C24.9401 52.0498 24.5695 52.0871 24.1961 52.0871ZM29.2051 52.0871C28.7731 52.0871 28.3971 52.0018 28.0771 51.8311C27.7624 51.6551 27.5171 51.4098 27.3411 51.0951C27.1704 50.7804 27.0851 50.4044 27.0851 49.9671C27.0851 49.5351 27.1704 49.1618 27.3411 48.8471C27.5171 48.5324 27.7624 48.2898 28.0771 48.1191C28.3971 47.9484 28.7731 47.8631 29.2051 47.8631C29.6371 47.8631 30.0131 47.9484 30.3331 48.1191C30.6531 48.2898 30.8984 48.5324 31.0691 48.8471C31.2451 49.1618 31.3331 49.5351 31.3331 49.9671C31.3331 50.4044 31.2451 50.7804 31.0691 51.0951C30.8984 51.4098 30.6531 51.6551 30.3331 51.8311C30.0131 52.0018 29.6371 52.0871 29.2051 52.0871ZM29.2051 51.1751C29.4824 51.1751 29.7011 51.0764 29.8611 50.8791C30.0264 50.6818 30.1091 50.3778 30.1091 49.9671C30.1091 49.5564 30.0264 49.2551 29.8611 49.0631C29.7011 48.8711 29.4824 48.7751 29.2051 48.7751C28.9277 48.7751 28.7064 48.8711 28.5411 49.0631C28.3811 49.2551 28.3011 49.5564 28.3011 49.9671C28.3011 50.3778 28.3811 50.6818 28.5411 50.8791C28.7064 51.0764 28.9277 51.1751 29.2051 51.1751ZM34.0332 52.0871C33.6012 52.0871 33.2252 52.0018 32.9052 51.8311C32.5905 51.6551 32.3452 51.4098 32.1692 51.0951C31.9985 50.7804 31.9132 50.4044 31.9132 49.9671C31.9132 49.5351 31.9985 49.1618 32.1692 48.8471C32.3452 48.5324 32.5905 48.2898 32.9052 48.1191C33.2252 47.9484 33.6012 47.8631 34.0332 47.8631C34.4652 47.8631 34.8412 47.9484 35.1612 48.1191C35.4812 48.2898 35.7265 48.5324 35.8972 48.8471C36.0732 49.1618 36.1612 49.5351 36.1612 49.9671C36.1612 50.4044 36.0732 50.7804 35.8972 51.0951C35.7265 51.4098 35.4812 51.6551 35.1612 51.8311C34.8412 52.0018 34.4652 52.0871 34.0332 52.0871ZM34.0332 51.1751C34.3105 51.1751 34.5292 51.0764 34.6892 50.8791C34.8545 50.6818 34.9372 50.3778 34.9372 49.9671C34.9372 49.5564 34.8545 49.2551 34.6892 49.0631C34.5292 48.8711 34.3105 48.7751 34.0332 48.7751C33.7559 48.7751 33.5345 48.8711 33.3692 49.0631C33.2092 49.2551 33.1292 49.5564 33.1292 49.9671C33.1292 50.3778 33.2092 50.6818 33.3692 50.8791C33.5345 51.0764 33.7559 51.1751 34.0332 51.1751ZM38.8693 53.7911C38.48 53.7911 38.1333 53.7511 37.8293 53.6711C37.5253 53.5964 37.2533 53.4818 37.0133 53.3271L37.2453 52.4631C37.3946 52.5591 37.552 52.6364 37.7173 52.6951C37.888 52.7591 38.0613 52.8044 38.2373 52.8311C38.4186 52.8631 38.5973 52.8791 38.7733 52.8791C39.1306 52.8791 39.3973 52.7938 39.5733 52.6231C39.7493 52.4524 39.8373 52.2098 39.8373 51.8951V51.0551H39.9173C39.832 51.3111 39.6613 51.5164 39.4053 51.6711C39.1493 51.8258 38.8613 51.9031 38.5413 51.9031C38.1786 51.9031 37.8613 51.8204 37.5893 51.6551C37.3226 51.4898 37.1146 51.2551 36.9653 50.9511C36.816 50.6471 36.7413 50.2898 36.7413 49.8791C36.7413 49.4684 36.816 49.1111 36.9653 48.8071C37.1146 48.5031 37.3226 48.2711 37.5893 48.1111C37.8613 47.9458 38.1786 47.8631 38.5413 47.8631C38.8666 47.8631 39.152 47.9404 39.3973 48.0951C39.648 48.2444 39.816 48.4444 39.9013 48.6951L39.8373 48.6631L39.9173 47.9431H41.0853C41.064 48.1191 41.048 48.2978 41.0373 48.4791C41.0266 48.6551 41.0213 48.8284 41.0213 48.9991V51.7591C41.0213 52.4151 40.8373 52.9164 40.4693 53.2631C40.1013 53.6151 39.568 53.7911 38.8693 53.7911ZM38.9013 50.9911C39.184 50.9911 39.408 50.8951 39.5733 50.7031C39.7386 50.5111 39.8213 50.2364 39.8213 49.8791C39.8213 49.5218 39.7386 49.2498 39.5733 49.0631C39.408 48.8711 39.184 48.7751 38.9013 48.7751C38.608 48.7751 38.376 48.8711 38.2053 49.0631C38.04 49.2498 37.9573 49.5218 37.9573 49.8791C37.9573 50.2364 38.04 50.5111 38.2053 50.7031C38.376 50.8951 38.608 50.9911 38.9013 50.9911ZM42.0038 51.9991V46.1111H43.2118V51.9991H42.0038ZM46.2391 52.0871C45.5351 52.0871 44.9858 51.8978 44.5911 51.5191C44.1965 51.1404 43.9991 50.6258 43.9991 49.9751C43.9991 49.5538 44.0818 49.1858 44.2471 48.8711C44.4178 48.5564 44.6525 48.3111 44.9511 48.1351C45.2551 47.9538 45.6098 47.8631 46.0151 47.8631C46.4151 47.8631 46.7485 47.9484 47.0151 48.1191C47.2871 48.2898 47.4898 48.5298 47.6231 48.8391C47.7618 49.1431 47.8311 49.4978 47.8311 49.9031V50.1831H44.9911V49.5831H46.9511L46.8151 49.6951C46.8151 49.3591 46.7458 49.1058 46.6071 48.9351C46.4738 48.7591 46.2791 48.6711 46.0231 48.6711C45.7405 48.6711 45.5218 48.7751 45.3671 48.9831C45.2178 49.1911 45.1431 49.4898 45.1431 49.8791V50.0071C45.1431 50.4018 45.2391 50.6951 45.4311 50.8871C45.6285 51.0791 45.9111 51.1751 46.2791 51.1751C46.4978 51.1751 46.7031 51.1484 46.8951 51.0951C47.0925 51.0364 47.2791 50.9458 47.4551 50.8231L47.7911 51.6231C47.5885 51.7724 47.3538 51.8871 47.0871 51.9671C46.8258 52.0471 46.5431 52.0871 46.2391 52.0871Z" fill="white"/>
<path fill-rule="evenodd" clip-rule="evenodd" d="M42.6854 29.0021H34.9972C34.9972 29.7517 34.9972 31.2507 34.9923 32.0003H39.4474C39.2766 32.7498 38.6714 33.7994 37.8161 34.3279C37.8161 34.3279 37.8145 34.3323 37.8128 34.3316C36.6758 35.0354 35.1752 35.1951 34.0611 34.9853C32.3146 34.6599 30.9325 33.4725 30.3713 31.9644C30.3746 31.9621 30.3771 31.9413 30.3795 31.9398C30.0283 31.0043 30.0283 29.7517 30.3795 29.0021H30.3787C30.8312 27.6243 32.255 26.3673 34.0039 26.0233C35.4105 25.7437 36.9976 26.0464 38.1649 27.0703C38.3201 26.9279 40.3132 25.1035 40.4627 24.955C36.4748 21.5692 30.0895 22.7602 27.7002 27.1326H27.6994C27.6994 27.1326 27.7002 27.1327 27.6953 27.141C26.5134 29.2885 26.5624 31.819 27.7035 33.8639C27.7002 33.8662 27.6978 33.8675 27.6953 33.8698C28.7295 35.7512 30.6115 37.1941 32.8791 37.7436C35.288 38.3357 38.3536 37.931 40.4072 36.1897L40.4096 36.1919C42.1495 34.7227 43.2326 32.22 42.6854 29.0021Z" fill="white"/>
</svg>
