<svg width="71" height="70" viewBox="0 0 71 70" fill="none" xmlns="http://www.w3.org/2000/svg">
<path d="M52.4576 5.20706L69.75 35.013L52.4576 64.8059L17.8684 64.7929L0.575942 34.987L17.8684 5.19405L52.4576 5.20706Z" stroke="#3052FF"/>
<path d="M22.7081 51.9991V47.3751H20.9161V46.3591H25.7481V47.3751H23.9561V51.9991H22.7081ZM26.9369 51.9991L25.3049 47.9431H26.5449L27.6169 50.8631H27.4089L28.4889 47.9431H29.2889L30.3609 50.8631H30.1929L31.2489 47.9431H32.4169L30.7929 51.9991H29.7529L28.6009 49.0071H29.0889L27.9769 51.9991H26.9369ZM32.9179 51.9991V47.9431H34.1259V51.9991H32.9179ZM32.8699 47.2791V46.1511H34.1659V47.2791H32.8699ZM37.0092 52.0871C36.4812 52.0871 36.0839 51.9564 35.8172 51.6951C35.5505 51.4284 35.4172 51.0311 35.4172 50.5031V48.8471H34.6492V47.9431H35.4172V46.9511L36.6252 46.6551V47.9431H37.6652V48.8471H36.6252V50.4391C36.6252 50.6951 36.6785 50.8711 36.7852 50.9671C36.8919 51.0631 37.0279 51.1111 37.1932 51.1111C37.2945 51.1111 37.3772 51.1058 37.4412 51.0951C37.5105 51.0791 37.5825 51.0578 37.6572 51.0311V51.9671C37.5559 52.0098 37.4492 52.0391 37.3372 52.0551C37.2252 52.0764 37.1159 52.0871 37.0092 52.0871ZM39.892 52.0871C39.364 52.0871 38.9667 51.9564 38.7 51.6951C38.4333 51.4284 38.3 51.0311 38.3 50.5031V48.8471H37.532V47.9431H38.3V46.9511L39.508 46.6551V47.9431H40.548V48.8471H39.508V50.4391C39.508 50.6951 39.5613 50.8711 39.668 50.9671C39.7747 51.0631 39.9107 51.1111 40.076 51.1111C40.1773 51.1111 40.26 51.1058 40.324 51.0951C40.3933 51.0791 40.4653 51.0578 40.54 51.0311V51.9671C40.4387 52.0098 40.332 52.0391 40.22 52.0551C40.108 52.0764 39.9987 52.0871 39.892 52.0871ZM43.1688 52.0871C42.4648 52.0871 41.9155 51.8978 41.5208 51.5191C41.1261 51.1404 40.9288 50.6258 40.9288 49.9751C40.9288 49.5538 41.0115 49.1858 41.1768 48.8711C41.3475 48.5564 41.5821 48.3111 41.8808 48.1351C42.1848 47.9538 42.5395 47.8631 42.9448 47.8631C43.3448 47.8631 43.6781 47.9484 43.9448 48.1191C44.2168 48.2898 44.4195 48.5298 44.5528 48.8391C44.6915 49.1431 44.7608 49.4978 44.7608 49.9031V50.1831H41.9208V49.5831H43.8808L43.7448 49.6951C43.7448 49.3591 43.6755 49.1058 43.5368 48.9351C43.4035 48.7591 43.2088 48.6711 42.9528 48.6711C42.6701 48.6711 42.4515 48.7751 42.2968 48.9831C42.1475 49.1911 42.0728 49.4898 42.0728 49.8791V50.0071C42.0728 50.4018 42.1688 50.6951 42.3608 50.8871C42.5581 51.0791 42.8408 51.1751 43.2088 51.1751C43.4275 51.1751 43.6328 51.1484 43.8248 51.0951C44.0221 51.0364 44.2088 50.9458 44.3848 50.8231L44.7208 51.6231C44.5181 51.7724 44.2835 51.8871 44.0168 51.9671C43.7555 52.0471 43.4728 52.0871 43.1688 52.0871ZM45.5193 51.9991V49.0151C45.5193 48.8391 45.5139 48.6604 45.5033 48.4791C45.4979 48.2978 45.4846 48.1191 45.4633 47.9431H46.6233L46.7593 49.1271H46.5753C46.6286 48.8391 46.7139 48.6018 46.8313 48.4151C46.9539 48.2284 47.1033 48.0898 47.2793 47.9991C47.4606 47.9084 47.6659 47.8631 47.8953 47.8631C47.9966 47.8631 48.0766 47.8684 48.1353 47.8791C48.1939 47.8844 48.2526 47.8978 48.3113 47.9191L48.3033 48.9831C48.1913 48.9351 48.0953 48.9058 48.0153 48.8951C47.9406 48.8791 47.8446 48.8711 47.7273 48.8711C47.5033 48.8711 47.3166 48.9138 47.1673 48.9991C47.0233 49.0844 46.9139 49.2098 46.8393 49.3751C46.7699 49.5404 46.7353 49.7404 46.7353 49.9751V51.9991H45.5193Z" fill="white"/>
<path fill-rule="evenodd" clip-rule="evenodd" d="M37.5438 23.2847C35.9166 23.2847 34.5975 24.8636 34.5975 26.8113C34.5975 27.0497 34.6171 27.2814 34.6542 27.5047C34.714 27.8643 34.626 28.2364 34.4175 28.5052C34.2091 28.774 33.9056 28.9066 33.6015 28.862C31.4932 28.5524 29.5755 27.5097 28.0312 25.9553C28.0613 26.6432 28.2605 27.3738 28.6929 28.1393L29.3409 29.2867L28.2767 29.8303L28.0714 29.9353C28.224 30.1442 28.4075 30.3588 28.6124 30.5696C28.8448 30.8088 29.0695 31.0076 29.2364 31.1466C29.3192 31.2156 29.3865 31.2688 29.4315 31.3036C29.454 31.321 29.4709 31.3337 29.4813 31.3414L29.4919 31.3493L29.4927 31.35L30.9713 32.423L29.4242 33.349C29.3476 33.3948 29.2711 33.4357 29.195 33.4721C29.5056 33.7853 29.8836 34.0737 30.2857 34.3013L31.6127 35.0521L30.5014 36.1996C29.8948 36.8261 29.2846 37.2931 28.4938 37.5399C29.6656 38.2883 31.0082 38.7135 32.4368 38.7135C37.0244 38.7135 40.7193 34.3314 40.7193 28.961V28.3671L41.1252 28.0258C41.759 27.4931 42.207 26.7727 42.5278 25.9492H41.0679H40.4651L40.206 25.2977C39.7316 24.105 38.7168 23.2847 37.5438 23.2847ZM26.7746 31.6266C26.5947 31.8733 26.5093 32.2049 26.5485 32.5376C26.6562 33.453 27.1141 34.2414 27.6202 34.8432C27.7576 35.0066 27.9046 35.1635 28.0589 35.3131C28.0353 35.321 28.0115 35.3285 27.9876 35.3357C27.528 35.4734 26.9087 35.5021 25.876 35.381C25.4767 35.3341 25.0956 35.5911 24.9221 36.0241C24.7485 36.457 24.8197 36.9736 25.1001 37.3171C26.9542 39.5876 29.558 40.9991 32.4368 40.9991C37.8908 40.9991 42.3645 35.9301 42.6175 29.5329C43.8484 28.2951 44.4647 26.6196 44.7971 25.095C44.8719 24.7525 44.8097 24.3879 44.6289 24.1078C44.4482 23.8276 44.1691 23.6636 43.8734 23.6636H41.6264C40.7627 22.062 39.2577 20.9991 37.5438 20.9991C34.9956 20.9991 32.9058 23.3485 32.704 26.3364C30.9196 25.7829 29.354 24.575 28.197 22.9368C27.986 22.638 27.6619 22.4892 27.338 22.5424C27.0142 22.5957 26.7356 22.8435 26.5997 23.1993C26.0223 24.7103 25.9111 26.4531 26.5573 28.2238L26.3342 28.3378C25.8923 28.5635 25.6594 29.1471 25.7904 29.7003C25.9669 30.446 26.3665 31.1043 26.7746 31.6266Z" fill="white"/>
</svg>
