<svg width="72" height="70" viewBox="0 0 72 70" fill="none" xmlns="http://www.w3.org/2000/svg">
<path d="M53.3014 5.20706L70.5938 35.013L53.3014 64.8059L18.7121 64.7929L1.41969 34.987L18.7121 5.19405L53.3014 5.20706Z" fill="#3052FF" stroke="#3052FF"/>
<path d="M32.2599 51.9991L29.7239 46.3591H31.0679L32.9959 50.8711H32.6039L34.5319 46.3591H35.8279L33.2919 51.9991H32.2599ZM36.2948 51.9991V46.3591H37.5428V48.8151H37.5588L39.8708 46.3591H41.3508L38.5108 49.3111L38.5188 48.7991L41.5268 51.9991H39.9988L37.5588 49.4231H37.5428V51.9991H36.2948Z" fill="white"/>
<path d="M36.5452 36.0146C31.1318 36.0146 28.043 32.2501 27.9141 25.9835H30.6252C30.7141 30.5835 32.7141 32.5301 34.2985 32.9324V25.9835H36.8541V29.9501C38.4163 29.779 40.0607 27.9724 40.6141 25.9835H43.1718C42.7452 28.4324 40.963 30.2413 39.6963 30.9835C40.963 31.5857 42.9918 33.1613 43.763 36.0146H40.9541C40.3496 34.1079 38.843 32.6301 36.8563 32.4301V36.0146H36.5452Z" stroke="white" stroke-linecap="round" stroke-linejoin="round"/>
</svg>
