<svg width="72" height="70" viewBox="0 0 72 70" fill="none" xmlns="http://www.w3.org/2000/svg">
<path d="M53.3014 5.20706L70.5938 35.013L53.3014 64.8059L18.7121 64.7929L1.41969 34.987L18.7121 5.19405L53.3014 5.20706Z" stroke="#3052FF"/>
<path d="M22.7799 51.9991V49.3191L23.0359 50.0311L20.5639 46.3591H22.0039L23.5559 48.7751H23.2999L24.8519 46.3591H26.2439L23.7799 50.0311L24.0279 49.3191V51.9991H22.7799ZM27.4079 52.0871C27.0559 52.0871 26.7466 52.0018 26.4799 51.8311C26.2133 51.6604 26.0053 51.4178 25.8559 51.1031C25.7066 50.7884 25.6319 50.4098 25.6319 49.9671C25.6319 49.5298 25.7066 49.1538 25.8559 48.8391C26.0053 48.5244 26.2133 48.2844 26.4799 48.1191C26.7466 47.9484 27.0559 47.8631 27.4079 47.8631C27.7333 47.8631 28.0239 47.9431 28.2799 48.1031C28.5413 48.2578 28.7119 48.4684 28.7919 48.7351H28.7039L28.7999 47.9431H29.9599C29.9439 48.1191 29.9279 48.2978 29.9119 48.4791C29.9013 48.6551 29.8959 48.8284 29.8959 48.9991V51.9991H28.6959L28.6879 51.2391H28.7839C28.6986 51.4951 28.5279 51.7004 28.2719 51.8551C28.0159 52.0098 27.7279 52.0871 27.4079 52.0871ZM27.7759 51.1751C28.0533 51.1751 28.2773 51.0764 28.4479 50.8791C28.6186 50.6818 28.7039 50.3778 28.7039 49.9671C28.7039 49.5564 28.6186 49.2551 28.4479 49.0631C28.2773 48.8711 28.0533 48.7751 27.7759 48.7751C27.4986 48.7751 27.2746 48.8711 27.1039 49.0631C26.9333 49.2551 26.8479 49.5564 26.8479 49.9671C26.8479 50.3778 26.9306 50.6818 27.0959 50.8791C27.2666 51.0764 27.4933 51.1751 27.7759 51.1751ZM30.8866 51.9991V48.9991C30.8866 48.8284 30.8813 48.6551 30.8706 48.4791C30.86 48.2978 30.844 48.1191 30.8226 47.9431H31.9826L32.0706 48.6951H31.9746C32.108 48.4284 32.2973 48.2231 32.5426 48.0791C32.788 47.9351 33.0733 47.8631 33.3986 47.8631C33.8733 47.8631 34.228 48.0018 34.4626 48.2791C34.7026 48.5511 34.8226 48.9751 34.8226 49.5511V51.9991H33.6146V49.6071C33.6146 49.3138 33.5613 49.1058 33.4546 48.9831C33.348 48.8604 33.188 48.7991 32.9746 48.7991C32.708 48.7991 32.4946 48.8844 32.3346 49.0551C32.1746 49.2204 32.0946 49.4444 32.0946 49.7271V51.9991H30.8866ZM37.3849 52.0871C37.0329 52.0871 36.7209 52.0018 36.4489 51.8311C36.1822 51.6604 35.9715 51.4178 35.8169 51.1031C35.6675 50.7884 35.5929 50.4098 35.5929 49.9671C35.5929 49.5298 35.6675 49.1538 35.8169 48.8391C35.9662 48.5244 36.1769 48.2844 36.4489 48.1191C36.7209 47.9484 37.0329 47.8631 37.3849 47.8631C37.7049 47.8631 37.9902 47.9404 38.2409 48.0951C38.4969 48.2444 38.6675 48.4471 38.7529 48.7031H38.6489V46.1111H39.8569V51.9991H38.6649V51.2071H38.7689C38.6835 51.4738 38.5129 51.6871 38.2569 51.8471C38.0009 52.0071 37.7102 52.0871 37.3849 52.0871ZM37.7449 51.1751C38.0222 51.1751 38.2462 51.0764 38.4169 50.8791C38.5875 50.6818 38.6729 50.3778 38.6729 49.9671C38.6729 49.5564 38.5875 49.2551 38.4169 49.0631C38.2462 48.8711 38.0222 48.7751 37.7449 48.7751C37.4675 48.7751 37.2409 48.8711 37.0649 49.0631C36.8942 49.2551 36.8089 49.5564 36.8089 49.9671C36.8089 50.3778 36.8942 50.6818 37.0649 50.8791C37.2409 51.0764 37.4675 51.1751 37.7449 51.1751ZM42.8876 52.0871C42.1836 52.0871 41.6342 51.8978 41.2396 51.5191C40.8449 51.1404 40.6476 50.6258 40.6476 49.9751C40.6476 49.5538 40.7302 49.1858 40.8956 48.8711C41.0662 48.5564 41.3009 48.3111 41.5996 48.1351C41.9036 47.9538 42.2582 47.8631 42.6636 47.8631C43.0636 47.8631 43.3969 47.9484 43.6636 48.1191C43.9356 48.2898 44.1382 48.5298 44.2716 48.8391C44.4102 49.1431 44.4796 49.4978 44.4796 49.9031V50.1831H41.6396V49.5831H43.5996L43.4636 49.6951C43.4636 49.3591 43.3942 49.1058 43.2556 48.9351C43.1222 48.7591 42.9276 48.6711 42.6716 48.6711C42.3889 48.6711 42.1702 48.7751 42.0156 48.9831C41.8662 49.1911 41.7916 49.4898 41.7916 49.8791V50.0071C41.7916 50.4018 41.8876 50.6951 42.0796 50.8871C42.2769 51.0791 42.5596 51.1751 42.9276 51.1751C43.1462 51.1751 43.3516 51.1484 43.5436 51.0951C43.7409 51.0364 43.9276 50.9458 44.1036 50.8231L44.4396 51.6231C44.2369 51.7724 44.0022 51.8871 43.7356 51.9671C43.4742 52.0471 43.1916 52.0871 42.8876 52.0871ZM44.5584 51.9991L46.4784 49.6391V50.1751L44.6624 47.9431H46.0864L47.1664 49.3591H46.7344L47.8224 47.9431H49.2384L47.4304 50.1831V49.6311L49.3504 51.9991H47.9184L46.7344 50.4791H47.1664L45.9744 51.9991H44.5584Z" fill="white"/>
<path d="M40.5293 21.9991H37.3538C34.234 21.9991 31.588 23.9257 31.588 27.666C31.588 29.9098 32.8693 31.5645 35.1531 32.3805L30.8917 38.6366C30.7524 38.8409 30.8917 38.9991 31.1142 38.9991H33.0919C33.2592 38.9991 33.3706 38.9539 33.4263 38.8409L37.2982 32.6977H38.6911V38.8409C38.6911 38.9086 38.7746 38.9991 38.8856 38.9991H40.613C40.7801 38.9991 40.8359 38.9312 40.8359 38.8182V22.2259C40.8359 22.0669 40.7243 21.9991 40.5293 21.9991ZM38.6911 31.2472H37.5211C35.6827 31.2472 33.9001 30.1592 33.9001 27.4392C33.9001 24.6053 35.5712 23.4495 37.2702 23.4495H38.6911V31.2472Z" fill="white"/>
</svg>
