<svg version="1.2" xmlns="http://www.w3.org/2000/svg" viewBox="0 0 62 71" width="62" height="71">
	<title>lock-boat-svg</title>
	<defs>
		<clipPath clipPathUnits="userSpaceOnUse" id="cp1">
			<path d="m23 27.65h15v15h-15z"/>
		</clipPath>
	</defs>
	<style>
		.s0 { opacity: .5;fill: #474747 } 
		.s1 { fill: none;stroke: #474747 } 
		.s2 { fill: #3052ff } 
	</style>
	<g id="Layer">
		<path id="Layer" class="s0" d="m0.5 18.3l30.3-17.5 30.3 17.5v35l-30.3 17.6-30.3-17.6z"/>
		<path id="Layer" fill-rule="evenodd" class="s1" d="m1 53.1v-34.5l29.8-17.2 29.8 17.2v34.5l-29.8 17.2z"/>
	</g>
	<g id="Clip-Path" clip-path="url(#cp1)">
		<g id="Layer">
			<path id="Layer" fill-rule="evenodd" class="s2" d="m24.9 35.2q0-0.4 0.2-0.7 0.3-0.3 0.7-0.3v-1.9q0-1.2 0.7-2.3 0.6-1.1 1.6-1.7 1.1-0.7 2.4-0.7 0.9 0.1 1.8 0.4 0.9 0.4 1.5 1 0.6 0.7 1 1.5 0.4 0.9 0.4 1.8v1.9q0.4 0 0.7 0.3 0.2 0.3 0.2 0.7v6.5q0 0.4-0.2 0.7-0.3 0.3-0.7 0.3h-9.4q-0.4 0-0.7-0.3-0.2-0.3-0.2-0.7zm9.4 5.7v-4.7h-7.5v4.7zm-1-6.6v-1.9q0-1.2-0.8-2-0.8-0.8-2-0.8-1.2 0-2 0.8-0.8 0.8-0.8 2v1.9z"/>
		</g>
	</g>
</svg>