<svg width="16" height="16" viewBox="0 0 16 16" fill="none" xmlns="http://www.w3.org/2000/svg">
<path opacity="0.1" d="M4.19685 5.25085L3.33333 6.11437C2.44445 7.00329 2 7.44769 2 7.99996C2 8.55229 2.44445 8.99669 3.33333 9.88563L4.74755 11.2998C6.56999 13.1223 9.52473 13.1223 11.3472 11.2998L11.6215 11.0256L9.6702 9.50789C9.2764 9.91416 8.72487 10.1667 8.1144 10.1667C6.91773 10.1667 5.94771 9.19663 5.94771 8.00003C5.94771 7.58303 6.06551 7.19356 6.26965 6.86303L4.19685 5.25085Z" fill="white"/>
<path d="M2.11719 3.41992L14.1172 12.7533" stroke="#92979D" stroke-width="2" stroke-linecap="round" stroke-linejoin="round"/>
<path d="M9.57687 9.23039C9.2108 9.69886 8.6406 9.99999 8 9.99999C6.8954 9.99999 6 9.10459 6 7.99999C6 7.55039 6.14835 7.13546 6.39878 6.80139" stroke="#92979D" stroke-width="2"/>
<path d="M6 3.75115C7.7202 2.96885 9.81787 3.28521 11.2329 4.70021L13.2341 6.70137C13.5651 7.03244 13.7306 7.19797 13.8241 7.37371C14.0325 7.76531 14.0325 8.23477 13.8241 8.62637C13.7306 8.80211 13.5651 8.96764 13.2341 9.29871L13.1993 9.33337" stroke="#92979D" stroke-linecap="round" stroke-linejoin="round"/>
<path d="M4.6771 5.59889C4.93746 5.33853 4.93746 4.91643 4.6771 4.65608C4.41676 4.39573 3.99465 4.39573 3.7343 4.65608L4.6771 5.59889ZM5.10436 10.8285L3.69015 9.41424L2.74734 10.3571L4.16156 11.7713L5.10436 10.8285ZM10.7612 10.8285C9.19913 12.3906 6.66646 12.3906 5.10436 10.8285L4.16156 11.7713C6.24436 13.8541 9.62126 13.8541 11.704 11.7713L10.7612 10.8285ZM3.69015 6.58584L4.6771 5.59889L3.7343 4.65608L2.74734 5.64303L3.69015 6.58584ZM11.1641 10.4256L10.7612 10.8285L11.704 11.7713L12.1069 11.3684L11.1641 10.4256ZM3.69015 9.41424C3.23238 8.95651 2.93748 8.65957 2.74876 8.41224C2.57178 8.18031 2.55208 8.07184 2.55208 8.00004H1.21875C1.21875 8.48057 1.42126 8.87044 1.68874 9.22104C1.94446 9.55617 2.31622 9.92597 2.74734 10.3571L3.69015 9.41424ZM2.74734 5.64303C2.31622 6.07415 1.94446 6.44391 1.68874 6.77911C1.42126 7.12964 1.21875 7.51951 1.21875 8.00004H2.55208C2.55208 7.92831 2.57178 7.81984 2.74876 7.58784C2.93748 7.34051 3.23238 7.04364 3.69015 6.58584L2.74734 5.64303Z" fill="#92979D"/>
</svg>
