<?xml version="1.0"?>
<svg width="16" height="16" xmlns="http://www.w3.org/2000/svg" xmlns:svg="http://www.w3.org/2000/svg">

 <g class="layer">
  <title>Layer 1</title>
  <path d="m5.26,3.94l-0.87,0.86c-0.89,0.89 -1.33,1.34 -1.33,1.89c0,0.55 0.44,1 1.33,1.89l1.42,1.41c1.82,1.82 4.77,1.82 6.6,0l0.27,-0.27l-1.95,-1.52c-0.39,0.4 -0.95,0.66 -1.56,0.66c-1.19,0 -2.16,-0.97 -2.16,-2.17c0,-0.42 0.12,-0.81 0.32,-1.14l-2.07,-1.61z" fill="white" id="svg_1" opacity="0.1" transform="matrix(1, 0, 0, 1, 0, 0)"/>
  <path d="m6,3.75c1.72,-0.78 3.82,-0.46 5.23,0.95l2,2c0.34,0.33 0.5,0.5 0.59,0.67c0.21,0.4 0.21,0.86 0,1.26c-0.09,0.17 -0.25,0.34 -0.59,0.67l-0.03,0.03" fill="#000000" fill-opacity="0" id="svg_4" stroke="#92979D" stroke-linecap="round" stroke-linejoin="round" transform="matrix(1, 0, 0, 1, 0, 0)"/>
  <path d="m4.68,5.6c0.26,-0.26 0.26,-0.68 0,-0.94c-0.26,-0.26 -0.69,-0.26 -0.95,0l0.95,0.94zm0.42,5.23l-1.41,-1.42l-0.94,0.95l1.41,1.41l0.94,-0.94zm5.66,0c-1.56,1.56 -4.09,1.56 -5.66,0l-0.94,0.94c2.08,2.08 5.46,2.08 7.54,0l-0.94,-0.94zm-7.07,-4.24l0.99,-0.99l-0.95,-0.94l-0.98,0.98l0.94,0.95zm7.47,3.84l-0.4,0.4l0.94,0.94l0.41,-0.4l-0.95,-0.94zm-7.47,-1.02c-0.46,-0.45 -0.75,-0.75 -0.94,-1c-0.18,-0.23 -0.2,-0.34 -0.2,-0.41l-1.33,0c0,0.48 0.2,0.87 0.47,1.22c0.25,0.34 0.63,0.71 1.06,1.14l0.94,-0.95zm-0.94,-3.77c-0.43,0.43 -0.81,0.8 -1.06,1.14c-0.27,0.35 -0.47,0.74 -0.47,1.22l1.33,0c0,-0.07 0.02,-0.18 0.2,-0.41c0.19,-0.25 0.48,-0.55 0.94,-1l-0.94,-0.95z" fill="#92979D" id="svg_5"/>
  <circle cx="7.91" cy="8" fill="#92979D" id="svg_7" r="2.86" stroke="null" stroke-dasharray="null" stroke-linecap="null" stroke-linejoin="null" stroke-opacity="null"/>
  <circle cx="7.91" cy="8.03" fill="#000000" id="svg_9" r="1.43" stroke="null" stroke-dasharray="null" stroke-linecap="null" stroke-linejoin="null" stroke-opacity="null"/>
 </g>
</svg>