<svg width="15" height="15" viewBox="0 0 15 15" fill="none" xmlns="http://www.w3.org/2000/svg">
<g clip-path="url(#clip0_615_381)">
<path fill-rule="evenodd" clip-rule="evenodd" d="M0 3C0 1.34314 1.34314 0 3 0H12C13.6568 0 15 1.34314 15 3V12C15 13.6568 13.6568 15 12 15H3C1.34314 15 0 13.6568 0 12V3ZM3 1.5C2.17157 1.5 1.5 2.17157 1.5 3V12C1.5 12.8285 2.17157 13.5 3 13.5H12C12.8285 13.5 13.5 12.8285 13.5 12V3C13.5 2.17157 12.8285 1.5 12 1.5H3ZM7.5 5.25C6.25733 5.25 5.25 6.25733 5.25 7.5C5.25 8.74267 6.25733 9.75 7.5 9.75C8.74267 9.75 9.75 8.74267 9.75 7.5C9.75 6.25733 8.74267 5.25 7.5 5.25ZM3.75 7.5C3.75 5.42894 5.42894 3.75 7.5 3.75C9.57105 3.75 11.25 5.42894 11.25 7.5C11.25 9.57105 9.57105 11.25 7.5 11.25C5.42894 11.25 3.75 9.57105 3.75 7.5ZM11.625 4.5C12.2463 4.5 12.75 3.99632 12.75 3.375C12.75 2.75368 12.2463 2.25 11.625 2.25C11.0037 2.25 10.5 2.75368 10.5 3.375C10.5 3.99632 11.0037 4.5 11.625 4.5Z" fill="white"/>
</g>
<defs>
<clipPath id="clip0_615_381">
<rect width="15" height="15" fill="white"/>
</clipPath>
</defs>
</svg>
