<svg width="18" height="15" viewBox="0 0 18 15" fill="none" xmlns="http://www.w3.org/2000/svg">
<path d="M1.64343 7.874C1.38096 8.29957 1.3807 8.29941 1.38043 8.29925L1.37988 8.29891L1.37872 8.29818L1.37611 8.29655L1.36985 8.29255L1.35337 8.28165C1.34076 8.27311 1.32476 8.26184 1.30639 8.24796C1.27022 8.22061 1.22188 8.18086 1.17108 8.12927C1.07798 8.03472 0.931926 7.85531 0.8926 7.6002C0.848083 7.31141 0.95538 7.03561 1.17519 6.81011C1.37748 6.60259 1.68217 6.42657 2.09042 6.26865C2.09045 6.26864 2.09047 6.26864 2.0905 6.26863L2.09049 6.26862L2.09071 6.26854L2.0916 6.26818L2.0951 6.26676L2.10901 6.26113L2.16349 6.23907L2.3723 6.1545L3.13462 5.84566C3.77516 5.58609 4.65255 5.23042 5.59993 4.84597C7.49319 4.07769 9.66454 3.1951 10.7845 2.73476C11.2205 2.54784 12.1651 2.16032 12.9969 1.82109C13.4149 1.65058 13.8061 1.4916 14.0928 1.37526L14.4347 1.23659L14.5287 1.1985L14.5533 1.18855L14.5596 1.186L14.5612 1.18535L14.5616 1.18519L14.5617 1.18515L14.7493 1.64861L14.5617 1.18513L14.5702 1.1817L14.7482 1.64574C14.5702 1.18178 14.5704 1.18171 14.5706 1.18164L14.571 1.18148L14.5719 1.18113L14.5741 1.1803L14.58 1.1781L14.5977 1.17172C14.612 1.16667 14.6313 1.16007 14.6549 1.15254C14.7018 1.13757 14.7671 1.11847 14.8448 1.1005C14.9941 1.06592 15.2159 1.02907 15.4501 1.04917C15.6843 1.06927 15.988 1.15257 16.2147 1.41521C16.4429 1.67967 16.5141 2.03404 16.4798 2.42565C16.4503 2.82363 16.2813 3.90521 16.0783 5.20411C16.0021 5.69167 15.9211 6.20985 15.8409 6.734L15.8402 6.73842L15.8402 6.73841C15.6162 8.11958 15.3829 9.56523 15.2055 10.6656L14.9897 12.006L14.9286 12.3859L14.9124 12.4864L14.909 12.5076C14.9078 12.518 14.9062 12.5315 14.9039 12.5476C14.8993 12.5804 14.8921 12.6249 14.8812 12.6777C14.8597 12.7818 14.822 12.9258 14.7566 13.0795C14.6306 13.3755 14.3594 13.7974 13.8169 13.9234L13.8169 13.9234C13.5549 13.9842 13.2866 13.9553 13.0585 13.9029C12.8251 13.8492 12.596 13.7618 12.3951 13.6703C12.0098 13.4949 11.6746 13.2794 11.5382 13.1744C11.5381 13.1743 11.538 13.1742 11.5378 13.1742C11.5338 13.1714 11.5237 13.1646 11.5048 13.1521C11.4789 13.1349 11.4437 13.112 11.3997 13.0835C11.3347 13.0413 11.2528 12.9885 11.1568 12.9266C11.123 12.9048 11.0874 12.8819 11.0501 12.8578C10.7651 12.674 10.3876 12.43 9.98399 12.1638C9.18569 11.6372 8.25603 11.0049 7.74528 10.5785L7.7429 10.5765C7.57444 10.4341 7.32913 10.1704 7.26866 9.79543C7.20098 9.37577 7.38572 8.97647 7.77162 8.64144C8.67781 7.8219 9.7024 6.86867 10.5688 6.0434C9.50952 6.75861 8.49722 7.43064 7.70143 7.95528C7.20833 8.28036 6.79815 8.54899 6.51117 8.73639C6.36768 8.83009 6.25498 8.9035 6.1781 8.95351L6.09028 9.01059L6.0677 9.02525L6.06195 9.02898L6.06048 9.02993L6.0601 9.03017L6.06 9.03024L5.78797 8.61072M1.64343 7.874L1.48327 8.34766L1.48333 8.34768L1.48354 8.34775L1.48431 8.34801L1.48727 8.34901L1.49869 8.35286L1.54262 8.36763L1.70719 8.42264C1.84806 8.46954 2.0475 8.53551 2.28211 8.61188C2.75068 8.76442 3.36226 8.95936 3.92856 9.12698C4.5631 9.31479 5.07057 9.30984 5.43549 9.24597C5.61664 9.21426 5.75951 9.16859 5.86257 9.12744C5.91405 9.10688 5.95554 9.08747 5.98687 9.07152C6.00254 9.06355 6.01568 9.05644 6.02628 9.05047L6.04026 9.04242L6.04581 9.03911L6.04823 9.03764L6.04935 9.03696L6.04989 9.03663C6.05015 9.03647 6.05041 9.0363 5.78797 8.61072M1.64343 7.874L1.38096 8.29957L1.42937 8.32942L1.48324 8.34765L1.64343 7.874ZM5.78797 8.61072L6.05997 9.03026L6.05048 9.03641L5.78797 8.61072ZM11.921 4.61417C11.9209 4.61466 11.9208 4.61526 11.9205 4.61598C11.9216 4.61014 11.9223 4.60922 11.921 4.61417Z" stroke="white"/>
</svg>
