<svg width="12" height="15" viewBox="0 0 12 15" fill="none" xmlns="http://www.w3.org/2000/svg">
<path d="M10.6934 0H7.51787C4.39806 0 1.75204 1.69996 1.75204 5.0002C1.75204 6.98005 3.0334 8.44007 5.31718 9.1601L1.05577 14.6802C0.916498 14.8604 1.05577 15 1.27825 15H3.25601C3.42329 15 3.53467 14.9601 3.5904 14.8604L7.46222 9.43993H8.85517V14.8604C8.85517 14.9202 8.93866 15 9.04968 15H10.777C10.9442 15 11 14.9401 11 14.8404V0.200078C11 0.0598239 10.8884 0 10.6934 0ZM8.85517 8.16012H7.68515C5.84674 8.16012 4.06415 7.20009 4.06415 4.80012C4.06415 2.29961 5.73524 1.27976 7.43429 1.27976H8.85517V8.16012Z" fill="white"/>
</svg>
