<svg version="1.2" xmlns="http://www.w3.org/2000/svg" viewBox="0 0 25 25" width="25" height="25">
	<title>inst-svg</title>
	<defs>
		<clipPath clipPathUnits="userSpaceOnUse" id="cp1">
			<path d="m0 0h25v25h-25z"/>
		</clipPath>
	</defs>
	<style>
		.s0 { fill: #ffffff } 
	</style>
	<g id="Clip-Path" clip-path="url(#cp1)">
		<g id="Layer">
			<path id="Layer" fill-rule="evenodd" class="s0" d="m22.8 2.2c1.9 1.9 2.5 4.3 2 15.4 0 1.3-0.2 2.2-0.5 3-1.8 4.4-5.9 4.7-17 4.2-1.3 0-2.2-0.3-3-0.6-1.7-0.6-3-1.9-3.6-3.6-1-2.5-0.7-12-0.6-13.2 0.1-2 0.6-3.8 2-5.2 1.4-1.5 3.2-2 5.2-2 12.2-0.6 14 0.4 15.5 2zm-0.6 17.6c0.1-0.4 0.3-1.1 0.4-2.3 0.5-10.9-0.1-12.5-1.4-13.8-1-1-2.3-1.3-3.7-1.3-11-0.5-12.6 0.1-13.8 1.3-1 1-1.3 2.3-1.4 3.8 0 1.4-0.3 10.4 0.5 12.3 0.4 1.1 1.2 1.9 2.3 2.4 0.5 0.1 1.1 0.3 2.3 0.4 11 0.5 13.6 0.1 14.8-2.8zm-3.1-15.4c0.8 0 1.5 0.6 1.5 1.5 0 0.8-0.7 1.5-1.5 1.5-0.8 0-1.5-0.7-1.5-1.5 0-0.9 0.7-1.5 1.5-1.5zm-6.6 1.7c3.5 0 6.4 2.9 6.4 6.4 0 3.5-2.9 6.4-6.4 6.4-3.6 0-6.4-2.9-6.4-6.4 0-3.5 2.8-6.4 6.4-6.4zm0 10.5c2.3 0 4.1-1.8 4.1-4.1 0-2.3-1.8-4.2-4.1-4.2-2.3 0-4.2 1.9-4.2 4.2 0 2.3 1.9 4.1 4.2 4.1z"/>
		</g>
	</g>
</svg>