<svg width="25" height="25" viewBox="0 0 25 25" fill="none" xmlns="http://www.w3.org/2000/svg">
<path d="M4.18117 11.3921C4.18117 11.3921 12.7038 7.16189 15.6596 5.67244C16.7926 5.07666 20.6352 3.17007 20.6352 3.17007C20.6352 3.17007 22.4087 2.33611 22.2609 4.36163C22.2116 5.19576 21.8175 8.11511 21.4233 11.2728C20.8322 15.7413 20.1918 20.6266 20.1918 20.6266C20.1918 20.6266 20.0933 21.997 19.2559 22.2353C18.4183 22.4737 17.039 21.4012 16.7926 21.1629C16.5956 20.9841 13.0979 18.3031 11.8172 16.9924C11.4723 16.635 11.0781 15.9199 11.8664 15.0858C13.6398 13.1198 15.7582 10.677 17.039 9.12803C17.6301 8.413 18.2213 6.74475 15.7582 8.77043C12.2605 11.6898 8.812 14.4305 8.812 14.4305C8.812 14.4305 8.0239 15.0263 6.54599 14.49C5.06809 13.9538 3.34385 13.2389 3.34385 13.2389C3.34385 13.2389 2.16163 12.3451 4.18143 11.3921H4.18117Z" stroke="white"/>
</svg>
