<svg width="16" height="15" viewBox="0 0 16 15" fill="none" xmlns="http://www.w3.org/2000/svg">
<path fill-rule="evenodd" clip-rule="evenodd" d="M15.8572 6.00297H8.16904C8.16904 6.75255 8.16903 8.25158 8.16413 9.00115H12.6192C12.4485 9.75074 11.8432 10.8003 10.988 11.3288C10.988 11.3288 10.9864 11.3332 10.9847 11.3325C9.84766 12.0363 8.34712 12.196 7.23293 11.9862C5.48651 11.6608 4.10438 10.4734 3.54321 8.96526C3.54648 8.96301 3.54894 8.94223 3.55139 8.94073C3.20014 8.00525 3.20014 6.75255 3.55139 6.00297H3.55057C4.00311 4.62524 5.42687 3.36825 7.17574 3.02419C8.58236 2.7446 10.1695 3.04727 11.3368 4.07119C11.492 3.92878 13.4851 2.10437 13.6346 1.95595C9.64671 -1.42991 3.2614 -0.238862 0.872115 4.13345H0.871297C0.871297 4.13345 0.87212 4.13363 0.86722 4.14187C-0.314763 6.28943 -0.265754 8.81995 0.875386 10.8648C0.872119 10.8671 0.86967 10.8684 0.86722 10.8707C1.90135 12.7521 3.78337 14.195 6.05095 14.7445C8.45984 15.3366 11.5255 14.9319 13.579 13.1906L13.5815 13.1928C15.3214 11.7236 16.4045 9.22093 15.8572 6.00297Z" fill="white"/>
</svg>
