<svg width="25" height="26" viewBox="0 0 25 26" fill="none" xmlns="http://www.w3.org/2000/svg">
<g clip-path="url(#clip0_611_14599)">
<path d="M23.1328 1.68311V20.4413H20.1328V19.3992H22.1328V2.72523H2.13281V19.3992H10.1328V20.4413H1.13281V1.68311H23.1328ZM16.1328 3.76735H8.13281V4.80947H16.1328V3.76735ZM14.1328 6.89371V5.85159H10.1328V6.89371H14.1328ZM7.13281 12.1043H3.13281V13.1464H7.13281V12.1043ZM7.13281 14.1886H3.13281V15.2307H7.13281V14.1886ZM3.13281 17.3149H5.13281V16.2728H3.13281V17.3149ZM17.1328 14.1886C17.1328 14.6008 17.0155 15.0038 16.7958 15.3465C16.576 15.6893 16.2636 15.9564 15.8982 16.1142C15.5327 16.2719 15.1306 16.3132 14.7426 16.2328C14.3547 16.1523 13.9983 15.9538 13.7186 15.6623C13.4389 15.3709 13.2484 14.9995 13.1712 14.5952C13.0941 14.1909 13.1337 13.7718 13.2851 13.391C13.4364 13.0101 13.6928 12.6846 14.0217 12.4556C14.3506 12.2266 14.7373 12.1043 15.1328 12.1043C15.6631 12.1049 16.1715 12.3246 16.5464 12.7154C16.9214 13.1061 17.1323 13.636 17.1328 14.1886ZM16.1328 14.1886C16.1328 13.9825 16.0742 13.781 15.9643 13.6096C15.8544 13.4382 15.6982 13.3046 15.5155 13.2258C15.3328 13.1469 15.1317 13.1263 14.9377 13.1665C14.7437 13.2067 14.5656 13.3059 14.4257 13.4517C14.2859 13.5974 14.1906 13.7831 14.152 13.9853C14.1134 14.1874 14.1332 14.3969 14.2089 14.5874C14.2846 14.7778 14.4128 14.9405 14.5772 15.0551C14.7417 15.1696 14.935 15.2307 15.1328 15.2307C15.3979 15.2304 15.6521 15.1205 15.8396 14.9252C16.0271 14.7298 16.1325 14.4649 16.1328 14.1886ZM16.1348 9.71474C16.1799 9.847 16.2511 9.96796 16.3438 10.0698C16.4365 10.1717 16.5486 10.2522 16.6729 10.3062C16.7973 10.3602 16.9311 10.3864 17.0657 10.3833C17.2004 10.3801 17.3329 10.3477 17.4548 10.2879C17.654 10.1909 17.8769 10.1596 18.0937 10.1981C18.3104 10.2367 18.5107 10.3433 18.6678 10.5036C18.8233 10.6656 18.927 10.8737 18.9646 11.0994C19.0022 11.3252 18.9719 11.5575 18.8778 11.7646C18.8199 11.8917 18.7882 12.0301 18.7848 12.1707C18.7814 12.3114 18.8063 12.4512 18.8579 12.5812C18.9096 12.7112 18.9868 12.8285 19.0846 12.9255C19.1824 13.0225 19.2986 13.0971 19.4258 13.1444C19.6325 13.2213 19.8112 13.3629 19.9377 13.5499C20.0641 13.7368 20.1319 13.9599 20.1319 14.1886C20.1319 14.4173 20.0641 14.6403 19.9377 14.8273C19.8112 15.0142 19.6325 15.1558 19.4258 15.2328C19.2986 15.2798 19.1823 15.3542 19.0844 15.4511C18.9864 15.5479 18.9091 15.6651 18.8574 15.795C18.8056 15.925 18.7806 16.0648 18.784 16.2054C18.7873 16.346 18.819 16.4844 18.8768 16.6115C18.9474 16.7624 18.9838 16.9282 18.983 17.0961C18.9823 17.264 18.9445 17.4294 18.8726 17.5796C18.8006 17.7298 18.6965 17.8608 18.5682 17.9624C18.4399 18.0639 18.291 18.1334 18.1328 18.1653V25.5081L15.1328 22.8632L12.1328 25.5081V18.1653C11.9748 18.1333 11.826 18.0639 11.6978 17.9624C11.5696 17.8609 11.4656 17.7301 11.3936 17.58C11.3217 17.4299 11.2839 17.2646 11.2831 17.0968C11.2822 16.9291 11.3184 16.7634 11.3888 16.6125C11.4468 16.4854 11.4786 16.3469 11.482 16.2062C11.4855 16.0654 11.4605 15.9255 11.4088 15.7954C11.357 15.6654 11.2796 15.5481 11.1816 15.4511C11.0836 15.3542 10.9672 15.2798 10.8398 15.2328C10.6332 15.1558 10.4544 15.0142 10.328 14.8273C10.2016 14.6403 10.1337 14.4173 10.1337 14.1886C10.1337 13.9599 10.2016 13.7368 10.328 13.5499C10.4544 13.3629 10.6332 13.2213 10.8398 13.1444C10.9671 13.0972 11.0834 13.0227 11.1813 12.9258C11.2792 12.8288 11.3566 12.7115 11.4083 12.5815C11.46 12.4515 11.485 12.3116 11.4817 12.1709C11.4783 12.0302 11.4467 11.8918 11.3888 11.7646C11.2946 11.5576 11.2642 11.3253 11.3016 11.0996C11.339 10.8739 11.4425 10.6657 11.5978 10.5036C11.7549 10.3436 11.9551 10.2374 12.1716 10.199C12.3882 10.1607 12.6108 10.192 12.8098 10.2889C12.9318 10.3487 13.0644 10.3811 13.1991 10.3842C13.3338 10.3873 13.4676 10.3609 13.592 10.3068C13.7163 10.2527 13.8284 10.1721 13.9211 10.0701C14.0137 9.96815 14.0848 9.84709 14.1298 9.71474C14.2034 9.49902 14.3393 9.31234 14.5188 9.18032C14.6983 9.04831 14.9126 8.97743 15.1323 8.97743C15.352 8.97743 15.5663 9.04831 15.7458 9.18032C15.9253 9.31234 16.0612 9.49902 16.1348 9.71474ZM17.1328 23.2623V18.01C16.9199 17.9819 16.7042 18.0314 16.5223 18.1501C16.3404 18.2688 16.2035 18.4494 16.1348 18.6614C16.061 18.8767 15.9251 19.063 15.7457 19.1948C15.5663 19.3265 15.3523 19.3972 15.1328 19.3972C14.9134 19.3972 14.6993 19.3265 14.5199 19.1948C14.3405 19.063 14.2046 18.8767 14.1308 18.6614C14.0621 18.4494 13.9252 18.2688 13.7433 18.1501C13.5614 18.0314 13.3457 17.9819 13.1328 18.01V23.2613L15.1328 21.498L17.1328 23.2623ZM15.1928 18.3133C15.3289 17.9145 15.58 17.5694 15.9118 17.3254C16.2436 17.0813 16.6397 16.9503 17.0458 16.9502C17.3465 16.9535 17.6431 17.0235 17.9158 17.1555L17.9738 17.0607C17.8556 16.8019 17.7909 16.5202 17.7838 16.2338C17.7766 15.9473 17.8273 15.6625 17.9325 15.3978C18.0377 15.133 18.1951 14.8943 18.3944 14.6969C18.5938 14.4996 18.8307 14.348 19.0898 14.2521V14.125C18.8309 14.0288 18.5942 13.8771 18.395 13.6797C18.1958 13.4823 18.0386 13.2436 17.9334 12.979C17.8283 12.7143 17.7775 12.4296 17.7845 12.1433C17.7914 11.8569 17.8559 11.5752 17.9738 11.3165L17.8868 11.2289C17.6385 11.3517 17.3682 11.4189 17.0935 11.4261C16.8187 11.4332 16.5456 11.3803 16.2917 11.2706C16.0378 11.1609 15.8088 10.9969 15.6195 10.7892C15.4302 10.5815 15.2849 10.3348 15.1928 10.0649H15.0728C14.9807 10.3348 14.8354 10.5815 14.6461 10.7892C14.4568 10.9969 14.2278 11.1609 13.9739 11.2706C13.7201 11.3803 13.4469 11.4332 13.1721 11.4261C12.8974 11.4189 12.6271 11.3517 12.3788 11.2289L12.2918 11.3165C12.4097 11.5752 12.4742 11.8569 12.4811 12.1433C12.4881 12.4296 12.4374 12.7143 12.3322 12.979C12.227 13.2436 12.0698 13.4823 11.8706 13.6797C11.6714 13.8771 11.4347 14.0288 11.1758 14.125V14.2521C11.4349 14.348 11.6718 14.4996 11.8712 14.6969C12.0705 14.8943 12.2279 15.133 12.3331 15.3978C12.4383 15.6625 12.489 15.9473 12.4819 16.2338C12.4748 16.5202 12.41 16.8019 12.2918 17.0607L12.3498 17.1544C12.6226 17.0228 12.9192 16.9532 13.2198 16.9502C13.6259 16.9503 14.022 17.0813 14.3538 17.3254C14.6856 17.5694 14.9368 17.9145 15.0728 18.3133L15.1328 18.3571L15.1928 18.3133Z" fill="#3052FF"/>
</g>
<defs>
<clipPath id="clip0_611_14599">
<rect width="24" height="25.0109" fill="white" transform="translate(0.132812 0.640869)"/>
</clipPath>
</defs>
</svg>
