<svg width="77" height="72" viewBox="0 0 77 72" fill="none" xmlns="http://www.w3.org/2000/svg">
<path d="M39.3966 60.8428H12.5143V13.0439C12.5143 12.712 12.7699 12.4496 13.0857 12.4496H49.9916C50.3074 12.4496 50.5631 12.7197 50.5631 13.0439V27.7085H54.007V13.0439C54.007 10.7361 52.2023 8.8606 49.9916 8.8606H13.0857C10.8675 8.8606 9.07031 10.7361 9.07031 13.0439V66.2224C9.07031 68.5301 10.875 70.4056 13.0857 70.4056H40.0884C39.6447 69.5103 39.3891 68.4915 39.3891 67.4187V60.8428H39.3966ZM31.6815 68.2677C30.4032 68.2677 29.358 67.1871 29.358 65.8519C29.358 64.5166 30.3957 63.4361 31.6815 63.4361C32.9599 63.4361 34.0051 64.5166 34.0051 65.8519C33.9976 67.1871 32.9599 68.2677 31.6815 68.2677ZM64.9855 31.2974H45.713C44.1264 31.2974 42.8405 32.6404 42.8405 34.2844V67.4187C42.8405 69.0627 44.1264 70.4056 45.713 70.4056H64.9855C66.5722 70.4056 67.858 69.0627 67.858 67.4187V34.2844C67.858 32.6327 66.5722 31.2974 64.9855 31.2974ZM55.353 68.6073C54.398 68.6073 53.6311 67.8046 53.6311 66.8167C53.6311 65.8287 54.4056 65.026 55.353 65.026C56.3005 65.026 57.075 65.8287 57.075 66.8167C57.075 67.8046 56.3005 68.6073 55.353 68.6073ZM64.4141 63.2277H46.2845V34.8787H64.4141V63.2277Z" fill="white"/>
</svg>
