<svg width="25" height="25" viewBox="0 0 25 25" fill="none" xmlns="http://www.w3.org/2000/svg">
<mask id="path-1-outside-1_611_14586" maskUnits="userSpaceOnUse" x="2.01562" y="2.02319" width="21" height="12" fill="black">
<rect fill="white" x="2.01562" y="2.02319" width="21" height="12"/>
<path d="M7.74809 11.3598C7.2766 11.3867 6.80469 11.3153 6.36017 11.1501C5.91565 10.9848 5.50752 10.7288 5.15983 10.3973C4.81213 10.0658 4.5319 9.6655 4.33566 9.2199C4.13942 8.77429 4.03113 8.29244 4.01717 7.80273C4.00321 7.31303 4.08388 6.82538 4.2544 6.36852C4.42492 5.91166 4.68186 5.49484 5.01007 5.14261C5.33828 4.79038 5.73113 4.50988 6.16545 4.31763C6.59978 4.12538 7.06681 4.02526 7.53901 4.02319H7.74809L20.8078 4.92984V10.4921L11.5169 11.1039L9.71026 11.1985"/>
</mask>
<path d="M7.86192 13.3565C8.9647 13.2937 9.80772 12.3487 9.74485 11.2459C9.68198 10.1432 8.73703 9.30015 7.63426 9.36302L7.86192 13.3565ZM7.53901 4.02319V2.02317L7.53024 2.02321L7.53901 4.02319ZM7.74809 4.02319L7.8866 2.028C7.8405 2.0248 7.7943 2.02319 7.74809 2.02319V4.02319ZM20.8078 4.92984H22.8078C22.8078 3.87902 21.9946 3.00742 20.9463 2.93464L20.8078 4.92984ZM20.8078 10.4921L20.9392 12.4877C21.9905 12.4185 22.8078 11.5456 22.8078 10.4921H20.8078ZM11.5169 11.1039L11.6215 13.1012C11.6304 13.1007 11.6394 13.1002 11.6484 13.0996L11.5169 11.1039ZM9.60572 9.20121C8.50266 9.25894 7.65526 10.1999 7.71299 11.303C7.77072 12.4061 8.71173 13.2535 9.81479 13.1957L9.60572 9.20121ZM7.63426 9.36302C7.4398 9.3741 7.24392 9.34488 7.05723 9.27546L5.66311 13.0247C6.36546 13.2858 7.1134 13.3992 7.86192 13.3565L7.63426 9.36302ZM7.05723 9.27546C6.87036 9.20598 6.69387 9.09658 6.53991 8.9498L3.77975 11.8449C4.32118 12.3611 4.96094 12.7636 5.66311 13.0247L7.05723 9.27546ZM6.53991 8.9498C6.38578 8.80285 6.25742 8.62135 6.16602 8.41381L2.5053 10.026C2.80638 10.7097 3.23848 11.3288 3.77975 11.8449L6.53991 8.9498ZM6.16602 8.41381C6.07457 8.20615 6.023 7.97883 6.01636 7.74576L2.01798 7.85971C2.03925 8.60604 2.20426 9.34243 2.5053 10.026L6.16602 8.41381ZM6.01636 7.74576C6.00972 7.51267 6.04824 7.28194 6.12813 7.0679L2.38067 5.66914C2.11951 6.36882 1.99671 7.11338 2.01798 7.85971L6.01636 7.74576ZM6.12813 7.0679C6.20798 6.85396 6.32657 6.66352 6.47329 6.50606L3.54686 3.77916C3.03716 4.32616 2.64186 4.96936 2.38067 5.66914L6.12813 7.0679ZM6.47329 6.50606C6.61986 6.34877 6.79119 6.22783 6.97498 6.14647L5.35593 2.48878C4.67107 2.79193 4.05671 3.232 3.54686 3.77916L6.47329 6.50606ZM6.97498 6.14647C7.15858 6.0652 7.35311 6.02403 7.54777 6.02317L7.53024 2.02321C6.78051 2.0265 6.04099 2.18555 5.35593 2.48878L6.97498 6.14647ZM7.53901 6.02319H7.74809V2.02319H7.53901V6.02319ZM7.60958 6.01839L20.6692 6.92503L20.9463 2.93464L7.8866 2.028L7.60958 6.01839ZM18.8078 4.92984V10.4921H22.8078V4.92984H18.8078ZM20.6763 8.49639L11.3855 9.10824L11.6484 13.0996L20.9392 12.4877L20.6763 8.49639ZM11.4124 9.10665L9.60572 9.20121L9.81479 13.1957L11.6215 13.1012L11.4124 9.10665Z" fill="#3052FF" mask="url(#path-1-outside-1_611_14586)"/>
<mask id="path-3-inside-2_611_14586" fill="white">
<path d="M11.0172 11.8206L12.4011 15.5689C12.5584 16.0752 12.5154 16.6233 12.2815 17.0927C12.0477 17.5621 11.6422 17.9143 11.1542 18.0718C10.6663 18.2293 10.1358 18.1793 9.67948 17.9327C9.2232 17.6861 8.87849 17.2631 8.72119 16.7568L7.03906 11.3428"/>
</mask>
<path d="M12.8867 11.107C12.5044 10.0714 11.3574 9.55135 10.3248 9.94548C9.2923 10.3396 8.76522 11.4986 9.14757 12.5342L12.8867 11.107ZM12.4011 15.5689L14.3043 14.9545C14.294 14.9211 14.2827 14.888 14.2706 14.8552L12.4011 15.5689ZM8.94235 10.7284C8.61462 9.67353 7.4968 9.09351 6.44565 9.43284C5.39449 9.77217 4.80804 10.9024 5.13578 11.9572L8.94235 10.7284ZM9.14757 12.5342L10.5315 16.2825L14.2706 14.8552L12.8867 11.107L9.14757 12.5342ZM10.4978 16.1833C10.5005 16.1919 10.5009 16.1994 10.5005 16.2047C10.5001 16.2099 10.4991 16.2102 10.5009 16.2065L14.0622 17.9789C14.5329 17.0339 14.6128 15.9471 14.3043 14.9545L10.4978 16.1833ZM10.5009 16.2065C10.5054 16.1975 10.5232 16.174 10.5608 16.1619L11.7476 19.9817C12.7613 19.6545 13.59 18.9267 14.0622 17.9789L10.5009 16.2065ZM10.5608 16.1619C10.5985 16.1497 10.6262 16.1585 10.635 16.1632L8.72397 19.7021C9.64529 20.2001 10.734 20.3089 11.7476 19.9817L10.5608 16.1619ZM10.635 16.1632C10.6386 16.1651 10.6376 16.1655 10.6343 16.1615C10.631 16.1574 10.6272 16.151 10.6245 16.1424L6.8179 17.3712C7.12632 18.3639 7.80541 19.2057 8.72397 19.7021L10.635 16.1632ZM10.6245 16.1424L8.94235 10.7284L5.13578 11.9572L6.8179 17.3712L10.6245 16.1424Z" fill="#3052FF" mask="url(#path-3-inside-2_611_14586)"/>
<path d="M7.965 13.8125H7" stroke="#3052FF" stroke-width="2" stroke-linecap="round" stroke-linejoin="round"/>
<path d="M7.62396 9.86273C8.80556 9.86273 9.73229 8.87427 9.73229 7.69406C9.73229 6.51385 8.80556 5.52539 7.62396 5.52539C6.44236 5.52539 5.51562 6.51385 5.51562 7.69406C5.51562 8.87427 6.44236 9.86273 7.62396 9.86273Z" stroke="#3052FF" stroke-linecap="round" stroke-linejoin="round"/>
<path d="M9.89975 17.6655C9.89975 17.6655 9.41189 19.3342 10.1035 20.5023C10.7951 21.6703 9.03125 22.3545 9.03125 22.2877" stroke="#3052FF" stroke-linecap="round" stroke-linejoin="round"/>
</svg>
